<?xml version="1.0" encoding="UTF-8"?>
<svg id="Capa_2" xmlns="http://www.w3.org/2000/svg" version="1.1" viewBox="0 0 590 444.5">
  <!-- Generator: Adobe Illustrator 29.3.1, SVG Export Plug-In . SVG Version: 2.1.0 Build 151)  -->
  <defs>
    <style>
      .st0 {
        fill: #206c60;
      }

      .st1 {
        fill: #e52521;
      }

      .st2 {
        fill: #dccf22;
      }

      .st3 {
        fill: #bcb123;
      }

      .st4 {
        fill: #053238;
      }

      .st5 {
        fill: #fff5ee;
      }
    </style>
  </defs>
  <g id="Capa_1-2">
    <g>
      <path class="st4" d="M71.7,250.3c3.4-.4,6.8-.9,10-2.4,6.4-3.1,6.6-5.2.8-10.1-.3-1.3-.6-2.6-.9-3.9-.2-3.9,2.6-6.3,4.6-9.1,4.6-6.3,7.6-13.8,15-17.8,1.6-.9,1.6-3,2.3-4.6,1-2.4,2.2-4.3,5.2-4.4,2.1,0,3.7-1.1,4.6-3,2.5-5.1,6.6-8.5,11-11.6,3.3-2.3,4.7-5.1,3.1-9,0-.2.2-.4.5-.4,4.6.9,7-3.1,10.3-5,1.3-.7,2.3-2.2,4-2.4,1.9-.3,4.3-1.1,5.3.9,1.1,2.3-1.8,2.4-2.9,3.5-.6.6-1.4,1-2,1.7-.7.7-1.7,1.6-.7,2.6.9,1,2,.2,2.8-.4,8.2-5.9,19.4-6.8,25.3-16.6,1.3,3.5-2.4,5.2-1.6,8.1-.5,0-1.1,0-1.6.1-1.2.4-2.3,1-2.2,2.5,0,.3.3.7.6.8,1.6.3,2.1-.9,2.7-1.9.2-.4.3-1,.5-1.5,7.1,4.9,7.8-4.6,12.2-5.6,1.8.9-.5,4.1,2.4,3.9,2-.1,2.9-1.9,3.6-3.5,1.9-4.6,5.4-7.8,9.6-11.8,0,4.9-.3,8.4-2.8,11.4-1.7,2.1-2.2,4.4-.4,6.1,2.2,2.1,3.3-.9,4.4-2,2.1-2,4.2-3.3,7-2.1,3.1,1.4,5.6-1.8,8.6-1.1,1.3.3,3.6,0,2.7,1.9-2.4,5.5,2.6,2.8,3.3,2.6,5.7-1.8,11.6-2,17.2-4.8,8.4-4.2,17.6-6.7,26.4-10.1,1.7-.6,2.9-.9,4.3.3,1.6,1.4,3.5,2.5,5.7,1.2.4-.2,1.4-.5,1.5-.4,2.1,4.1,5.6,2.2,8.8,2.8,4.1.7,7,.2,10.2-1.9,2-1.3,4.1-2.7,6.8-1.8,1.4.5,3.1.1,4.4-1.5-3.8-3.2-6.1-8.2-12.4-7.7,4.6-1.5,9.2-.2,13.8-1.9-3.2,3.3-3.3,5.1,1.5,5.5,1.7.1,3.3,1.1,4.9,1.8-.2.6-.4,1.3-.6,1.9-1.5.8-1.4,2.1-1.1,3.4-2.2,2.4-5.3,3.3-8.2,4.3-4.6,1.6-3.1,3.5-.8,5.6.8.8,2.4.7,3,2.5-3.4.1-4.3,2.1-3.3,5.1-.7.3-2.4.5-1.8.9,2.5,1.7-.5,4,.8,5.6-2,2.9-4.9,4.9-7.9,6.4-3.2,1.6-5.2,3.8-5.3,7.4-.3.4-.6.7-.8,1-1.6.2-3.2.9-4.1,2.1-9.2,12.1-23.1,18.4-34.6,27.5-3.4,2.6-7.1,4.9-9.7,8.4-1.1.1-1.9.5-1.6,1.8-.1.2-.3.3-.4.4-2.1-.3-3.9.4-5.3,2-.5.2-.9.5-1.4.7-6,.7-11.8,2.7-16,6.9-4.2,4.2-9.1,6.5-14.4,8.2-21.9,7-43.6,14.5-65.7,20.6-12.1,3.3-24.4,6.2-36.6,9.2-5.7,1.4-11.2,2.7-17,2.5-2-.1-4,.2-5.1,2-6.5,10.9-17.5,17.3-26,26.2-1.7,1.7-3.2,3.7-4.8,5.5-1.1,1.2-2.5,2.5-4,1.3-1.5-1.2,0-2.8.7-3.7,6.6-7.4,10.7-16.7,18-23.5.4-.4.8-.7,1.1-1.1,1.5-2,4.8-4.1,3.1-6.5-1.5-2.3-3.9.7-5.9,1.3-1.1.3-2.4.2-3.6.4-2.5.8-4.9,1.7-7.4,2.5-1.1.4-2.5.8-3.3-.5-.6-1,0-2.1.4-3,1.9-3.5,4.5-6.6,7.3-9.6,7.5-.1,14.2-7.1,14.7-15.3,2.5-2.6,5-5.2,7.6-7.8"/>
      <path class="st3" d="M230.2,233.9c2.3.8,4.2.3,5.3-2,.1-.1.3-.3.4-.4,1.2,0,1.7-.7,1.6-1.8,2.6-3.5,6.3-5.7,9.7-8.4,11.6-9.1,25.5-15.3,34.6-27.5.9-1.2,2.5-1.9,4.1-2.1-1.6,2.7-4,4.7-2.8,8.7,2.5,8.4-5.4,10-9.9,13.8-.5.4-1.4.4-2,.7-3.3,1.9-6.5,4.5-6.4,8.3.1,3.6,4,3.6,6.9,4.3,3.2.9,6,2.8,6.2,6.4.2,3.4,1.8,4.1,4.7,4,.9,0,1.8,0,2.6.4,1.8.6,3.9,1.1,4.5,3.2.7,2.3-1,3.5-2.5,4.7-1.1.8-2.8,1.5-2.2,3.1.6,1.6,2.4,1.1,3.7,1.1,4.9,0,9.8-.1,14.7-.9,2.6-.4,6.3-.7,4.4,4.3-.9,2.4.6,2.7,2.6,2.2,9.1-2.5,18.2-4.9,24.9-12.4,2.6-2.9,6.6-3.3,10-4.3,7.6-2.2,14.2-7.4,22.9-6.4,4.2.5,4.4,1.6,2.8,4.8-2.4,4.9-5.8,7.7-11.4,8.9-4.8,1-9.6,3.4-12.9,7.9-2.5,3.4-6.9,5.4-6.6,10.7.1,2.7.3,4.1,3.5,3,6-2.1,10.6-5.4,15.1-10.2,5.1-5.4,11.3-10.7,19.4-11.6,4.2-.4,6.9-2.1,8.8-5.6.4-.7.9-1.5,1.5-2.1,5.2-5.5,5.3-5.6,9.2,1.1,1.4,2.3,2.8,2.3,4.7,1.1,2.3-1.4,3.7-3.7,5.4-5.7,1.2-1.4,2.4-3.1,3.9-4.1,1.8-1.2,3.8-3.4,6-1.3,1.9,1.9.2,3.9-.8,5.7-1.3,2.5-2.9,4.9-2.2,7.9-.9,1-1.8,2.1-2.8,3.1-14.4,13.2-28.2,27-41.6,41.3-5.9,6.3-12.8,11.5-21.2,14.1-4.8,1.4-8.9,3.8-13.1,6.4-8,5.1-15.3,12-25.8,11.7-3.4-2.4-6.4-5.5-11-1.6-1.7,1.4-4.9.9-4.6-2.6.2-3.7-2-4.1-4.6-4.1-3.2,0-6.3.6-9,2.2-3.6,2.1-6.4,1.7-7.8-2.5-1.1-3.3-3.5-4.5-6.7-5-4-.6-8.5,0-11.1-4.5-.3-.4-1.4-.8-1.9-.6-5.3,1.8-9.7-.3-14.3-2.8-2.9-1.6-6.3-.1-9.1,1.1-6.7,3-10.1,2.3-14.7-3.5-3.3-4.1-6.8-4.9-11.4-2.2-7.1,4.1-13.7,9-20,14.3-3.8,3.2-7.9,3.6-11.8.5-2.7-2.1-4.2-.3-5.7,1.3-3.3,3.3-5.9,7.5-10.9,8.6-2,0-4,.1-6,.2-.7-3.4,2.1-5.4,3.3-8,2-4.2-2.4-13.9-6.9-14.7-2.7-.5-3.2,1.2-2.3,3.2,2.3,5.2-.9,6.5-4.9,7.4-3.3.8-6.6.4-9.9.6-2.7.1-5.6-.6-7.4,2.6-1.1,1.9-2.8.2-4.2-.1-4.7-1.2-9.7-4.1-13,2.6-1,2.1-3.5.6-5.3,0-4.7-1.4-9.7-4-11.4,3.8-.1.5-1,1.2-1.6,1.2-6.6.6-8.8,7-13.5,10.2-.7.5-1.1,1.9-1.1,2.8.1,4.1-2.4,6.6-5.3,8.5-6.3,4.2-9.6,10.2-11.7,17.2-.9,3,.7,3.8,3.3,3.5,1.7-.2,3.4-2.4,5.2-.2-6.1,8.6-11.7,17.5-18.8,25.3-11.8,1.3-23.4,3.1-33.7,9.6-.9.6-1.8,1.1-2.8,1.4-2.5.7-6,2.4-7.3.1-1.4-2.5,2.9-2.6,4.2-4.2,4.9-6.7,13.3-9.4,18.3-16,3.8-4.9,7-9.9,9.1-15.7,1.4-4,4.3-6.8,7.7-9,3.5-2.3,5.7-5.3,7-9.4,2.4-7.9,8.9-13.3,13-20.2,1-1.6,2.3-3,2.5-5.1.7-7.6,5.3-12.3,12.1-14.9,1.4-.5,2.3-1.4,3.5-2.2,3.6-2.5,7.1-5.2,11.6-1.2,2,1.8,4.1.6,6.2-.7,3.8-2.4,7.9-5.2,12.2-.5,1.3,1.5,2.8.7,4.2-.3,4.3-2.7,8.4-4.4,13.8-2.1,3.7,1.5,7.3-.3,9.2-4,.9-1.7,1.3-3.6,1.8-5.5,1.6-6.2,5.1-10.4,11.3-12.6,13.3-4.6,26.3-10.7,39.9-14,10.3-2.5,19.8-6.7,29.5-10.4.9-.4,1.8-.9,2.8-1.4-1.1-2.3-3.6.3-4.7-2.1,1.8-3.4,5.5-4.3,8.6-5.9,1.8-.9,4.2-.9,4.9-3.4.4-.2.9-.5,1.3-.7M246.3,263.5c-.1,9.2,4,12.4,12.4,10.3,3.7-.9,7.8-2.1,9.5,3.3.5,1.6,1.9,2.4,3.6,2.7,2.2.3,5.2-.2,6.6.6,7.5,4.2,14.4,0,21.6-.6,5.9-.4,7.6-3.7,4.4-8.9-4.1-6.6-6.6-7.6-13.9-5.8-3.9.9-7.7.4-11.3-1.1-2.4-1-4-1-5.9,1.3-3,3.5-7.6,2.5-9.6-1.7-.4-.9-1-1.9-1.2-2.9-1.4-6.9-6.5-4.2-10.5-3.8-4.1.4-5.1,3.7-5.7,6.5M252.7,250.5c2.9-.2,7.3.6,7.5-4.4.2-3.7-2.2-6.1-6.4-6-5.1.1-8.5,2.7-8.6,6.6,0,3.3,1,3.9,7.5,3.8"/>
      <path class="st2" d="M286.1,191.8c.3-.3.6-.7.8-1,3.1,1.9,5.9,1.2,8.3-1.3,2.3-2.4,4.5-4.8,6.7-7.2,2.8-2.9,1.6-4.5-1.8-5.3-1.3-1.7,1.7-3.9-.8-5.6-.5-.4,1.1-.6,1.8-.9,5.5-.2,8.6-4.8,13.4-7.1-1.5-2.5-6-3.1-5.2-6.4.7-2.6,4-.7,6-1.5-.7-.8-1.5-1.6-2.3-2.4,2.5-2.4-.3-2.6-1.5-3.5.2-.6.4-1.3.6-1.9,3,.4,5.1-1.4,7.6-3-5.3-1.6-4.2-3.8-1.1-6.1,2.4,2.6,4.7,1,7.1,0,6.6.5,13.3.7,19.5-2.1,3.1-1.4,3.7,3.9,6.6,1.9,1.5,7.1,4.9.6,5.5,0,6.2-5.3,12.7-6.8,20-2.6,1.2.7,2.5.5,3.4-.4,1.8-1.8,3.8-3,6.4-3.2,1.4-.1,2.2-1,2.1-2.5-.1-2,1.1-3.2,2.7-4.1,3.2,3.8-.4,11.9-5.3,13.7-5.8,2.1-11.5.5-16.9-.3-4.4-.6-6.9,1-9.9,2.9-.1.1-.3.2-.4.4-5.2,4.5-10,4.2-14.3-1l.2-.2-.2.2c-1.4,0-2.9-.1-4,.9-1.8,1.6-4.4,3.3-3.7,5.9.7,2.6,3.6,1.5,5.5,1.6,4,.2,8.1,0,12.1.1,1.5,0,4,.2,2.6,2.4-2.1,3.5,0,3.5,2.4,4.2,10.2,3.1,20.2,7.2,31.3,6.1,3.1-.3,5.7,1.5,7.9,3.5,2.4,2.2,3.7,2,4.8-1.1,1.1-3.2,2.3-4.4,4.4-.3,1.4,2.7,4.1,4.5,4.3,8,.2,2.8.5,5.2-2.5,6.6-2,.9-2.3,2.7-1.5,4.4,1,2.1,2.9,1.7,4.5.9,2.1-.9,4-1.9,4.8-4.5,1.1-3.8,4.9-4.5,8-4.8,2.9-.3,2.7,3.1,3.2,5.2.5,2.1,1.9,2.8,3.9,2.8,2.2,0,3.9-.9,4.3-3.1.7-4,2.9-5.7,6.9-5.3,2.9.2,3.9-1.6,4-4.3,0-3.5,0-7,1.9-10.2,1.4,33.3-9,61.6-35.4,83.1-.7-3,.8-5.4,2.2-7.9,1-1.8,2.8-3.9.8-5.7-2.2-2.1-4.3.1-6,1.3-1.5,1-2.7,2.7-3.9,4.1-1.7,2-3.1,4.3-5.4,5.7-1.9,1.2-3.4,1.2-4.7-1.1-3.9-6.7-4-6.6-9.2-1.1-.6.6-1.1,1.4-1.5,2.2-1.9,3.5-4.6,5.1-8.8,5.6-8.1.8-14.3,6.2-19.4,11.6-4.5,4.8-9.1,8.1-15.1,10.2-3.2,1.1-3.3-.3-3.5-3-.3-5.3,4.1-7.3,6.6-10.7,3.3-4.5,8-6.8,12.9-7.9,5.6-1.2,9.1-4,11.4-8.9,1.6-3.2,1.4-4.3-2.8-4.8-8.7-.9-15.3,4.3-22.9,6.4-3.4,1-7.4,1.4-10,4.3-6.7,7.5-15.8,9.9-24.9,12.4-1.9.5-3.4.2-2.6-2.2,1.8-5-1.8-4.7-4.4-4.3-4.9.8-9.8,1-14.7.9-1.3,0-3.1.5-3.7-1.1-.6-1.7,1.1-2.3,2.2-3.1,1.6-1.2,3.2-2.4,2.5-4.7-.6-2.1-2.7-2.6-4.5-3.2-.8-.3-1.7-.4-2.6-.4-2.9.2-4.5-.6-4.7-4-.2-3.6-3-5.5-6.2-6.4-2.8-.8-6.8-.8-6.9-4.3-.1-3.9,3.1-6.4,6.4-8.3.6-.3,1.4-.3,2-.7,4.5-3.7,12.4-5.4,9.9-13.8-1.2-4,1.2-6,2.8-8.7"/>
      <path class="st4" d="M507.1,71.9c-9.5,1.7-18.8,4.2-28.1,6.8-1.5.4-3.2,1.3-4.5.5-5.3-3.1-7.3.1-8.9,4.4-3.9,2.4-7.2,6.2-12.5,5.7-1.2,0-1.7,1-2.4,1.7-3.9,1.2-8,1.1-10.9,5.6-1.6,2.4-6.8,2.9-10.6,3.6-6,1.1-10.4,4.6-14.4,8.7-1.1.6-2.3,1.3-3.4,1.9-5.6-1.2-10.2,1.7-15.2,3.3-2.6.8-4.9,2.4-7.8,3-3.4.7-4.6,4-5.1,7.2-.8,5.3-3.6,7.2-8.4,5.2-5.2-2.2-10.1-1.5-15.1.7-5.1,2.2-10.2,4-16,2.2-1.6-.5-3.7.7-5.6,1.1-5.3,1.1-9.8.7-13.5-4.2-2.6-3.4-7.4-3.8-11.3-4.9-7-1.9-11.7-7.4-18-10.5-4.1-2-2.6-17.4,1.1-20.6,1.2-1,2.7-1.7,4.4-1,.9.4,1.7,1.6,2.8.9,2.9-1.7,4.3-.5,5.5,2.2.5,1.1,2.2,1.6,3.3,2.4l-.2.2.2-.2c7.6-.9,14.2-3.7,19.4-9.7,3.2-3.7,8.9-3.7,12.2-7.7.8,0,1.7-.2,2.6-.3,5.7.8,9.5-3,13.1-6,4.5-3.7,9.8-6.6,14.7-8,7.3-2.1,13.6-6.3,21-7.9,2.3-.5,3.3-2.3,3.9-4.5h3c.4,1.1,1.1,1.2,1.9.3,2.5,0,5,0,7.5-.1,0,.9-.2,1.9-.3,2.8h0c1-.2,1.9-.5,2.2-1.6,5.6.4,7.5-4.9,11.4-7.1,1.7-.5,3.9.5,5-1.7,1.1-.3,2.2-.6,3.3-.8,1.1.2,2.2.5,3.1-.4,1.6,0,3.1,0,4.7,0,5.7,2.1,11.5,1.2,17.4.7,1.3,0,2.5-.1,3.7-.2.3,1.1,1,1.8,2.1,2.1,5.1,1.2,9.9,3,14.6,5.2,1.9.9,5.2,2.6,4.2-2.5-.3-1.7.7-2.5,2.6-1.7,2.5,1,4,0,4.4-2.7.8-.2,1.5-.3,2.3-.5,1.5.7,3,.6,4.6.4,5.4-.9,6.6-.2,5.9,4.9-.3,2.3,1,3,2.3,4.3-5.3,3.3-11.8,3-17.5,6.5,3.1,1.3,5.4.3,7.6-.5,15.3-5.6,31.3-7.7,47.3-9,11.7-.9,22.6-4.7,34-6.2,3.7-.5,7.7-2,10.8,1.7-2.5-.1-4.7.7-7,1.7-12,5.2-24.3,9.4-37.2,12.2-12.3,2.8-25,4.3-36.3,10.4"/>
      <path class="st0" d="M312.5,98.1h0c-1.1-.8-2.8-1.3-3.3-2.4-1.2-2.7-2.6-3.9-5.5-2.2-1.1.7-1.9-.6-2.8-.9-1.7-.7-3.1,0-4.4,1-3.7,3.2-5.1,18.5-1.1,20.6,6.2,3.1,11,8.6,18,10.5,3.9,1.1,8.7,1.5,11.3,4.9,3.7,4.9,8.3,5.2,13.6,4.2,1.9-.4,4-1.6,5.6-1.1,5.8,1.8,11,0,16-2.2s9.9-2.8,15.1-.7c4.7,1.9,7.6,0,8.4-5.2.5-3.3,1.7-6.5,5.1-7.2,2.8-.6,5.1-2.2,7.8-3,4.9-1.6,9.6-4.5,15.2-3.3-2.3,1.4-4.7,2.8-7,4.2-3.7-1.7-6.2-.6-7.6,3.2-1.6,2.4-3.2,4.7-4.8,7.1-1.6.9-2.8,2.1-2.7,4.1,0,1.5-.7,2.4-2.1,2.5-2.6.2-4.6,1.4-6.4,3.2-.9,1-2.2,1.1-3.4.4-7.4-4.2-13.8-2.7-20,2.6-.6.5-4,7-5.5,0-2.9,2.1-3.5-3.3-6.6-1.9-6.2,2.8-12.9,2.6-19.5,2.1-2.4-2.8-4.7-1.1-7.1,0-3.1,2.3-4.2,4.5,1.1,6.1-2.5,1.6-4.6,3.4-7.6,3-1.6-.6-3.2-1.6-4.9-1.7-4.8-.4-4.7-2.2-1.5-5.5-4.6,1.6-9.2.3-13.8,1.9,6.3-.5,8.6,4.5,12.4,7.7-1.3,1.6-2.9,2-4.4,1.5-2.8-.9-4.8.5-6.8,1.8-3.2,2.1-6.1,2.6-10.2,1.9-3.2-.5-6.7,1.3-8.8-2.8,0-.1-1,.1-1.5.4-2.3,1.3-4.1.2-5.7-1.2-1.4-1.2-2.6-1-4.3-.3-8.8,3.4-18,5.9-26.4,10.1-5.6,2.8-11.6,3-17.2,4.8-.7.2-5.7,2.9-3.3-2.6.8-2-1.4-1.6-2.7-1.9-3-.7-5.5,2.5-8.6,1.1-2.8-1.2-5,.2-7,2.1-1.2,1.1-2.2,4-4.4,2-1.9-1.7-1.4-4,.4-6.1,2.5-2.9,2.8-6.5,2.8-11.4-4.3,4-7.8,7.2-9.6,11.8-.6,1.6-1.6,3.4-3.6,3.5-2.9.2-.7-3-2.4-3.9-4.4,1-5.1,10.5-12.2,5.6h0c-.9-2.8,2.9-4.6,1.6-8.1-5.8,9.8-17.1,10.7-25.3,16.6-.8.6-1.9,1.3-2.8.4-1-1,0-1.9.7-2.6.6-.6,1.4-1.1,2-1.7,1.1-1.1,4.1-1.2,2.9-3.5-1-2-3.4-1.1-5.3-.9-1.6.2-2.6,1.6-4,2.4-3.3,1.9-5.7,5.9-10.3,5,1.3-1.1,2.7-2.2,3.9-3.4,31.3-29.9,67.4-52.4,107.3-69.1,9.8-4.1,20.1-6.9,30.3-9.9,11.1-3.3,22.7-3.5,33.7-7.1-1.5,5.7-1.5,5.8,4.9,6,3.1,0,4.1,4,8.1,3.4,3.8-.6,7.3-1.5,9.8-4,5.1-5.3,11.4-7.6,18.2-9-3.2,3.9-9,4-12.2,7.7-5.2,6-11.7,8.8-19.4,9.7h0ZM261.1,125.5c-5.1,1.2-7.3,3.7-8.5,8.1,6.7-1.3,13.8.8,18.8-5.6-.6-1.1-3.7.6-3-2.2.8-3.2,3.7-2.5,6.3-2.3-.5-3-2.3-4.2-4.5-4.8-4-1.1-8.8-.5-10.7-5.9-.5-1.3-2.5-.8-3.1,1.5-1.4,5-3.7,5.5-8.4,3.6-5.5-2.3-11.3-2.6-17.2-.1-5.3,2.2-11.1,3.2-16,6.3-3.1,2,0,5.6-2,7.9,1.2.9,2.6.5,3.4-.4,5-6.3,12.7-4.5,19.1-6.4,4.1-1.2,5.7,1.2,4.5,5.8-.4,1.3-1.3,2.5-1.9,3.7-.4.8-.9,1.6,0,2.4.6.5,1.4.3,1.9-.2,1.6-2,3.6-1.7,5.7-1.3,1.5.3,1.9-.3,1.8-2.1-.5-7.5,5.1-11.1,14-7.9M298,136.3c1.7,1.4,3.2,2,4.9.6,1.1-.9.9-2.2.4-3.3-1.1-2.6-3.2-3.2-6.2-2.6,3.6,1.4,4.9,3.1.9,5.3"/>
      <path class="st5" d="M411.4,111c1.1-.6,2.3-1.3,3.4-1.9,9.4-2.6,19.5-2.9,27.3-10.3,2.8-2.6,8.5-1.9,8.6-7.6.7-.7,1.2-1.8,2.4-1.7,5.2.4,8.6-3.3,12.5-5.7,2.6-.1,5.1-.5,7.7.3,4.1,1.3,6.3-2.8,9.5-4.1,4.3-1.8,8.4,2.5,12.2-.7.6,1,1.2,2,1.8,3-1.1,4.6,1.9,8.6,2.4,13.2-2.1-.7-3.7-1.3-5.3-1.9-.4-.6-1.2-.9-1.7-.5-.7.6.3,1,.6,1.5.7,1,1.4,2,1.9,3.1.6,1.1,1,2.2,2,4.1-6.4-2.8-11.7-5.1-14.3-11.5-3.9,8.3,1.7,17.3-4,24.6-2.1-2.5-2.7-5.8-6-8.3v23.8c-3.1-2.6-2.7-6.3-5-8.5-1,2.4-.3,4.7,0,6.9.4,2.2,1.5,4.6-.9,6.2-2.7,1.8-2.1-3.1-4.6-2.4,0,3.3,0,6.6,0,9.9,0,5.3-2.5,7.2-7.1,5.8-1.2,4.1,2,10-4.6,12.1-1.9,3.1-1.8,6.7-1.9,10.2,0,2.7-1.1,4.6-4,4.3-4.1-.3-6.2,1.3-6.9,5.3-.4,2.2-2.1,3.1-4.3,3.1-2,0-3.3-.7-3.9-2.8-.5-2.1-.3-5.5-3.2-5.2-3.1.3-6.9,1-8,4.8-.8,2.6-2.7,3.6-4.8,4.5-1.7.7-3.6,1.2-4.5-.9-.8-1.8-.4-3.5,1.5-4.4,3.1-1.4,2.8-3.8,2.5-6.6-.3-3.5-3-5.4-4.3-8-2.1-4.1-3.3-2.9-4.4.3-1.1,3.1-2.5,3.3-4.8,1.1-2.2-2.1-4.9-3.8-7.9-3.5-11.1,1.1-21.1-3-31.3-6.1-2.4-.7-4.5-.7-2.4-4.2,1.4-2.3-1.1-2.4-2.6-2.4-4-.1-8.1,0-12.1-.1-2,0-4.9,1-5.5-1.6-.7-2.6,1.9-4.3,3.7-5.9,1.1-1,2.6-.9,4-.8h0c4.3,5.2,9.1,5.6,14.3,1,.1-.1.3-.3.4-.4,3-1.9,5.5-3.5,9.9-2.9,5.4.8,11.1,2.4,16.9.3,4.9-1.8,8.6-9.9,5.3-13.7,1.6-2.4,3.2-4.7,4.8-7.1,2.1-2.1,5.3-1.8,7.6-3.2,2.3-1.4,4.7-2.8,7-4.2"/>
      <path class="st5" d="M303.1,84.4h0c.8,0,1.3-.4,1.6-1.1,7-5.5,13.1-11.9,18.7-18.8.3-.4.5-.8.8-1.3v.2c8-2,16.5-3.3,21.9-10.5,2.2-2.9,5.8-3,8.4-5,1.2-.9,2.6-1.6,3.9-2.6,5.1-.3,8.9-4.6,14.6-4.2-.8-2.5-3.8-2.5-4-4.7l6.2-.4c4.5-1.5,9.6-.6,13.8-3.1,1.4-.2,3.2-.3,3.3-1.9.1-2-2.6-.7-4-2.6,7.3-.6,13.9-1.1,20.5-1.6v.2c.1,0,.3-.2.3-.2,5.4-.2,10.7,1.9,16.1,1.2,4.7,1.1,9.1-.8,13.7-1,1.1,0,2.6-1.4,3-2.6,2.3-5.7,8.1-8.8,10.9-14.2.6-1.2,5.4-.1,8.3-.1,6.9,2.9,12.4,7.7,17.8,12.7,3.1,2.9,6.5,4.5,10.7,4.6,5.5.2,10.6,2,15.7,3.7,2.9.9,4.6,4.5,8.2,4,10.5,1.3,21,1,31.6.9h0c-.8,2.6-3.1,1.9-4.9,1.8-7.5-.3-15,.8-22.5-.8-2.4-.5-5.2-.7-7.8.5-.3,2.7,3.1,1.3,3.6,3.8-7.3.3-14.9-.8-21.1,4.2-.8.2-1.5.3-2.3.5-2.7-4.8-5.6-2.5-7.5.3-1.7,2.6-3.9,2.7-5.8,1.7-4.7-2.4-9.9-1-14.7-2.4-1.2,0-2.5.1-3.7.2-4.7-2.7-10-1.7-15.1-2.3-1.1-.1-2,.3-2.3,1.5-1.6,0-3.1,0-4.7,0-1.4-2.5-2.1.2-3.1.4-1.1.3-2.2.6-3.3.8-1.6.8-4.4-2-5,1.7-3.9,2.3-5.8,7.6-11.4,7.1.3-1.9-.6-1.8-1.9-1.2-2.5,0-5,0-7.5.1-.5-1.1-1.1-1-1.9-.3-1,0-2,0-3,0-7.2.3-14.2,1.3-20.4,5.2-1,.6-1.9,1.6-3.2,1.6-9.5-.2-15.6,4.9-20.5,12.5-2,3.1-6.7,3.6-8.7,7.1-.8,0-1.7.2-2.6.3-6.8,1.4-13.1,3.8-18.2,9-2.4,2.5-6,3.4-9.8,4-4,.7-5-3.3-8.1-3.4-6.4-.2-6.4-.3-4.9-6h0Z"/>
      <path class="st4" d="M368.8,36.4c-2.4-.5-4.8-.3-5.4,2.6-.6,3.2-5.9,2.3-5.3,6.3-1.2,1-2.7,1.7-3.8,2.6-2.6,2-6.2,2.1-8.4,5-5.4,7.2-13.9,8.5-21.9,10.5,1.1-10.5,7.1-18.7,12.5-27.2,4.5-1.8,8.3-4.6,11.3-8.5.7-.7,2-1.5,2-2.1-.7-8.7,0-10.6,7.8-14,8.7-3.9,17.8-6.6,27.2-8.3,4.6,1.5,9.2.7,13.9.3,4.3-.5,8.6-1,13-.2,2,.4,4.6.6,3.5-3,.4.1.7.3,1.1.4,8.5,2,17,4.1,25.4,6.1,1.9.4,4.5.7,5,2.3.5,1.9-1.9,3.4-3.2,4.7-3.9,3.9-9.7,5.9-14.3,6.3-7.3.7-4,4.5-4.1,7.7-5.4.7-10.7-1.4-16.1-1.2h-.3c-6.6.5-13.3,1-20.5,1.6,1.4,2,4.1.6,4,2.7,0,1.6-1.9,1.6-3.3,1.9-4.7.5-10.1-1.6-13.8,3.1-2.1.1-4.1.3-6.2.4"/>
      <path class="st0" d="M310.4,319.9c-2.3,1-4.8.9-7.2,1-6.1.3-7.9,3.8-4.8,9.2-2.9,1.3-4.6-.2-5.9-2.5-2.5-4.4-5.3-4.9-12.2-2.7-4.5,1.4-4.1,4.4-3.4,7.8,0,.3,0,.7,0,1-1.9,2.1-3.8,4.2-6.5,5.2,0-2,1.3-3.1,2.6-4.3,1.5-1.4,1.7-3,.6-4.7-1-1.6-2.7-1.6-4.2-1-6.3,2.6-13,2.5-19.5,3.6-2.9.5-5.8.6-5.2,4.8.6,4.4,3.5,3.3,6.3,2.8,1.2-.2,2.4-.3,3.6-.5-2.6,2.3-5.4,4.5-7.7,7-2,2.1-2.8,1.2-3.6-.7-1.3-3-2.8-5.6-6.3-6.4-3.9-.9-4.1-3.7-3.4-6.9.6-2.4,1.9-4.5,3.7-6.2,2.7-2.6,1.6-3.6-1.3-5-15.1-7.4-31.1-6.5-47.2-6.2-5.2,1-10.7,1.2-13.5,6.9-6.5-1.8-12.9-3.8-19.8-3.3,5-1.1,7.6-5.3,10.9-8.6,1.6-1.5,3-3.4,5.7-1.3,3.9,3.1,8.1,2.7,11.8-.5,6.3-5.3,12.9-10.1,20-14.3,4.6-2.7,8.1-1.9,11.4,2.2,4.7,5.8,8,6.4,14.7,3.5,2.8-1.2,6.2-2.6,9.1-1.1,4.6,2.5,9,4.6,14.3,2.8.5-.2,1.6.2,1.9.6,2.5,4.5,7,3.9,11.1,4.5,3.2.4,5.6,1.7,6.7,5,1.4,4.3,4.1,4.7,7.8,2.5,2.8-1.6,5.9-2.3,9-2.2,2.6,0,4.8.4,4.6,4.1-.2,3.5,3,4,4.6,2.6,4.6-3.9,7.6-.9,11,1.6"/>
      <path class="st4" d="M298.4,330.1c12,10.2,26.2,17,39.2,25.6.2,5.7,4.1,8.6,8.7,10.3,2.3.8,4,1.6,4.9,4.1,1.4,3.6,5,5.1,7.7,7.4,1.8,1.4,3.6,2.4,2.4,5.8-1.8,5,3.7,8.6,4.6,13.3.2,1.1,1.8,0,2.2-1,.8-2.1,2.6-2.1,4.3-2.4,3.6,10,3.8,20.1-4.1,27.9-4.8,4.7-7.6,9.6-9.5,15.7-1.6,5.3-3.9,7-8.1,7.7,4.3-5.6,7.5-11.8,5.3-18.9-1.1-3.5-.9-6.2.2-9.5,2.4-7.4,2.4-15-.3-22.5-3.8,8-7.5,15.5-17.5,19.2,1.2-1.6,1.7-2.3,2.2-2.9,8.8-12.7,4.9-26.9-9.4-33.1-2.2-1-2.3-2.6-1.6-3.5,3.3-4.2-.1-5.9-2.6-7.9-2.3-1.9-4.7-3.6-7.2-5.3-14-9.3-27.8-18.8-42.8-26.5,0-.3,0-.7,0-1-.7-3.4-1.1-6.5,3.4-7.8,6.9-2.1,9.7-1.6,12.2,2.7,1.3,2.3,3,3.8,5.9,2.5"/>
      <path class="st0" d="M545.1,36c9.6-.1,19.1.8,28.4,3.3-8.1.4-16.2.2-24.3,2.6-4.7,1.4-10.3-.4-15.6.2-2.1.3-4.1.5-5.9,1.9-1.9,1.5-2.5,3.5-1.6,5.6.8,1.8,2.7,2.1,4.5,1.7,5.8-1.4,12.1-3,17.6-3.4,8.1-.6,15-6.8,23.6-4.3,1.6.5,5.3.4,5-3.5,4.8.5,9.1,2.1,12.4,5.8.5.5,1.4,1.4.2,2.1-.4.2-1.3-.3-2-.5-3.1-3.6-7.1-2.1-10.8-1.7-11.4,1.5-22.3,5.3-34,6.2-16,1.3-32,3.4-47.3,9-2.2.8-4.5,1.8-7.6.5,5.7-3.5,12.2-3.2,17.5-6.5-1.3-1.3-2.6-2-2.3-4.3.7-5.1-.5-5.8-5.9-4.9-1.6.3-3.1.4-4.6-.4,6.2-5,13.8-3.9,21.1-4.2-.5-2.5-3.9-1.1-3.6-3.8,2.6-1.2,5.3-1,7.8-.5,7.5,1.6,15,.5,22.5.8,1.7,0,4,.8,4.9-1.8"/>
      <path class="st0" d="M416.3.9c.6-.2,1.3-.6,1.9-.6,14.5,2.2,29.2,3.8,42.9,9.8-2.9,0-7.7-1-8.3.1-2.8,5.4-8.6,8.5-10.9,14.2-.4,1.1-2,2.5-3,2.6-4.6.2-9.1,2.1-13.7,1,.2-3.1-3.1-7,4.1-7.7,4.7-.4,10.4-2.4,14.3-6.3,1.3-1.3,3.7-2.9,3.2-4.7-.5-1.6-3.1-1.9-5-2.3-8.5-2-17-4-25.4-6.1"/>
      <path class="st4" d="M573.5,39.3c1.1.3,2.2.5,3.3.8.3,3.9-3.3,4-5,3.5-8.6-2.5-15.5,3.7-23.6,4.3-5.5.4-11.8,2-17.6,3.4-1.8.4-3.8.2-4.5-1.7-.8-2.1-.2-4.1,1.6-5.6,1.7-1.4,3.7-1.7,5.9-1.9,5.2-.6,10.9,1.1,15.6-.2,8.1-2.3,16.2-2.2,24.3-2.6"/>
      <path class="st0" d="M337.6,355.7c5.4,3,10.1,6.8,14.9,10.6,9.1,7.1,16.8,15.3,19.9,26.9-1.7.3-3.5.3-4.3,2.4-.4,1-2,2.1-2.2,1-.9-4.8-6.4-8.3-4.6-13.3,1.2-3.5-.6-4.4-2.4-5.8-2.8-2.3-6.4-3.8-7.7-7.4-.9-2.5-2.6-3.2-4.9-4.1-4.7-1.7-8.5-4.6-8.7-10.3"/>
      <path class="st2" d="M465.5,83.7c1.5-4.3,3.5-7.5,8.9-4.4,1.3.8,3,0,4.5-.5,9.3-2.6,18.6-5.1,28.1-6.8-4,2.9-8.8,4.9-10.3,10.3-.6-1-1.2-2-1.8-3-3.8,3.1-7.8-1.1-12.2.7-3.2,1.3-5.4,5.4-9.5,4.1-2.6-.8-5.1-.4-7.7-.3"/>
      <path class="st0" d="M384.8,3.3c9.9-3,20.1-4,30.4-2.9,1.1,3.6-1.5,3.4-3.5,3-4.4-.8-8.7-.3-13,.2-4.7.5-9.3,1.2-13.9-.3"/>
      <path class="st0" d="M513.5,35.1c10.5,0,21.1-.9,31.6.9-10.5.1-21.1.4-31.6-.9"/>
      <path class="st0" d="M336.5,36.2c2.4-4.6,7-6.4,11.3-8.5-2.9,3.9-6.8,6.7-11.3,8.5"/>
      <path class="st0" d="M303,84.5c.5-.4,1.1-.8,1.6-1.2-.3.7-.8,1.2-1.6,1.2"/>
      <path class="st4" d="M323.4,64.6c.3-.4.5-.8.8-1.2-.3.4-.5.8-.8,1.2"/>
      <path class="st3" d="M301.1,170.4c-1-3-.1-4.9,3.3-5.1-.6-1.8-2.2-1.7-3-2.5-2.3-2.1-3.8-4,.8-5.6,2.9-1,6-1.8,8.2-4.3.9,0,1.7,0,2.6,0,.8.8,1.6,1.7,2.3,2.4-1.9.7-5.3-1.1-6,1.5-.8,3.2,3.7,3.9,5.2,6.4-4.8,2.3-7.9,6.9-13.4,7.1"/>
      <path class="st3" d="M286.9,190.7c.2-3.6,2.1-5.8,5.3-7.4,3-1.5,5.9-3.5,7.9-6.4,3.4.8,4.6,2.4,1.8,5.3-2.2,2.4-4.5,4.8-6.7,7.2-2.4,2.5-5.2,3.2-8.3,1.3"/>
      <path class="st0" d="M310.4,153c-.2-1.3-.4-2.7,1.1-3.4,1.2.9,4,1.1,1.5,3.5-.9,0-1.7,0-2.6,0"/>
      <path class="st2" d="M246.3,263.5c.6-2.8,1.6-6.2,5.7-6.5,4-.4,9-3.1,10.5,3.8.2,1,.8,1.9,1.2,2.9,2,4.2,6.6,5.2,9.6,1.7,1.9-2.3,3.5-2.3,5.9-1.3,3.6,1.5,7.4,2.1,11.3,1.1,7.4-1.8,9.8-.7,13.9,5.8,3.2,5.1,1.5,8.4-4.4,8.9-7.1.5-14.1,4.8-21.6.6-1.5-.8-4.4-.3-6.6-.6-1.7-.3-3.1-1.1-3.6-2.7-1.7-5.4-5.8-4.2-9.5-3.3-8.3,2-12.5-1.1-12.4-10.3"/>
      <path class="st5" d="M325.7,138.5c-2.4,1.1-4.7,2.6-7.1,0,2.4-1.2,4.7-2.9,7.1,0"/>
      <polyline class="st5" points="345.1 141.2 345.1 141.2 345.3 141 345.1 141.2"/>
      <path class="st0" d="M399.4,54.1c-.6,2.1-1.7,4-3.9,4.5-7.4,1.5-13.7,5.8-21,7.9-4.9,1.4-10.2,4.3-14.7,8-3.6,3-7.5,6.8-13.2,6,2-3.5,6.7-4,8.7-7.1,4.9-7.6,10.9-12.7,20.5-12.5,1.4,0,2.2-1,3.2-1.6,6.3-3.8,13.3-4.9,20.4-5.2"/>
      <path class="st0" d="M414.7,109.1c4.1-4.1,8.4-7.6,14.4-8.7,3.7-.7,9-1.1,10.6-3.6,2.9-4.5,7-4.4,10.9-5.6,0,5.8-5.8,5-8.6,7.6-7.8,7.3-17.9,7.7-27.3,10.3"/>
      <path class="st0" d="M490.2,46.1c-.4,2.6-1.9,3.7-4.4,2.7-1.9-.8-3,0-2.6,1.7,1.1,5.1-2.3,3.4-4.2,2.5-4.7-2.2-9.6-4-14.6-5.2-1.1-.3-1.8-1-2.1-2.1,4.8,1.3,9.9,0,14.7,2.4,1.9,1,4.1.9,5.8-1.7,1.9-2.8,4.8-5.1,7.5-.3"/>
      <path class="st0" d="M458.5,46c-5.8.4-11.7,1.4-17.4-.7.3-1.2,1.2-1.7,2.3-1.5,5.1.6,10.4-.5,15.1,2.3"/>
      <path class="st0" d="M430.1,46.6c-1.1,2.2-3.3,1.2-5,1.7.6-3.7,3.4-.9,5-1.7"/>
      <path class="st0" d="M413.6,55.5c-.3,1.1-1.3,1.4-2.2,1.6h0c.1-.9.2-1.9.3-2.8,1.3-.7,2.2-.7,1.9,1.2"/>
      <path class="st0" d="M436.4,45.3c-.9.9-2,.6-3.1.4,1-.2,1.7-3,3.1-.4"/>
      <path class="st0" d="M404.2,54.4c-.8.9-1.4.8-1.9-.3.8-.7,1.4-.8,1.9.3"/>
      <polyline class="st0" points="312.4 98.1 312.5 98.1 312.3 98.3 312.4 98.1"/>
      <polyline class="st0" points="411.4 57.1 411.4 57.1 411.4 57.1"/>
      <path class="st4" d="M298,136.3c4-2.2,2.6-3.9-.9-5.3,3-.6,5.1,0,6.2,2.6.5,1.1.7,2.4-.4,3.3-1.6,1.4-3.2.8-4.9-.6"/>
      <path class="st2" d="M396.7,118.4c1.4-3.8,3.9-4.9,7.6-3.2-2.4,1.4-5.5,1.2-7.6,3.2"/>
      <path class="st1" d="M493.8,93.5c-.4.3-.7.7-1.1,1-.3-.5-1.3-.8-.6-1.5.5-.5,1.2-.2,1.7.5"/>
      <path class="st0" d="M368.8,36.4c.1,2.3,3.1,2.3,4,4.7-5.7-.4-9.5,3.9-14.6,4.2-.6-4,4.6-3.1,5.3-6.3.6-2.9,2.9-3.1,5.4-2.6"/>
      <path class="st0" d="M388.8,32.9c-4.3,2.6-9.3,1.7-13.8,3.2,3.8-4.8,9.1-2.6,13.8-3.2"/>
      <path class="st0" d="M409,26.8v.2c-.1,0-.3-.2-.3-.2s.3,0,.3,0h0Z"/>
    </g>
  </g>
</svg>