<?xml version="1.0" encoding="UTF-8"?>
<svg id="Capa_1" xmlns="http://www.w3.org/2000/svg" version="1.1" viewBox="0 0 434.1 171.2">
  <!-- Generator: Adobe Illustrator 29.3.1, SVG Export Plug-In . SVG Version: 2.1.0 Build 151)  -->
  <defs>
    <style>
      .st0 {
        fill: #206c60;
      }

      .st1 {
        fill: #ed7219;
      }
    </style>
  </defs>
  <g id="Capa_11" data-name="Capa_1">
    <g>
      <path class="st0" d="M55,4v18.2h-17.3v59.1c2.8,3.4-3.2,5.4,0,8.6v7.5c.8,3.3.8,5.3-1.2,7.3,0,0,2,0,1.2.9v26.2h-18.4V53.9c1.2-1.1,1.2-3.1,0-5.8v-25.9H2V4h53Z"/>
      <path class="st0" d="M114.1,80.7c0,17.9-8.8,26.9-26.5,26.9s-26.4-9-26.4-26.9v-11.2c0-.2,0-.5,0-.8,3.2-2,1.2-2,.2-4.2,0-.3,0-.6-.3-1V3.8h18.4v30c0,.3,0,.7-.2,1-.9,1.9-.9,3.9.2,5.3v40.6c0,5.8,2.7,8.7,8,8.7s8.1-2.9,8.1-8.7v-29.9c2.8-2-1.2-4,0-6.4V3.8h18.4s0,76.9,0,76.9Z"/>
      <path class="st0" d="M174.6,106.8c0,17.9-8.8,26.9-26.5,26.9s-26.4-9-26.4-26.9V28.6c0-17.9,8.8-26.8,26.4-26.8s26.5,8.9,26.5,26.8v31.3h-18.4v-13.5c-5.6-1.6,8.4-1.6.4-4.3-.3-.4-.4-.7-.4-1.1v-12.5c0-5.7-2.7-8.6-8-8.7h-.1c-5.3,0-7.9,2.9-7.9,8.7v44.5c-1.5,1.6-1.5,3.6,0,5.3v28.3c0,5.8,2.7,8.7,8,8.7s8.1-2.9,8.1-8.7v-20.8h18.4v21Z"/>
      <path class="st0" d="M234.5,106.8c0,17.9-8.8,26.9-26.5,26.9s-26.4-9-26.4-26.9V3.8h18.4v16.9c-3.4,2,.6,4,0,5.3v76.4c0,.3,0,.5-.1.8,2.7,1.5-7.3,1.5,0,3.5v1.4c.4,4.9,3.1,7.3,8,7.3s8.1-2.9,8.1-8.7v-30c.3-1.3.4-2.7.3-4-.3-.4-.3-.8-.3-1.1V3.8h18.4v103h.1Z"/>
      <path class="st0" d="M275.5,69.4l-16.3-27.7v41.8c-.6,1.4-.6,3.4,0,5.4v42.8h-17.8V3.9h14.5s2,3.4,4.8,8c.2.3.3.5.3.8-2.5,2.1,3.5,2.1,2.1,3.3.2.3.3.6.5.9,5.5,9.2,11.8,20,11.8,20l19.5-33h14.5v127.8h-17.8v-5c-5.2-1.9,8.8-1.9.2-4.2-.2-.2-.2-.5-.2-.7v-37.3c.5-1.1.7-2.5.4-4.2-.3-.4-.4-.8-.4-1.2v-37.4l-16.3,27.7h.2Z"/>
      <path class="st0" d="M352.4,74.7v-.9c4.2-3-1.8-3,0-4v-18.8c-.7-4.2-3.3-6.3-7.8-6.3h-.1c-3.7,0-6.2,1.5-7.3,4.3-.2.4-.3.8-.4,1.3-4,2.4,2,2.4-.5,3.6.2.3.2.7.2,1.2v4.8h-18.4v-6.4c0-17.9,8.8-26.8,26.5-26.8s26.4,8.9,26.4,26.8v78.1h-16.5l-1.3-7.9c-3.7,6.6-9.2,9.9-16.5,10-6,0-10.5-2.3-13.6-6.8s-4.6-10.1-4.6-16.6c0-21.5,11.4-33.4,34.1-35.6h-.2ZM352.4,92.2c-8.1,2-13.1,5.7-14.9,11.1-.1.4-.2.8-.4,1.2-.3,1.5-.5,2.8-.5,3.8s.1.7.1,1c.1,4.9,1.4,7.3,3.7,7.3,7.9-.6,11.9-6.5,11.9-17.7v-6.8h0ZM370.8.3l-50.9,6.9v12.3h50.9V.3Z"/>
      <path class="st0" d="M379.1,3.8h15.2s1.2,2.2,3.1,5.5l.4.7c-3.1,4.8,6.9.8,2.5,4.5.2.3.4.6.6.8,5.8,10.3,13.4,23.6,13.4,23.6V3.8h17.8v85.3c-.9,1.1-.9,2.2,0,3.1v39.4h-17.8v-59.4s-.4-.7-1.1-2-.4-.7-.5-1c6-4.4-6-.4-2.3-4l-.4-.8c-5.2-9.3-13-23.4-13-23.4v78.1c0,.3,0,.5-.1.8-10.1,3,5.9,3,.1,4.2v7.6h-17.8V3.8h-.1Z"/>
      <path class="st0" d="M114.1,121.2l-10.3-10.3-8.1,8.1-8.1-8.1-8.1,8.1-.8-.8-.9-.9c-1.3-.4-3.3-2.4-3.5-3.5l-.6-.6-2.3-2.3-2.1,2.1c-.2.2-.4.4-.5.6,1.7,3.3-4.3,1.3-4.4,4.4l-.6.6c-1.5,1.5-2.7,2.7-2.7,2.7l10.3,10.3,8.1-8.1,8.1,8.1,8.1-8.1,8.1,8.1,3.3-3.3c.2-.2.4-.4.6-.7.9-2.8,2.9-4.8,4.9-4.8l.8-.8.8-.8h0Z"/>
    </g>
  </g>
  <g id="Capa_11">
    <g>
      <polygon class="st1" points="0 148.8 8.8 148.8 8.8 171.2 19.1 171.2 19.1 148.8 27.9 148.8 27.9 140.9 0 140.9 0 148.8"/>
      <rect class="st1" x="46.9" y="140.9" width="10.2" height="30.3"/>
      <polygon class="st1" points="88.5 159.5 101.2 159.5 101.2 152.2 88.5 152.2 88.5 148.6 103 148.6 103 140.9 78.4 140.9 78.4 171.2 103.5 171.2 103.5 163.5 88.5 163.5 88.5 159.5"/>
      <polygon class="st1" points="143.8 154.7 132.3 140.9 123.9 140.9 123.9 171.2 133.9 171.2 133.9 157.4 145.3 171.2 153.7 171.2 153.7 140.9 143.8 140.9 143.8 154.7"/>
      <polygon class="st1" points="185 159.5 197.9 159.5 197.9 152.2 185 152.2 185 148.6 199.6 148.6 199.6 140.9 175 140.9 175 171.2 200.1 171.2 200.1 163.5 185 163.5 185 159.5"/>
      <polygon class="st1" points="247.6 148.8 256.4 148.8 256.4 171.2 266.6 171.2 266.6 148.8 275.5 148.8 275.5 140.9 247.6 140.9 247.6 148.8"/>
      <path class="st1" d="M322.1,144.7c-1.5-1.4-3.4-2.5-5.4-3.3-2.1-.8-4.4-1.1-6.8-1.1s-4.7.4-6.8,1.1c-2.1.8-3.9,1.9-5.4,3.3s-2.7,3.1-3.6,5-1.3,4-1.3,6.4.4,4.4,1.3,6.3c.9,1.9,2.1,3.6,3.6,5.1s3.4,2.5,5.4,3.3,4.4,1.1,6.8,1.1,4.7-.4,6.8-1.1,3.9-1.9,5.4-3.3c1.5-1.4,2.7-3.1,3.6-5.1s1.3-4,1.3-6.3-.4-4.4-1.3-6.4c-.9-1.9-2.1-3.6-3.6-5h0ZM316.2,159.2c-.4.9-.9,1.7-1.4,2.4s-1.4,1.1-2.1,1.5c-.8.4-1.7.5-2.6.5s-1.9-.1-2.6-.5-1.6-.9-2.1-1.5-1.1-1.4-1.4-2.4-.5-2-.5-3.1.1-2.2.5-3.1.9-1.7,1.4-2.4c.6-.6,1.4-1.1,2.1-1.5s1.7-.5,2.6-.5,1.9.1,2.6.5,1.6.9,2.1,1.5c.6.6,1.1,1.4,1.4,2.4s.5,2,.5,3.1-.1,2.2-.5,3.1Z"/>
      <path class="st1" d="M370.9,142.8c-2.6-1.2-5.5-1.9-8.9-1.9h-14.9v30.3h14.9c3.4,0,6.4-.6,8.9-1.9,2.6-1.2,4.6-3,6-5.2s2.1-4.9,2.1-8.1-.7-5.8-2.1-8.1c-1.4-2.2-3.4-4-6-5.2ZM367.9,160c-.6,1.1-1.4,1.9-2.5,2.4-1.1.6-2.4.8-3.8.8h-4.3v-14.3h4.3c1.4,0,2.7.3,3.8.8,1.1.6,1.9,1.4,2.5,2.4.6,1.1.9,2.4.9,3.9s-.3,2.9-.9,3.9h0Z"/>
      <path class="st1" d="M430.8,149.7c-.9-1.9-2.1-3.6-3.6-5s-3.4-2.5-5.4-3.3c-2.1-.8-4.4-1.1-6.8-1.1s-4.7.4-6.8,1.1c-2.1.8-3.9,1.9-5.4,3.3s-2.7,3.1-3.6,5-1.3,4-1.3,6.4.4,4.4,1.3,6.3c.9,1.9,2.1,3.6,3.6,5.1s3.4,2.5,5.4,3.3c2.1.8,4.4,1.1,6.8,1.1s4.7-.4,6.8-1.1,3.9-1.9,5.4-3.3c1.5-1.4,2.7-3.1,3.6-5.1.9-1.9,1.3-4,1.3-6.3s-.4-4.4-1.3-6.4h0ZM421.3,159.2c-.4.9-.9,1.7-1.4,2.4s-1.4,1.1-2.1,1.5c-.8.4-1.7.5-2.6.5s-1.9-.1-2.6-.5-1.6-.9-2.1-1.5-1.1-1.4-1.4-2.4-.5-2-.5-3.1.1-2.2.5-3.1.9-1.7,1.4-2.4c.6-.6,1.4-1.1,2.1-1.5.8-.4,1.7-.5,2.6-.5s1.9.1,2.6.5c.8.4,1.6.9,2.1,1.5.6.6,1.1,1.4,1.4,2.4s.5,2,.5,3.1-.1,2.2-.5,3.1Z"/>
    </g>
  </g>
</svg>