<?xml version="1.0" encoding="UTF-8"?>
<svg xmlns="http://www.w3.org/2000/svg" version="1.1" viewBox="0 0 427.85 185.45">
  <defs>
    <style>
      .cls-1 {
        fill: #206c60;
      }
    </style>
  </defs>
  <!-- Generator: Adobe Illustrator 28.6.0, SVG Export Plug-In . SVG Version: 1.2.0 Build 709)  -->
  <g>
    <g id="Capa_1">
      <g>
        <g>
          <polygon class="cls-1" points="154.46 9.63 145.75 30.39 137.28 9.63 124.38 9.63 139.42 45.2 151.21 45.2 166.25 9.63 154.46 9.63"/>
          <path class="cls-1" d="M178.86,9.63l-15.55,35.58h12.2l2.38-6.2h13.53l2.38,6.2h12.4l-15.55-35.58h-11.79ZM181.21,30.36l3.44-8.96,3.44,8.96h-6.89Z"/>
          <polygon class="cls-1" points="221.14 9.63 209.15 9.63 209.15 45.2 237.2 45.2 237.2 35.9 221.14 35.9 221.14 9.63"/>
          <polygon class="cls-1" points="253.52 9.63 241.52 9.63 241.52 45.2 269.58 45.2 269.58 35.9 253.52 35.9 253.52 9.63"/>
          <polygon class="cls-1" points="285.69 36.15 285.69 31.48 300.73 31.48 300.73 22.84 285.69 22.84 285.69 18.67 302.81 18.67 302.81 9.63 273.9 9.63 273.9 45.2 303.48 45.2 303.48 36.15 285.69 36.15"/>
        </g>
        <path class="cls-1" d="M85.9,113.8v-16.22c0-4.5-2.06-6.75-6.19-6.75h-.1c-4.16.03-6.24,2.28-6.24,6.75v4.7h-14.36v-4.7c0-13.94,6.89-20.91,20.66-20.91s20.61,6.97,20.61,20.91v60.58h-12.84l-1.01-6.14c-2.91,5.14-7.21,7.73-12.89,7.77-4.67,0-8.2-1.76-10.58-5.28-2.39-3.52-3.58-7.83-3.58-12.94,0-16.78,8.85-26.04,26.54-27.76ZM85.9,127.46c-8.12,2.03-12.18,6.23-12.18,12.59,0,4.33.96,6.5,2.89,6.5,6.19-.47,9.29-5.08,9.29-13.81v-5.28Z"/>
        <path class="cls-1" d="M385.37,118.66c0,13.94-6.89,20.93-20.66,20.96-13.74,0-20.61-6.99-20.61-20.96v-60.08h14.36v60.08c0,4.5,2.08,6.75,6.24,6.75s6.29-2.25,6.29-6.75v-60.08h14.36v60.08Z"/>
        <g>
          <path class="cls-1" d="M285.36,86.62c.16-.12.22-1.65,0-1.17.02-.5-.01-.62.04-1.09-.09-.03-.09-.24-.24-.16.25.55,0,1.64.21,2.43Z"/>
          <path class="cls-1" d="M286.26,89.19c.09.91.16,1.03.16,2.09-.05,0-.06-.07-.1-.08.07.5.26.43.39.07-.06-.49.05-2.44-.45-2.09Z"/>
          <path class="cls-1" d="M286.59,95.14c.04-.22.07-.39-.05-.5.07.25-.17.52.05.5Z"/>
          <path class="cls-1" d="M287.85,88.31c.03.06.19.12.29,0-.14-.29-.07-1.15-.3-1.5-.03.23.07.66-.04.76-.08,0-.03-.23-.1-.25-.01.06,0,.17-.05.17-.03-.31.19-.41.09-.59-.34,1.17.02,2.48-.02,3.52.33,0-.07-.81.14-1.09.13.21-.14.8.2.75-.04-.52-.03-.24.04-.5-.16-.3-.1-.44-.11-1.09-.14-.09-.18.41-.24.17.09-.15-.07-.26.09-.34Z"/>
          <path class="cls-1" d="M284.59,74.64c.14.01-.06-.55.14-.42-.02.29.02.47.05.67-.35-.26-.17.92-.18,1.18.14-.02.09-.35.09-.59.37.85-.12,1.98.02,3.02-.11-.02-.05.24-.14.25.27.79-.04,1.6.12,2.35-.18,1.26-.1,1.76.02,3.1.04-.07.11-.09.19-.09-.21-.17.03-.31.09-.51-.03-.07-.05-.13-.05-.25-.1.13-.08.47-.24.51.01-.25.15-.3.09-.67.19-.1.26.12.24-.34.04.19.16.22.15.5.33,0,.11-1.91.09-1.01-.13-.22.07-1.02-.15-.84-.08-.59.17-.72.14-1.18-.03-.36-.24-.5-.3-.83,0,.01.09-.02.1,0-.03-.21-.29-.69.04-.76-.1.21-.03.62.15.58-.2-.43.12-1.73-.07-2.6,0-.1.09-.07.14-.09-.17-1,.14-2.24-.02-3.02.05,0,.1,0,.15,0-.18-.26-.12-.47-.05-.84.06.39.17.14.15.67.06-.48-.03-.99.18-1.35-.07,0-.14-.01-.14.09-.07-.12.07-.6.14-.76-.05-.09-.1-.6-.2-.33.01-.6,0-1.27-.02-1.93.19,0,.15.36.34.16-.03.67-.19,1.19.11,1.67,0,.1-.09.07-.14.09.01.09.1.05.1.17.11-.2.27-1.11-.01-1.26.07-.22.06-.56.14-.76.23.03.37.02.39.58-.09,0-.04-.28-.15-.25-.13-.06-.1.17-.19.17.03.17.06.79.2.5.09.24-.1.17-.19.34.12.15.18.2.05.42.05.11.13.16.2.25-.06.59-.02,1.4.02,2.35-.04-.02-.05-.08-.1-.08.1.34.11.54.11,1.17.07,0,.14,0,.14-.09,0,.52.12,1.52.21,2.09-.27-.1.03.6-.24.85.11.12.08.48.25.5-.02.37-.1-.16-.24.09.02.33.28.7.2,1,0,.02-.15.05-.14.09.01.21.15.33.15.58,0-.03-.1-.07-.1-.08.01.12.1.36.1.5,0,.23-.2.49-.19.76,0,.25.22.42.25.66.05.43-.23.83-.04,1.18,0,.25-.12.29-.14.51.14.81.13,1.57.26,2.51.12.08.46.51.44.07,0,.5.12,1.51.35.91.06-.16-.04-.42-.05-.33.09-.58.13-1.38-.11-2.01.13-1.91-.1-3.7.15-5.46.5.06.34-1.37.18-1.85.11-1.46-.06-2.92-.09-4.53.06-.1.08-.03.15,0,0-.18-.04-.27-.15-.25.06-.12.07-.36.08-.6-.54-2.86-1.48-5.31-2.84-7.34-.04.7-.08,1.42-.1,2.05-.01.34.23.94-.14,1.01.01.32-.03.74.1.84-.03.21-.19.18-.14.51,0,.07.05.08.05.17,0,.16.18-.14.24.08.02.17-.35.29-.09.34-.26,1.01-.19,2.17-.16,3.7-.26.29-.16,1.13-.13,1.51Z"/>
          <path class="cls-1" d="M284.14,115.77c0-.1.08-.09.14-.09,0-.27-.07-.45-.2-.5-.07.12-.09.59.05.59Z"/>
          <path class="cls-1" d="M284.14,103.6c.06.21-.02.65.15.67-.1-.26.07-.56-.15-.67Z"/>
          <path class="cls-1" d="M287.91,90.16c-.03.17.06.55-.04.59-.09.02-.11-.09-.19-.08.01.15-.13.42,0,.5-.02-.18.14-.47.19-.26-.01.94-.14,2.42.08,3.35,0-.1.08-.09.14-.09-.05-1.73.3-2.89-.18-4.02Z"/>
          <path class="cls-1" d="M286.43,75.26c.07-.11.08-.5-.05-.5.03.15-.05.49.05.5Z"/>
          <path class="cls-1" d="M285.09,131.27c-.12,0-.15-.16-.19.09.04.02.1,0,.1.08-.11.03,0,.31.05.33-.04-.26.08-.25.04-.51Z"/>
          <path class="cls-1" d="M285.22,93.58c-.09-.02-.11.1-.19.09.05.15.02.42.1.5-.05-.33.14-.26.09-.59Z"/>
          <path class="cls-1" d="M284.99,130.93c0-.1.05-.05.1,0,.02-.26-.06-.34-.15-.42.03.12-.05.43.05.42Z"/>
          <path class="cls-1" d="M285.52,142.08c-.08-.36.09-.65-.1-.84.11.16-.14.76.1.84Z"/>
          <path class="cls-1" d="M285.51,141.16c0-.35-.13-.79,0-1.09-.28.21-.06.92,0,1.09Z"/>
          <path class="cls-1" d="M285.56,135.7c.13,1,.07,1.87.17,2.51.2-.95.06-1.66.08-2.69-.2.13-.26-.16-.44.01.02.27-.06.73.1.75.14-.18-.12-.52.09-.59Z"/>
          <path class="cls-1" d="M285.56,98.53c.1-.16.24-.25.19-.68-.13.03-.21-.03-.2-.25.06.07.13.11.24.08-.08-.31-.13-.62-.06-1.01-.21-.12,0,.43-.14.42-.08-.64.05-.59.09-1.18-.09-.25-.15.23-.19,0,.19-.17,0-.48.19-.59-.03-.89-.06-.95-.11-1.76.07-.02.18.03.19-.09-.11-.03,0-.46-.15-.42-.03.15-.02.35-.09.42.05-.97-.16-1.44-.49-.74.2-.09.24-.07.34.16-.14,0-.2.5-.04.5.07-.05,0-.32.09-.34-.05,1.04,0,1.94-.12,2.94.26.56-.1,2.07.26,2.51Z"/>
          <path class="cls-1" d="M286.47,91.71c-.09.15.02.33.15.33-.02-.16-.02-.36-.15-.33Z"/>
          <path class="cls-1" d="M283.88,124.84c.04-.32-.16-.39-.24-.24.01.38.04.33,0,.67.27-.05-.05-.67.24-.43Z"/>
          <path class="cls-1" d="M283.62,117.63c.1-.54-.02-1.13.04-1.6-.08,0-.16,0-.24,0,.14.33.04.49,0,.92.22.14.03.47.2.67Z"/>
          <path class="cls-1" d="M282.87,114.21c.02-.24.24-.66.04-.76,0,.23.01.43-.09.25.03.15-.05.49.05.5Z"/>
          <path class="cls-1" d="M284.2,153.61c.06.28.13.64.15.75,0-.11.08-.08.1-.17-.09-.08-.11-.26-.1-.5-.07,0-.11-.04-.15-.08Z"/>
          <path class="cls-1" d="M283.51,115.95c.09-.33.01-.89.08-1.6-.38-.11-.21-.7-.35-.91-.2.63-.03.94.2,1.25-.17.31-.19.99.06,1.26Z"/>
          <path class="cls-1" d="M286.81,157.99c-.07-.17-.21-.19-.25-.41.16.02.25-.13.39-.35-.11-.25.02-.94-.11-1.17-.13.11.07.78-.19.68.17-.38.02-.56-.1-.84.26.11.21-1.31-.11-1.42-.03-.3.26-.47.04-.59.17-.13.17-.55.19-.93-.08-.03-.09.07-.1.17-.17-.16.34-.88,0-1.17.06.01.09-.02.1-.09-.05-.11-.08.04-.15-.16.04-.25.07-.1.19-.09-.14-.2-.24-.48-.35-.75.07,0,.2-.08.19-.42-.21.44-.27-.42-.05-.42-.02-.1-.15-.39-.2-.16,0-.1.27-.6,0-.84.23-.53.05-1.48-.21-1.59-.09-.03,0-.43.04-.5.01-.22-.19-.06-.15-.33-.1.49-.07,1.09-.03,1.76.17-.02.05-.52.24-.51-.07.46.23.28.15.75-.06-.01-.04-.15-.05-.25-.27.23-.38.75-.43,1.35-.15-.33,0-.89.09-1.09-.23-.36-.02-1.5-.5-1.41.19-.5-.12-.77-.25-1.17.21-.37.17.43.29.5.23-.11-.18-.49,0-.75-.08-.28-.15.27-.24,0,.02-.76.23-1.81.03-2.52-.07.03-.04.21-.05.34-.09-.23-.06-.19-.2-.25.06-.03.05-.41,0-.17-.09-.2.21-.64.09-.93.04.04.08.09.15.08,0-.11,0-.22,0-.33-.04.04-.09.08-.1.17.1-1.31-.05-2.96.16-4.2,0-.2-.13.03-.1.17-.11-.09-.04-.55.04-.59-.22-.66,0-.98-.16-1.76.33-.09.01-1.07.23-1.01.04-.4-.22.05-.2-.16,0-.25-.03-1.12-.06-1.42-.06,0-.13,0-.19,0-.01-.33.07.02.14-.17-.18-.2.15-.65-.15-.84.03-.17.07-.18.14-.09-.04-.14-.15-.57-.25-.33-.12.04.02-.38-.15-.25.03-.15.09-.01.14,0-.12-.62,0-1.39-.11-2.01.07.09.12.09.14-.09-.12,0-.2-.49-.29-.24-.07-.12-.11-.41-.05-.5-.04-.08-.12-.05-.29-.08.04.42.09,1.06.3.92,0,.16-.16.06-.14.26.1.38.26.66.3,1.5-.11-.03,0-.46-.15-.42-.02.17.04.95.2,1.09-.06.05-.13.05-.19.26.17.4-.13,1.02.2,1.34-.02.16-.1.21-.09.42.02.21.14-.08.09-.25.24.54-.29,1.21-.08,1.6-.03.25-.1-.08-.19,0,.1.38.07.48.1.92.11-.35.06-.49.14-.93.16.37-.1.96.06,1.34-.06-.04-.1-.11-.1-.25-.08.52.12.33-.19.68-.04.27.08.26.1.42.14-.09-.02-.36,0-.5.07.12.15.25.24.33-.16.17-.25.46-.28.85.02.11.12.07.19.08.02.18-.07.16-.14.17.25,1.13.1,2.51.18,3.86.05.85.17,1.83.12,2.43-.04.46.24,1.46.01,1.68-.06,1.57.05,2.82.03,4.11-.06-.03-.08-.15-.15-.16-.11-.01-.02.3-.05.42.16.1.04-.27.19-.17.1.63,0,1.89.07,2.6-.09,0-.04-.28-.15-.25-.04.39.32.32.15.67-.09-.02-.11-.14-.1-.33-.18.3.1.85,0,1.01.06.01.09-.02.1-.09-.02.47-.16,1.86.11,2.01,0,.17-.13.11-.09.34,0,.15.09.17.18.17.03-.03.07-.04.11,0-.04,0-.07,0-.11,0-.14.15-.11.94-.08,1.47h1.85c0-.15-.03-.31-.1-.42-.06.01-.04.15-.05.25Z"/>
          <path class="cls-1" d="M284.77,145.71c-.09.11.06.37-.04.59.18.13.22-.64.04-.59Z"/>
          <path class="cls-1" d="M284.85,158.16h.13c-.03-.28-.02-.63-.16-.7.01.23.02.47.04.7Z"/>
          <path class="cls-1" d="M283.58,123.92c.2.07.1-.38.19-.51-.15.06-.14-.14-.29-.08-.07.42.13.86.11,1.42,0-.3.17-.72,0-.84Z"/>
          <path class="cls-1" d="M284.06,105.95c-.13-.02-.12.18-.14.34.05,0,.1,0,.15,0,0-.11,0-.22,0-.34Z"/>
          <path class="cls-1" d="M282.99,111.01c-.03.25-.1-.08-.19,0,0,.1.01.24-.05.25,0-.13.01-.31-.05-.34-.08.3.03.21.05.5.09-.08.32-.35.24-.43Z"/>
          <path class="cls-1" d="M283.98,126.43c0-.21-.03-.35-.1-.42-.07.12-.04.44.1.42Z"/>
          <path class="cls-1" d="M283.44,113.35c0,.14,0,.28,0,.42.05,0,.1,0,.15,0-.05-.14,0-.45-.15-.42Z"/>
          <path class="cls-1" d="M283.29,105.89c0-.1.08-.09.14-.09,0-.13.02-.31-.05-.33.03.27-.32.05-.09.34-.03,0-.05.07,0,.08Z"/>
          <path class="cls-1" d="M283.22,109.66c-.06-.02-.03-.09,0-.17-.1-.02-.1.12-.14.17-.01-.13-.08,0-.1.09.07,0,.11.04.15.08,0-.11.08-.08.1-.17Z"/>
          <path class="cls-1" d="M283.27,109.33c-.14-.15-.15-.13-.34-.08,0,.35.24.2.34.08Z"/>
          <path class="cls-1" d="M286.17,96.92c.01-.35.18-.52-.05-.67.03.2-.06.61.05.67Z"/>
          <path class="cls-1" d="M284.53,128.34c.11.25-.07.52.1.59-.04-.19.08-.66-.1-.59Z"/>
          <path class="cls-1" d="M284.56,107.78c-.05-.86.04-2.52-.26-2.76.11.59.03,2.13.26,2.76Z"/>
          <path class="cls-1" d="M284.43,127.09c-.06.12-.09.67.05.67-.06-.35.04-.46-.05-.67Z"/>
          <path class="cls-1" d="M284.23,115.01c.08-.2.1-.49.14-.76-.09-.02-.11.1-.19.09.06.34-.12.62.05.67Z"/>
          <path class="cls-1" d="M284.96,84.53c.05-.13.17-.36,0-.42-.03.05-.11.4,0,.42Z"/>
          <path class="cls-1" d="M284.58,92.34c.29-.34.11-1.47.23-2.1.21.18-.11,1.14.06,1.51.02-.48.15-.03.34-.09.1-.24.16-.83,0-1.09-.02.16.07.5-.09.42.03-.27-.03-.58-.11-1,.12,0,.15.16.19-.09-.14-.11.08-.29.04-.5-.09-.05-.2.25-.24,0,.13-.15.19-.4.24-.68-.28-1.23-.17-2.7-.27-3.52,0,.1-.08.09-.14.09-.02-.25.05-.65-.1-.67-.04.16-.08.31-.09.51,0,.11.09.07.1.17-.19,1.5-.14,3.14,0,4.45.01,0,.03,0,.04,0,0,.14,0,.28,0,.42-.02-.13-.03-.28-.04-.42-.05,0-.1,0-.15,0,.08.96-.2,1.71.02,2.6Z"/>
          <path class="cls-1" d="M286.07,71.74c-.08,0,.09-.5-.15-.42-.03.23.07.66.15.42Z"/>
          <path class="cls-1" d="M284.07,106.87s.1,0,.15,0c0-.22.02-.49-.1-.5-.06.1-.05.3-.04.5Z"/>
          <path class="cls-1" d="M284.32,155.62c.07.04.12.12.2.16-.1-.36-.22-.69-.35-1,.12,0,.17-.95-.1-1,.2-.25.26-1.37.04-1.6.33-.24.07-.85.18-1.26-.03-.19-.08.1-.15-.08.08-.3.11-.54-.05-.67.17-.13-.04-.55.24-.59-.09-.09-.13-.24.05-.25-.17-.17.03-.54-.15-.58.31-.35-.03-1.21.09-1.51-.07-.18-.24-.19-.25-.5.23-.61.08-.79-.06-1.59.07-.27.02.34.15.25-.11-1.89.05-4.07-.58-5.86-.2.06-.02.35-.19.34-.09-.37-.04-.45-.15-.75.11-.05.07.16.15.16.06-.06.09-.18.09-.34-.03-.19-.07.1-.15-.08.09-.16.03-.34-.05-.42-.01-.32.04-.03.14-.09,0-.24-.12-.24-.24-.25-.02-.18.07-.16.14-.17-.24-1.04-.18-2.41-.22-3.52,0-.21.03-.42.05-.34-.11-.54-.13-1.5.18-1.6-.3-.15.07-.55-.1-1,.33.12.27-.87.09-1.18-.17.2-.16.71-.09,1.09-.33-.51.06-1.67-.36-2.01-.06-.83.23-1.33.03-2.1.12.06.22.12.29-.09-.01-.41-.14-.08-.29-.24.1-.85-.33-1.84-.12-2.93-.05-.28-.11,0-.19-.16-.08-.93.05-1.24-.06-1.68.12-.07.18-.25.14-.59.06.01.04.15.05.25.13.05.09-.18.14-.26-.04-.09-.14.06-.1-.33.08.03.04.26.19.16.09.37-.07.66.2.67-.38.41.24.83.06,1.51.36-.1-.15-.79.14-.93-.03-.3-.19-.38-.1-.67.09.01.03.28.1.33.12-.14.02-.59,0-.75-.05,0-.04.1-.05.17-.04-.12-.09-.73.04-.5-.04-.16-.06-.34-.15-.42-.01-.23.07-.29.14-.17-.02-.2-.13-.19-.15,0-.12-.24.07-.36.09-.76-.26.53.11-.47,0-.67-.04.05-.08.09-.14.09.02-.16.19-.07.14-.34-.22-.31.01-1.3-.26-2.01.05,0,.1,0,.15,0,.03-.26-.05-.3-.05-.5-.07.05-.12.13-.14.26-.06-.05.03-.32-.05-.5.09.03.09.24.24.16-.05-.33-.06-.52.04-.76-.01-.22-.08.12-.19,0,.12-.32.26-.71-.1-.75.11-.45-.44-.74-.35-1.67.12.25.05.06.14-.09-.06-.13-.14-.2-.2-.33.07-.27.1-.23.04-.59.13-.01.1.14.19,0-.16-.22-.11-.35-.25-.66.12.05.26-.06.09-.42.14-.07.05-.52.24-.51.01-.22-.19-.06-.15-.33.19-.04.17-.1.29.08,0-.21-.01-.4.04-.5-.15-.04-.11.26-.29.18,0-.47.06-1.57.28-1.52-.02-.11-.12-.07-.19-.08-.02-.31.17-.26.29-.34-.05.34.15.25.1.59.24-.52.02-.78.09-1.35-.16.06-.26.22-.24.59-.07-.13-.08-.37-.1-.58.09,0,.1-.11.19-.09.05-.35-.1-.32-.1-.59.09-.01.1.1.19.08-.61-.96.06-1.86-.36-2.93.12.29.22.16.34.49.06-.02.05-.17,0-.17.43.06.22-.91.13-1.43.16.11.17.48.25.75.1-.15.15-.66-.1-.58.07-.27.01-.37,0-.67.08-.24.03.45.15.42.2-.22.09-1.09.09-1.18,0-.22-.02-.42,0-.34-.08-.45.13-.66.14-.93,0-.1-.16-.2-.15-.42.04-.59.12-1.86-.17-2.77.04-.07.13-.05.14-.17.16.12-.1.21-.05.42.25-.08.21-.69.19-1.01-.05.06-.05.19-.14.17.05-.4.35-1.08.04-1.34-.02-.18.07-.16.14-.17-.02-.36-.01-.39-.05-.59-.08-.03-.09.07-.1.17-.22-.34.08-.61-.1-1.09.19.04.12-.35.24-.43-.2-1.07-.25-3.02-.13-4.36-.3-.61.03-1.26-.16-1.93.06-.17.07-.43.24-.43-.09-.17-.11-.25-.05-.5-.01-.22-.08.12-.19,0,.08-.68-.32-.92-.35-1.5.31.08.15.52.35.75.07-.31.18-.75.09-1.09.04.04.08.09.15.08-.2-.31-.13-.7-.06-1.17-.02-.12-.06.03-.15,0,.13-1.24-.1-2.45.07-3.86-.02-.11-.12-.07-.19-.08,0-.5,0-.57.04-.92-.19.41,0-.48.09-.59,0-.16-.17-.05-.2-.16.03-.31.23.08.29-.26-.21-.2-.1-.53-.2-1,.05-.22.06.33.1.42.23.05.12-.46.14-.76,0-.18-.17-.03-.24-.08.02-.32.26-.28.19-.76-.05-.23-.13.12-.19-.08.23-.28.1-1.05.23-1.52.06.01.04.15.05.25.14-.07-.03-.27,0-.42-.04.04-.09.08-.1.17,0-.18.01-.56.09-.93.1-.22.16.26.29,0-.07-.02-.27-.04-.15-.42.11.1.12.36.34.24,0-.1,0-.15.05-.17-.01-.37-.23.11-.2-.25.31.13.22-.41.29-.68.11,0,.02.36.05.5.15,0,.14-.26.14-.51.09-.26,0,.48.1.5.06-.48.07-1.74-.26-2.01.02-.19.11-.46-.05-.5.29-.55-.02-1.44.08-1.76.07.1.08.32.15.42.09-.04.12-.18.24-.17-.05-1.03.19-2.21.05-3.18-3.33-4.82-9.03-7.23-17.1-7.23-13.77,0-20.66,6.97-20.66,20.91v24.36h14.36v-24.36c0-4.47,2.08-6.72,6.24-6.75h.1c4.13,0,6.19,2.25,6.19,6.75v35.88c-17.7,1.73-26.54,10.98-26.54,27.76,0,5.11,1.19,9.42,3.58,12.94,2.39,3.52,5.91,5.28,10.58,5.28,5.68-.03,9.98-2.62,12.89-7.77l1.01,6.14h8.93c-.04-.87-.12-1.65-.1-2.54ZM273.96,132.73c0,8.73-3.1,13.33-9.29,13.81-1.93,0-2.89-2.16-2.89-6.5,0-6.36,4.06-10.56,12.18-12.59v5.28Z"/>
          <path class="cls-1" d="M282.89,122.35c0-.21,0-.41-.1-.42-.02.1-.06.17-.14.17,0,.22.02.48-.04.59.16.08.07-.26.09-.42.1.14.09-.06.19.08Z"/>
          <path class="cls-1" d="M282.7,123.69c.04-.26.14-.36,0-.59-.04.26-.14.37,0,.59Z"/>
          <path class="cls-1" d="M283.32,127.96c.11-.18-.04-.28,0-.59-.21-.09-.2.69,0,.59Z"/>
          <path class="cls-1" d="M288.15,74.22c.04,1.36-.31,2.59-.09,4.02.1-.04.19-.08.27-.11v-.21c0-1.29-.06-2.53-.18-3.7Z"/>
          <path class="cls-1" d="M284.39,128.52c-.09-.48-.08-.64-.25-.92.03.3-.15.73.06.84.03-.48.12-.04.19.08Z"/>
          <path class="cls-1" d="M283.37,128.12c-.28-.05-.33.27-.38.6.21-.06.24-.42.38-.6Z"/>
          <path class="cls-1" d="M285.88,145.43c-.06.41.04.72.06,1.09.01-.29.14-.96-.06-1.09Z"/>
          <path class="cls-1" d="M285.6,133.77c0-.11,0-.22,0-.34-.08,0-.15-.01-.19-.08.03.2.07.39.2.41Z"/>
          <path class="cls-1" d="M285.86,87.61c-.24-.35-.3,1.07-.18,1.68.2-.69-.02-1.26.18-1.68Z"/>
          <path class="cls-1" d="M285.87,89.62c-.09,0-.04-.28-.15-.25-.03.05-.19.26-.05.34.01-.3.18.21.19-.09Z"/>
          <path class="cls-1" d="M285.82,144.17c-.02.12.06.43-.04.42-.03-.12.05-.43-.05-.42-.08.27,0,.5.1.67.03-.29.14-.45,0-.67Z"/>
          <path class="cls-1" d="M285.75,87.03c-.1-.89.17-1.85-.21-2.43.11.98-.01,2.21.12,2.77,0-.15-.05-.42.09-.34Z"/>
          <path class="cls-1" d="M285.32,81.33c0-.1.08-.09.15-.09,0-.15-.01-.26-.05-.33-.14-.1-.21.36-.09.42Z"/>
          <path class="cls-1" d="M285.51,74.95c-.04-.32.22-.56-.05-.59.03.17-.05.55.05.59Z"/>
          <path class="cls-1" d="M285.34,90.39c.11.05.13.28.25.33.1-.43-.2-.72-.06-1.09-.19.04-.04.64-.19.76Z"/>
          <path class="cls-1" d="M285.19,83.6c-.02.29.02.48.2.41,0-.37.1-.6.29-.68-.02.22-.06.29.05.42.01-.17.1-.23.14-.34-.11-.45-.23-.67-.16-1.26-.34.25-.19.93-.33,1.6-.1,0-.06-.23-.2-.16Z"/>
          <path class="cls-1" d="M285.65,92.32c-.08-.51.11-.98-.11-1.26-.09.51-.2.72-.23,1.18.16-.05.23.05.34.08Z"/>
          <path class="cls-1" d="M285.79,146.19c.08-.14-.03-.38-.1-.5-.1.18-.01.46.1.5Z"/>
          <path class="cls-1" d="M285.46,134.45c-.05-.36.04-.46-.1-.58.04.19-.08.66.1.58Z"/>
          <path class="cls-1" d="M285.85,147.36c-.01-.24.04-.58-.1-.58.06.26-.07.21-.09.34.1.02.1.22.2.25Z"/>
          <path class="cls-1" d="M285.7,140.99c-.05.11-.09.66,0,.75.04-.18.07-.37.14-.51-.17.14-.03-.28-.15-.25Z"/>
          <path class="cls-1" d="M285.75,140.31c-.08.13.03.39.15.42.02-.26-.06-.34-.15-.42Z"/>
          <path class="cls-1" d="M285.84,140.23c.01-.11.07-.16.05-.34-.29,0,0-.67-.25-.83.03.44-.02.97.06,1.26-.04-.38.1-.23.14-.09Z"/>
        </g>
        <g>
          <path class="cls-1" d="M205.03,150.41c-.57.1-1.81-.18-1.92.18,1.05-.13,1.83.73,1.92-.18Z"/>
          <path class="cls-1" d="M202.09,153.61c.36.21,1.65.26,1.64-.17-.48.09-1.62-.18-1.64.17Z"/>
          <path class="cls-1" d="M197.77,158.16h4.36c2.77-.1,5.6-.29,8.58-.33.25.15.19.22.1.33h.6c.1-.08.15-.19.12-.34.15.08.36.13.6.17v-4.73c-1.36.02-2.89.08-4.56.15.05-.13.27-.16.27-.32-1.1.33-1.77.35-3.84.35-.02.23-.03.45.29.47-1.63-.02-4.63.34-6.53.64v3.61Z"/>
          <path class="cls-1" d="M197.77,148.32v1.66c3.25-.49,7.19.48,9.72-.06,0,.16,0,.32.01.48.85-.58,1.53-.38,2.74-.18-1.26.19-.46.57-2.18.49,1.43.19,2.94-.04,4.08.44v-3.21c-.97.02-1.97.04-3.05.06-.95-.85-3.71-.52-4.95-.44-.04.45,1.79-.21,1.38.46-.94-.06-1.54.07-2.19.18.84-1.15-3.01-.57-3.86-.6.05.45,1.15.28,1.93.3-1.09.47-2.32.51-3.62.41Z"/>
          <path class="cls-1" d="M227.49,148.01c-1.06.03-2.41-.1-2.74.34-.03,0-.05-.01-.08-.02v9.83h14.36v-9.3c-2.75-.13-5.72-.32-8.24-.39-1.1-.03-3.07.74-3.31-.45Z"/>
          <path class="cls-1" d="M199.92,143.79c.72.17-1.08.21-1.37.33-.16.74,1.51.39,2.48.46.6.02.11-.56.25-.79,1.05.07.92.85,2.49.61.76-.16-.41-.42.26-.64.93.74,3.42.33,4.96.75-.04.19-.5.14-.82.17.25.46.88-.1,1.37-.01-.12-.14-.25-.28-.56-.31.6-.03,1.85.04,3.03.29.05.02.09.04.11.07v-12.89h12.54v15.22c1.53.04,3.15-.37,3.89-.14-.33.23-1.04.25-1.36.49.12.3.6.39.57.79,3.58-.17,7.73.73,10.99.07.1.03.19.05.28.08V58.58h-14.36v59.03h-12.54v-59.03h-14.36v85.42c.58-.06,1.29-.03,2.14-.21Z"/>
          <path class="cls-1" d="M212.05,145.6c.02-.07.04-.18.09-.28v-.34c-.2.18-.64.36-.09.62Z"/>
        </g>
        <g>
          <path class="cls-1" d="M161.41,149.25c-.13.14-.66,1.19-.31,1.34.27-.36.8-1.01.31-1.34Z"/>
          <path class="cls-1" d="M190.26,102.28v-24.36c0-13.94-6.89-20.91-20.66-20.91s-20.61,6.97-20.61,20.91v13.13c.61-3.67,1.16-7.61,2.57-10.1-.07-.99.39-1.83,1.05-1.74.33,1.11-.32,3.3.16,4.24.51-.07.99-.23,1.24-1.14-.45-.75.79-2.09-.35-2.04-.41-.49.85-.22.78.16.53-2.62,2.01-3.7,2.38-5.39.33,1.72-1.39,3.31-1.85,6.62-.12.59.63.25.87.46.68,0,.74-1.97,1.24-2.55.64.42-.7,1.94,0,2.81-.69,1.25-2.19,5.26-.76,5.45-3.66,13.36-4.1,27.35-7.33,39.64v2.23c0-.07.02-.14.03-.2.19-1.3,1.09-3.28,1.26-4.78.27-2.34,1.57-6.54,2.34-10.17,1.22-.73.9-2.84,1.45-4.18.51.58-.54,3.72-.89,4.58.32.92.4,1.75.35,3.44-.16-.03-.31-.07-.47-.1.11.35-.04.98-.21,1.64.27.09.4-.26.68-.14-.94.59-.71,2.69-.55,3.81-.34.79-.34-.4-.56-.4-.19.98-.02,1.07-.43,1.87-.13.66.5.16.53-.17-.06.86-.58,1.43-.46,2.71.5.38.45-1.38.74-.41.56-1.92,1.28-3.33,1.95-4.92.33.39-1.25,3.7-.67,4.35.98-1.6,1.41-4.14,1.73-6.09.33.45.29,1.3-.09,2.51.15.02.19-.3.28-.5.17.08.02.52-.03.84.55-2.45,1.25-3.13,1.97-5.75,1.05.72.78-2.77,1.61-2.75-1.62,4.79-.64,7.21-2.27,11.3-.02.32.12.74.25.33.3,1.01-.96,3.46-.58,4.65-1.46,1.19-1.12,4.07-1.57,6.12-1.41,2.74-2.62,9.18-3.93,13.45,1.59,3.09,3.96,5.38,7.11,6.88,0-.9,0-1.92.43-2.73.09.17.19.33.4.37.85-3.07.02-4.84,1.66-7.23.31.57-.68.89-.65,2.11,1.02-.54,1.47-2.37,1.85-3.82.52.31-.04,1.78.72,1.83-1.25,1.81-1.16,3.23-1.66,5.82-.29-.09.1-.91-.28-.9-.12,2.17-.47,2.91-.43,4.68-.12.18-.23.37-.33.58,2.65.95,5.76,1.43,9.33,1.43,13.77-.03,20.66-7.02,20.66-20.96v-16.19h-14.36v16.19c0,4.5-2.1,6.75-6.29,6.75s-6.24-2.25-6.24-6.75v-60.91c0-4.5,2.06-6.75,6.19-6.75h.1c4.16.03,6.24,2.28,6.24,6.75v24.36h14.36Z"/>
          <path class="cls-1" d="M156.84,128.08c-.13.4-.81,1.65-.34,2.17.3-.35.8-2.05.34-2.17Z"/>
        </g>
        <g>
          <path class="cls-1" d="M24.61,155.72c-.2-.13-.51-.6-.64-.48.06.19.49.64.64.48Z"/>
          <path class="cls-1" d="M26.07,155.08c-.23-.15-.58-.66-.73-.57.41.3.4.86.73.57Z"/>
          <path class="cls-1" d="M17.3,149.16c-.29-.26-.72-.2-1.04-.43-.55-.41-.7-1.16-1.31-1.32-.29-.27-.2-.46-.43-.71-1.02-.68-1.86-1.46-2.97-2.27.09.64.2,1.26.32,1.86.12.06.24.12.36.17,2.07,2.22,4.37,3.9,6.13,6.09-.61.5,1.2,1.88,1.94,2.21,1.57,1.71,3.44,3.1,5.32,4.81.05.18-.04.13-.15.17.2.21.35.24.44.1.02.07.07.15.13.23,1.21.22,2.49.36,3.84.43-.29-.14-.05-.29-.14-.57-.31-.02-.43-.02-.54-.39-.18-.07-.33-.03-.5-.04-.62-.71-1.6-1.54-2.73-2.53.06-.03.15.03.2-.03-.5-.25-.74-.47-1.47-1.15-.08.07-.16.15-.06.26-.6-.58-1.89-1.52-2.64-2.03.4-.2-.73-.62-.72-1.19-.26-.01-.64-.43-.84-.26-.4-.42.29.05.16-.38-.41-.33-1.11-.43-1.37-.85-.02-.03.1-.22.06-.26-.26-.22-.54-.19-.84-.46.03.03.18-.04.2-.02-.15-.12-.52-.28-.69-.43-.28-.25-.35-.76-.67-1.04Z"/>
          <path class="cls-1" d="M29.17,158.99c.12.34.99,1.51,1.46,1.35.04.07.09.13.14.2.09,0,.18,0,.27,0-.51-.58-.93-1.09-1.63-1.23-.11-.12.01-.18.06-.26-.12-.09-.17.05-.3-.07Z"/>
          <path class="cls-1" d="M13.68,151.57c.09.17.18.33.27.49.01,0,.03,0,.04,0-.06-.08-.07-.15,0-.2-.11-.1-.21-.2-.32-.29Z"/>
          <path class="cls-1" d="M18.13,147.63c.17.16.31.27.44.3.27-.06-.19-.63-.38-.57.11.11.03.19-.06.26Z"/>
          <path class="cls-1" d="M35.82,60.25c-.3-.09-.72-.55-.89-.2.08.18.31.39.38.56.15-.33.58.22.89.4.62-.2.67-.16,1.01-.74-.17-.27-.14-.49-.53-.8-.68-.12-.41.36-.86.77Z"/>
          <path class="cls-1" d="M37.38,61.69c.08-.17.29.04.35-.2-.2-.16-.16-.26-.34-.42-.21.16-.05.4-.01.61Z"/>
          <path class="cls-1" d="M19.14,146.89c-1.26-1.58-1.92-2.02-3.61-3.34.03.12,0,.23-.11.32.43-.05.32.38.48.66.11.04.21.09.34.21-.04-.26-.45-.6-.33-.83.28.29.19.5.68.84-.1.33-.42.18.14.65-.26-.16-.43-.05-.74-.37-.35.38,2.09,2.2,1.07,1.2.4.08,1.09,1.19,1.13.73.77.54.65.98,1.21,1.44.44.36.84.26,1.28.56-.02-.01-.08.13-.1.11.28.2,1.11.41.83.87-.13-.34-.68-.71-.84-.46.72.24,1.86,2.01,3.07,2.74.11.11-.01.18-.06.26,1.34.9,2.42,2.59,3.51,3.25-.05.06-.1.11-.15.17.49.08.67.37,1.03.85-.51-.35-.35.05-.93-.55.49.59,1.17,1.04,1.35,1.67.08-.07.16-.15.06-.26.21.05.61.73.72.98.16.04.8.53.59.13.61.6,1.3,1.22,2,1.85.02,0,.05,0,.07,0,.59,0,1.16-.02,1.72-.05-.03-.1-.09-.21-.28-.34-.09-.06-.15-.03-.25-.12-.19-.17-.04.35-.35.2-.21-.16.04-.72-.29-.48-.88-1.4-2.3-2.56-4.08-4.2-.06-.61-1.14-1.41-1.6-1.8-.16.15.7.52.33.62-.31-.33-.57-.48-.83-.66.68-.13-.87-1.2-1.16-1.49-.13.18.31.48.58.75-1.38-.49-2.15-2.29-3.51-3.25.15-.1-.22-.32-.14-.44-1.2-.55-1.8-1.77-2.83-2.41Z"/>
          <path class="cls-1" d="M29.07,158.9c-.23-.28-.84-.64-.64-.28.09-.08.48.65.64.28Z"/>
          <path class="cls-1" d="M14.89,143.48c.09.2.23.58.49.45-.03-.09-.34-.56-.49-.45Z"/>
          <path class="cls-1" d="M14.27,142.38c-.91-1.1-1.98-2.16-3.04-3.1v.32c0,.24,0,.47.01.7,1.12.9,2.12,1.92,2.87,2.46-.1-.11-.03-.19.06-.26.31.26.7.77.88.61-.14-.21-.27-.43-.48-.66-.13-.12-.18.02-.3-.07Z"/>
          <path class="cls-1" d="M29.74,58.28c.29-.05.69.15.84.26,0-.46-.34-.59-.72-.69-.45.02-.89.05-1.32.09.8.64,1.68,1.13,2.42,1.37-.01-.56-.84-.66-1.22-1.02Z"/>
          <path class="cls-1" d="M30.49,58.04c.03-.08,0-.15-.05-.22-.11,0-.22.01-.33.02.15.09.28.17.37.21Z"/>
          <path class="cls-1" d="M51.6,71.09s.02-.03.03-.04c-1.48-5.84-4.86-9.75-10.15-11.72.06.17.13.34.22.52-.36,2.14-.33,3.34-1.06,4.98-.08.12.3.34.29.48-.23,0-.37.29-.7-.02-.05.1.27.29.19.39-.74-.12-.86.35-1.17.91-.13-.04-.28-.14-.44-.3.06.95-1.06.34-1.22,1.17-2.17-2.09-4.19-1.44-6.34-3.46.25-.31-.09-.75-.22-1.15,1.44.47,3.03,1.44,4.44,1.81.21-.14.09-.35-.04-.56-.21-.24-.18.31-.45-.1.67-.61-1.48-1.62-2.24-2.28-.19-.25-.09-.43-.28-.68-.69-.3-1.66-1.09-1.95-1.6-.7-.39-1.54-.9-2.19-1.45-11.39,1.14-17.08,8.05-17.08,20.74v58.52c.12.13.25.26.36.39,1.03.32,1.43,1.4,2.4,1.9.14.26.41.55.23.74.3.09.4.14.64.48.26.22-.05-.22.2-.23.69.83,1.41.63,2.11,1.22-.44.27-.76-.39-1.24-.41.27.42.67,1.02,1.17,1.29-.09,0-.19,0-.25.08.58.11.95.61,1.42,1.21.17.11.03-.11.15-.17,1.29,1.5,2.94,2.54,4.38,4.26.15.1.21-.07.3-.14.57.55.66.62,1.02,1.05-.27-.67.54.52.58.75.19.16.23-.14.4-.05.33.37-.34.18-.01.61.46-.02.73.46,1.37.85.2.3-.45-.28-.59-.34-.3.21.4.64.72.98.2.21.23-.16.35-.2.35.37.04.6.67,1.04.32.2,0-.28.3-.14.08.57,1.1,1.25,1.5,1.91-.08.05-.22-.12-.34-.21-.07.24.34.26.49.45,0-.09,0-.18-.09-.29.22.19.64.63.97,1.11.14.36-.47-.09-.31.34.1-.06.34-.28.64.28-.23.02-.54-.25-.65.13.12.1.16.17.14.24.43.38.13-.38.5.04-.49.21.24.69.47,1.07-.13.12-.44-.36-.64-.48-.17.17.14.44.43.71.2.39-.57-.51-.69-.43.48.6,1.93,1.98,2.6,1.88.19.23.41.62.64.48.11.32.35.6.62.86,12.19-.81,18.29-7.76,18.29-20.88v-16.19h-14.36v16.19c0,4.5-2.1,6.75-6.29,6.75s-6.24-2.25-6.24-6.75v-60.91c0-4.5,2.06-6.75,6.19-6.75h.1c4.16.03,6.24,2.28,6.24,6.75v24.36h14.36v-24.36c0-2.6-.24-4.96-.72-7.07-.11-.19-.19-.38-.18-.54Z"/>
          <path class="cls-1" d="M29.93,160.51c.12,0,.23.01.35.02-.23-.16-.43-.26-.35-.02Z"/>
          <path class="cls-1" d="M15.02,144.54c.42.41.58.77.47,1.07-.22-.26-.27-.39-.54-.39.18.2.16.35.24.53.63.36,1.02.46,1.62,1.18.09-.67-.87-1.23-1.49-2.11.1-.11.33.17.4-.05-.31-.33-.57-.5-.69-.22Z"/>
          <path class="cls-1" d="M15.08,144.07c-.9-.31-1.89-1.77-3.03-2.39-.03.32,1.67,2.05,1.36,1.26.56.57.73.65,1.22,1.23.14-.07.37.15.45-.11Z"/>
          <path class="cls-1" d="M24.39,159.17c-2.3-1.52-3.33-3.73-5.6-5.29-.26.62-.27,1.06-1.02.94-.02.06.05.15,0,.21.37.23.94.52.92.96-.46-.67-.99-.78-1.56-1.24-.15.19-.51.04-.94-.14-.06.24.22.55.33.83-.01,0-.02-.02-.04-.02,1.48,1.49,3.28,2.65,5.4,3.5-.18-.2-.39-.39-.5-.54.26.13.54.37.82.66.86.33,1.78.6,2.74.83-.18-.24-.35-.47-.54-.68Z"/>
          <path class="cls-1" d="M11.3,141.82c1.05.85,1.86,2.09,2.88,2.26-1.05-.78-2.12-1.94-2.9-2.56,0,.1,0,.2.01.3Z"/>
        </g>
        <g>
          <path class="cls-1" d="M408.52,131.16v-.09s-.03.07-.04.11c.02-.01.03-.01.04-.02Z"/>
          <path class="cls-1" d="M408.28,105.62c.04.22.14.38.24.56v-.75s-.25.12-.24.19Z"/>
          <path class="cls-1" d="M408.52,106.63v-.07s-.03-.01-.03-.02c0,.02.02.06.03.09Z"/>
          <path class="cls-1" d="M407.15,98.32c.1-.22.04-.96-.21-.92.09.27.01.93.21.92Z"/>
          <path class="cls-1" d="M408.52,129.12v-1.64c-.05-.16-.12-.3-.21-.41,0,.3.24.92-.08.81,0-.52-.19-1.08-.42-1.85.23-.01.32.26.34-.21-.29-.18.09-.56-.03-.95-.17-.07-.31.51-.45.07.2-.3.26-.79.29-1.31-.81-2.23-.92-4.98-1.3-6.48,0,.18-.12.19-.25.2-.09-.47-.06-1.23-.34-1.22-.03.3-.08.6-.06.96.03.21.18.12.22.29,0,2.83.46,5.87,1,8.28.03,0,.05,0,.08-.01.03.26.07.52.1.78-.06-.25-.12-.51-.18-.77-.09.01-.19.03-.28.04.36,1.76.02,3.23.63,4.83.47-.69-.12-2.75-.06-3.96.43.28.05,2.15.45,2.79-.07-.84.24-.17.55-.23Z"/>
          <path class="cls-1" d="M406.5,115.9c.07-.25.23-.7-.1-.78-.04.1-.11.77.1.78Z"/>
          <path class="cls-1" d="M406.73,114.11c.03.54.14.88.46.73-.07-.7.05-1.14.38-1.33,0,.41-.05.56.19.77-.01-.32.13-.44.19-.66-.3-.8-.57-1.19-.57-2.3-.58.54-.14,1.77-.24,3.06-.18.02-.17-.41-.4-.26Z"/>
          <path class="cls-1" d="M408.22,156.01c0-.19.12-.19.25-.2-.05-.23-.04-.58-.17-.61.13.5-.58.17-.1.65-.05,0-.09.14.02.16Z"/>
          <path class="cls-1" d="M405.13,96.87c.1.32.02,1.04.23,1.08-.14-.59.29-1.09-.23-1.08Z"/>
          <path class="cls-1" d="M406.45,109.86c0-.18.12-.19.25-.2-.03-.27-.08-.48-.17-.61-.29-.15-.3.71-.08.81Z"/>
          <path class="cls-1" d="M405.68,91.86c-.14,0,.05-.96-.37-.74,0,.44.27,1.22.37.74Z"/>
          <path class="cls-1" d="M408.45,121.01c-.02-.27-.18-.73.08-.66v-.12c-.34-1.6-.1-3.39-.92-4.35.43,1.79.48,4.12.85,5.12Z"/>
          <path class="cls-1" d="M407.86,157.49c.16-.04.21.16.38.1-1.36-1.65-.3-3.47-1.34-5.36.28.52.44.24.75.84.11-.06.05-.32-.04-.31.82,0,.19-1.75-.07-2.69.33.17.43.86.63,1.34.16-.3.13-1.25-.32-1.06.07-.52-.06-.69-.16-1.25.09-.46.15.84.37.74.32-.45-.08-2.06-.1-2.21-.06-.4-.13-.78-.08-.62-.26-.82.09-1.26.05-1.75-.02-.18-.35-.33-.37-.74-.07-1.11-.2-3.48-.94-5.11.05-.14.23-.13.23-.35.33.19-.14.41.01.79.45-.2.24-1.33.12-1.93-.08.12-.05.37-.23.35,0-.76.41-2.09-.23-2.51-.08-.33.09-.32.23-.35-.12-.67-.11-.72-.23-1.08-.16-.03-.15.15-.14.34-.49-.58,0-1.16-.44-2,.36.04.15-.68.35-.85-.61-1.94-1.16-5.56-1.23-8.08-.69-1.07-.24-2.35-.73-3.55.07-.34.04-.81.35-.85-.2-.31-.26-.43-.21-.92-.07-.4-.13.24-.36.05,0-1.28-.8-1.64-.99-2.71.6.09.4.93.81,1.31.07-.59.16-1.44-.08-2.05.08.07.17.14.29.12-.44-.54-.4-1.27-.37-2.17-.07-.23-.11.08-.27.04-.04-2.34-.74-4.54-.75-7.2-.06-.21-.24-.1-.38-.1-.1-.93-.13-1.06-.13-1.73-.27.81-.1-.89.04-1.12-.05-.29-.32-.05-.4-.26-.02-.59.45.1.48-.55-.43-.33-.31-.97-.6-1.82.05-.42.19.6.28.75.43.04.12-.89.09-1.44-.03-.34-.33-.02-.47-.09-.03-.6.42-.58.18-1.46-.14-.42-.21.26-.38-.1.35-.58-.05-1.97.09-2.87.11,0,.11.27.15.45.25-.17-.12-.49-.1-.78-.07.08-.14.16-.14.34-.06-.34-.11-1.05-.04-1.74.14-.44.36.44.54-.08-.14-.02-.52,0-.37-.74.22.16.3.64.69.38-.04-.18-.02-.28.05-.33-.1-.68-.4.25-.42-.41.61.18.31-.81.38-1.33.2,0,.12.66.21.92.28-.03.21-.51.15-.98.11-.51.13.9.3.91.01-.91-.26-3.26-.94-3.68,0-.35.1-.88-.21-.92.41-1.09-.36-2.67-.24-3.3.15.17.21.58.37.74.16-.09.18-.37.41-.38-.34-2.02-.12-4.45-.72-6.25.24-1.37-.05-1.87,0-3.5.31,2.02.43,5.44.67,8.01.06.63.63,1.69-.03,1.91.09.6.11,1.38.38,1.53,0,.39-.31.38-.15.97.03.12.11.14.13.3.05.3.3-.29.47.09.07.31-.58.62-.1.65-.26,1.93.14,4.07.53,6.91-.42.6-.04,2.15.09,2.85.26,0-.24-1,.17-.82.03.54.15.87.25,1.23-.71-.4-.11,1.75-.08,2.24.25-.06.08-.67.04-1.12.88,1.5.22,3.71.73,5.62-.21-.02-.04.47-.21.51.68,1.41.29,2.98.75,4.34-.05,2.39.21,3.29.75,5.77.06-.13.18-.2.34-.21-.43-.28,0-.59.06-.96-.06-.12-.13-.24-.15-.45-.16.26-.05.89-.33,1-.03-.48.21-.6.02-1.27.33-.22.52.16.37-.69.11.34.35.38.39.9.6-.08-.23-3.59-.06-1.9-.3-.37-.09-1.91-.47-1.52-.29-1.08.15-1.39-.01-2.22-.13-.66-.57-.88-.74-1.48,0,.03.17-.05.18-.03-.11-.39-.7-1.22-.09-1.42-.14.41.08,1.16.41,1.05-.47-.76-.17-3.24-.72-4.82,0-.18.15-.16.25-.2-.54-1.83-.24-4.19-.73-5.61.09-.01.18-.03.27-.04-.39-.45-.32-.85-.29-1.55.19.71.35.22.43,1.21,0-.91-.28-1.84.04-2.55-.13,0-.26.01-.25.2-.15-.2,0-1.12.09-1.44-.11-.15-.33-1.09-.44-.57-.11-1.12-.3-2.36-.46-3.59.36-.03.36.64.67.22.1,1.25-.09,2.26.58,3.09,0,.19-.15.16-.25.2.04.17.19.08.22.29.15-.4.25-2.12-.3-2.34.07-.42,0-1.05.09-1.44.43,0,.7-.04.86.99-.17,0-.13-.51-.33-.43-.26-.08-.14.34-.32.37.1.31.3,1.45.48.88.23.42-.15.34-.28.68.26.25.37.34.19.77.11.2.28.28.42.41.03,1.12.29,2.61.57,4.37-.08-.02-.11-.14-.2-.13.26.6.32.98.46,2.16.13,0,.26-.01.25-.2.1.98.56,2.81.86,3.85-.52-.12.19,1.11-.25,1.63.23.21.26.87.57.87.05.69-.23-.27-.43.22.1.51.51,1.03.59,1.54v-46.56h-14.36v99.58h13.98c-.08-.26-.24-.31-.28-.67Z"/>
          <polygon class="cls-1" points="416.62 41.83 401.37 41.83 395.68 54.67 408.65 54.67 416.62 41.83"/>
          <path class="cls-1" d="M407.44,117.51c-.07-.94-.17-1.15-.17-2.04-.18-.04-.22-.42-.49-.25.59.97.38,3.05.95,4.47.26-.27.04-3.12-.28-2.18Z"/>
        </g>
        <g>
          <path class="cls-1" d="M322.17,65.94c-.01-.24.11-1.05-.25-1.23-.09.25-.02,1.26.25,1.23Z"/>
          <path class="cls-1" d="M333.88,67.23c-.21.04-.57-1.23-.47-.09-.24-.17-.31-.75-.64-.7-.18,1.25.5,3,.19,4.26-.2-.24-.56.04-.59.4.75.24.91,1.89,1.51,2.48.14.49-.08.5-.08.81-.18-.93-.62-1.22-.75-2.27-.38-.15-.18.46-.28.68-.16-.22-.23-.66-.32-1.07-.25.02-.15.29-.36.05.02.57.15.87.39.9.1,1.04.09,1.86.36,2.81-.49,1.44.29,3.63.56,5,.12.42-.14.34-.1.65.12,2.65,1.48,6.58,1.08,9.06.23.52.16,1.06-.22,1.14-.4-.53-.48-1.84-.93-2.25-.26.14-.49.32-.44.86.39.31,0,1.28.59,1.03.31.18-.41.29-.45.07.24,1.51-.34,2.38-.2,3.37-.52-.86.08-2.05-.32-3.92-.06-.34-.39,0-.56-.08-.36.14,0,1.2-.16,1.61-.43-.1-.01-1.18-.56-1.51.12-.81.13-3.26-.67-3.08-.75-8.55-3.67-16.74-4.09-24.51-.1-.35-.12.21-.29-.12.18-.54-.24-1.07-.11-1.57-.41.51-.04,1.62.12,2.37.16.74.07,1.98.27,2.82.32,1.31.46,3.82.77,5.93-.51.64.08,1.7.05,2.53-.39-.21-.45-2.1-.43-2.64-.35-.43-.57-.86-.87-1.78.09-.01.18-.03.27-.04-.13-.17-.17-.54-.21-.92-.16,0-.16.22-.34.21.39-.5-.16-1.58-.46-2.16.03-.49.26.14.38.1-.09-.57-.2-.58-.14-1.09-.06-.38-.3.01-.25.2-.14-.47.03-.89-.29-1.55-.35-.11.03.83-.32.37.08,1.14-.03,2.04-.07,3.03-.25-.14-.07-2.23-.5-2.47-.2,1.05.07,2.5.29,3.61-.27-.17-.41-.64-.45-1.36-.09.02-.04.2-.05.33-.11-.01-.11-.27-.15-.46.19,1.43-.05,1.93.09,3.48-.71-.18.13,1.64-.32,1.8-.08-2.9-1.09-4-1.03-6.52-.06-.17-.21-.37-.2-.13-.36-.48-.17-2.05-.61-2.61.55-.93-.21-2.41-.37-3.6.1-.8.02-2-.11-3.32-1.57-.24-3.26-.37-5.07-.37-.11,0-.22,0-.33,0,0,.07.01.13.02.2-.09-.02-.16-.09-.21-.19-13.39.18-20.09,7.14-20.09,20.9v60.91c0,13.03,5.8,19.96,17.41,20.81.1,10.76,8.05,16.16,23.86,16.19v-11.98c-10.32-.07-15.57-1.52-15.73-4.36,10.49-1.32,15.73-8.21,15.73-20.66v-60.91c0-5.66-1.13-10.17-3.4-13.53.2,1.02.34,2.17.69,2.84ZM322.23,138.82c0,4.5-2.1,6.75-6.29,6.75s-6.24-2.25-6.24-6.75v-60.91c0-4.5,2.06-6.75,6.19-6.75h.1c4.16.03,6.24,2.28,6.24,6.75v60.91Z"/>
        </g>
        <g>
          <path class="cls-1" d="M117.09,62.63c.27-.64.5-1.88-.18-2.19.11,1.03.01,2.6.18,2.19Z"/>
          <path class="cls-1" d="M117.28,86.25c-.03-.41.05-1.01-.17-1.1-.06.43-.5.25-.31,1.11.16,0,.32,0,.48-.01Z"/>
          <path class="cls-1" d="M117.77,67.56c-.62.34-.56,2.69-.13,3.3.3-.67.08-2.21.13-3.3Z"/>
          <path class="cls-1" d="M118.73,69.18c.13-1.05.24-2.06-.34-2.46.01,1-.07,2.17.34,2.46Z"/>
          <path class="cls-1" d="M117.88,61.52c.19-.84.55.28.95-.02.05-1.21,0-2.24-.26-2.91h-.45c-.12,1.45-.21,1.8-.24,2.94Z"/>
          <path class="cls-1" d="M119.03,65.88c.04-.72-.07-1.18-.49-1.09-.04.72.07,1.18.49,1.09Z"/>
          <path class="cls-1" d="M117.87,80.47c-.21,0-.42,0-.64.02-.63,1.45.13,2.65.66,3.55.26-1.4-.88-1.76-.49-2.46.16-.04.33,1.18.48.26-.47-.22.09-.89-.01-1.37Z"/>
          <path class="cls-1" d="M117.43,65.37c.02.7.1,1.31.33,1.64.24-.42.27-1.89-.33-1.64Z"/>
          <path class="cls-1" d="M122.65,144V58.58h-3.7c.06.86.15,1.47.52,2.07-.64,1.81-.17,5.36.37,6.31-.36.95-.55,1.11-.14,2.2-.13-.23-.44-.15-.48-.54-.48,1.17-.46,1.71-.29,3.3-.36-.32-.7-.78-.95.02.3-.06.69.95.17,1.65.5.95.86,1.72.66,3.28-.55-.19-.55-1.36-.34-2.19-.28-.03-.33.34-.63.29.28,1.55.28,1.77.19,3.56.54.27.24-.86.3-1.38.5-.15.07,1.36.64,1.08-.23.69-.98.52-.94,1.67.75.26.11-.02.17,1.64.14-.21.24-.51.31-.83-.12,1.12-.3,2.97-.44,4.68.71.79-.14,1.01-.16-.27-.13.05-.16.28-.32.28-.29,1.06.08,1.56-.46,2.21.19.73.84,0,.63-.84.56.54-.43,2.12.49,1.91-.1.49-.77,1.38-.3,1.93-.1.83-.34-.26-.64.02.01.9.68.64.65,1.63-.35-.3-.53-.9-.96-1.07-.03.98.48.99.49,1.91-.32.01-.2.75-.63.57.49-.96.11-1.26-.18-2.19-.37.41-.31,3.55.19,4.11-.21.46.07,1.75-.46,1.66-.12-.84.27-.81.15-1.65-.27-.09-.3.22-.31.56-.36-.89.32-2.22-.03-3.29-.07-.4-.2.11-.47.01-.47-.71.4-2.06-.34-2.19.61-1.03.02-3.4-.2-4.66.71-1.08.27-2.8.44-4.4-.76.52-.3,1.61-.45,3.3-.58-.55.16-2.03-.19-3.29.71.29-.11-2,.78-1.39-.33-1.52-.2-2.05.13-3.57-1.19-1.13-.43-4.9-1-6.01.06-3.72.04-7.81-.01-12.08h-6.64v99.58h37.25v-14.16h-22.89ZM118.43,90.34c.27,0,.41-.21.47-.56.02.06-.09,2.19-.62,2.21.2-.72.34-.84.14-1.65ZM118.95,96.09c-.91-.21.55-1.6-.33-1.64.05-.38.4-.24.63-.29-.18,1.01-.21,1.24-.3,1.93ZM118.93,93.62c-.33.12-.42-.18-.64-.26.08-.63,1.1-.52.62-1.66.15-.85.27.59.48.54-.17.43-.51.59-.46,1.39Z"/>
          <path class="cls-1" d="M117.75,65.09c-.04-1.21.14-2.09.61-3.04-.51-.51-1.65,2.53-.61,3.04Z"/>
        </g>
        <polygon class="cls-1" points="100.26 66.63 92.21 58.58 85.92 64.87 79.63 58.58 73.34 64.87 67.04 58.58 59 66.63 67.04 74.67 73.34 68.38 79.63 74.67 85.92 68.38 92.21 74.67 100.26 66.63"/>
        <polygon class="cls-1" points="385.37 151.15 377.33 143.11 371.03 149.4 364.74 143.11 358.45 149.4 352.16 143.11 344.11 151.15 352.16 159.2 358.45 152.91 364.74 159.2 371.03 152.91 377.33 159.2 385.37 151.15"/>
      </g>
    </g>
  </g>
</svg>