<?xml version="1.0" encoding="UTF-8"?>
<svg xmlns="http://www.w3.org/2000/svg" version="1.1" viewBox="0 0 522.05 185.45">
  <defs>
    <style>
      .cls-1 {
        fill: #206c60;
      }
    </style>
  </defs>
  <!-- Generator: Adobe Illustrator 28.6.0, SVG Export Plug-In . SVG Version: 1.2.0 Build 709)  -->
  <g>
    <g id="Capa_1">
      <g>
        <path class="cls-1" d="M60.36,152.56c0,15.24-7.32,23.09-21.96,23.55-.42.01-.84.02-1.27.02-.43-.86-.43-1.93-1.49-1.93s-1.06,1.06-2.21,1.76c-.59-.05-1.17-.12-1.73-.2-2.82-.41-5.3-1.16-7.44-2.25-1.72-.87-3.22-1.96-4.51-3.27-1.29-1.31-2.1-2.84-3.22-4.58-.58-1.75-1.95-3.71-2.14-5.89-.51-2.18-.67-4.58-.44-7.2.6,0,.26-2.74,0-7.12.22-2.19.1-4.79.23-7.67.21-2.88.22-6.03-.23-9.32,1.09-3.29.79-6.71.28-10.14.12-3.42-.13-6.85-.28-10.14-.48-3.29-.98-6.44-.08-9.32.86-2.88.62-5.48.08-7.67.15-4.38-.42-7.12,0-7.12-.01-2.61.82-5.01.86-7.19.08-2.18,1.24-4.14,1.71-5.88.86-1.74,1.93-3.27,3.22-4.57,1.29-1.31,2.79-2.4,4.51-3.27,1.72-.87,3.65-1.52,5.79-1.96,1.56-.32,3.11-.52,4.93-.61.36-.02.74-.03,1.13-.04,1.67.81.6,2.94.6,4,2.13,0,0-3.19,1.68-3.49.21-.14.49-.29.86-.48.67.03,1.3.07,1.91.12,3.65.33,6.31,1.14,8.89,2.45,6.88,3.48,10.33,10.45,10.33,20.91,0,0-.29,3.04,0,7.1.19,4.06.16,9.13,0,13.19-.19,4.06.39,7.1,0,7.1h-8.08c-3.87,0-8.99,0-8.08,0,.7,0-.4-3.04,0-7.1-.12-4.06-.93-9.13,0-13.19.07-4.06.07-7.1,0-7.1-.43-2.51-.72-4.4-1.76-5.67-.85-.84-1.86-1.41-3.14-1.7-.64-.14-1.34-.22-2.13-.23.81,0-.55,0-.11,0-1.87,0-4.26.63-5.22,1.9-1.12,1.27-1.37,3.16-1.74,5.69-.42,0-.23,2.74,0,7.12.81,4.38-.14,10.41,0,16.99.26,4.38.38,9.01.3,13.56-.01.57-.02,1.14-.25,1.67-.91.77-.91,1.83.06,3.39-.03.55-.07,1.11-.11,1.65-.83,6.58.73,12.6,0,16.99v7.12c0,5.06,2.34,7.59,7.02,7.59,2.36,0,4.13-.63,5.31-1.9s1.83-3.16,1.77-5.69c-.51,0,.67-4.55,0-9.1-.15-4.55,1-9.1,0-9.1h16.16c-.54,0,.14,4.55,0,9.1v9.1Z"/>
        <path class="cls-1" d="M68.81,62.31h16.15v6.9c-.58,4.25-.1,10.09,0,16.46-.14,3.19-.19,6.51-.18,9.83s.08,6.64.18,9.83c-.47,3.19.38,6.24-.18,9.03-.4,2.79-.15,5.31.18,7.44-1.12,4.25-.29,6.9,0,6.9h7.05c3.42,0,8.2,0,7.05,0,.47,0-.05-2.66,0-6.9-.31-2.12.18-4.65.08-7.44.54-2.79-.01-5.84-.08-9.03,0-6.37.46-13.28,0-19.65.52-6.37.03-12.22,0-16.46v-6.9h2.52c2.18,3.31,4.31.11,5.8-.71.3.58.76.71,1.26.71h6.57v35.44c0,6.56.32,13.56,0,20.56-.49,7-.45,14,0,20.56.22,6.56-.61,12.69,0,17.94-.16,5.25-.5,9.62,0,12.69.14,3.06-.09,4.81,0,4.81.06,0-4.43,0-8.08,0h-8.08c.07,0,.89-3.29,0-7.68.42-2.19.75-4.66,0-7.13-.33-2.47.35-4.94,0-7.13.43-4.39-.66-7.68,0-7.68.41,0-3.35,0-7.05,0s-7.61,0-7.05,0c-.05,0-.92,3.29,0,7.68v21.95h-4.19c-.3,0-.62,0-.95-.15-1.61-3.15-2.68-1.02-4.85-.45-.82.59-1.45.59-2.03.59h-4.14c.13,0-.04-1.75,0-4.81-.12-1.53-.86-3.39.05-5.52.21-2.13-.29-4.54-.05-7.16.38-2.62.23-5.47.02-8.48-.15-3.01-.34-6.18-.02-9.46.15-3.28-.07-6.67-.23-10.12-.27-3.45.56-6.95.23-10.45-.52-3.5.95-7,.04-10.45-.66-3.45-.69-6.84-.04-10.12.42-3.28.25-6.45-.11-9.46.22-3.01.18-5.85.11-8.48-.16-5.25-.16-9.62,0-12.69v-4.81Z"/>
        <path class="cls-1" d="M170.65,129.39c-.22,5.23-1.37,9.58-2.58,13.07-1.84,3.49-4.2,6.11-7.74,7.86-3.01,1.53-6.68,2.4-11.01,2.6-.62.03-1.25.04-1.9.05,0-1.11,0-2.18-1.07-3.24,0,0-1.06,1.06-.82,1.27-.31,1.19-.62,1.54-.92,1.88-3.92-.27-7.28-1.11-10.07-2.53-2.83-1.75-5.32-4.37-7.73-7.86-2.1-3.49-2.71-7.86-2.57-13.1.1,0,.33-2.83,0-7.08-.1-4.25.04-9.92,0-15.58.37-5.67-.18-11.33,0-15.58.49-4.25-.08-7.08,0-7.08.01-5.23,1.43-9.58,2.57-13.07,1.18-3.48,3.65-6.1,7.73-7.84,3-1.52,6.67-2.38,10.98-2.57.31-.01.62-.02.94-.03s.63-.01.96-.02c.32,0,.64,0,.96.02s.62.02.93.03c4.28.19,7.77,1.05,11.02,2.57,3.74,1.74,6.33,4.36,7.74,7.84,2.08,3.48,2.01,7.84,2.58,13.07.04,0,.11,2.83,0,7.08-.21,4.25.05,9.92,0,15.58-.24,5.67.09,11.33,0,15.58.8,4.25.22,7.08,0,7.08ZM154.5,84.06c-.41-2.51-.58-4.4-1.76-5.67-.88-.95-2.08-1.55-3.62-1.8-.26-.04-.53-.1-.84-.94.2-2.59-1.93-3.65-.86-5.78,1.06,2.13-1.06,3.19-1.16,5.63-.19.4-.38.73-.53,1.07-.51.08-.98.2-1.41.36-.87.32-1.6.79-2.18,1.42-1.16,1.27-1.78,3.16-1.74,5.69.07,0-.03,2.83,0,7.08-.36,4.25.02,9.92,0,15.58.42,5.67.02,11.33,0,15.58.35,4.25.17,7.08,0,7.08-.13,2.53.47,4.43,1.76,5.69.59.63,1.32,1.11,2.19,1.42.44.16.91.28,1.43-.56.51-.84,1.06.33,1.65,1.03.59,0,1.14-.04,1.66-.12,1.55-.24,2.76-.83,3.65-1.78,1.4-1.27,1.14-3.16,1.77-5.69.27,0-.45-2.83,0-7.08.33-4.25.16-9.92,0-15.58-.21-5.67.39-11.33,0-15.58-.11-4.25-.43-7.08,0-7.08Z"/>
        <path class="cls-1" d="M213.41,141.72s1.86,3.62,4.34,8.45c4.96,9.66,12.39,24.14,12.39,24.14h-17.7s-1.63-3.3-3.73-7.7c-2.63-4.4-4.71-9.89-6.93-14.29-1.84-4.4-4.02-7.7-3.73-7.7.44,0-2.49,0-2.23,0,.34,0-.76,3.3,0,7.7-.08,4.4.28,9.89,0,14.29-.4,4.4.44,7.7,0,7.7.19,0-4.5,0-8.08,0h-8.08v-17.5c-.02-5.25-.07-11.37,0-17.94.08-6.56.84-13.56,0-20.56.37-7,.36-14,0-20.56-.05-6.56.69-12.69,0-17.94-.58-5.25-.08-9.62,0-12.69v-4.81h22.09c-.05.11,1.01.11,1.43,0,.4,0,.79.01,1.18.03,1.94.07,3.74.28,5.4.65,1.99.44,3.79,1.1,5.38,1.97,2.28.88,2.61,1.97,4.24,3.28,1.8,1.31,2.36,2.84,2.93,4.58.85,1.74,1.4,3.71,1.69,5.88.18,2.18.1,4.57.7,7.19-.15,0-.26.98-.07,2.6-.13,1.63-.06,3.91.07,6.51.16,2.6,0,5.53.03,8.47-.23,2.93-.31,5.86-.03,8.47.47,2.6-.07,4.88.02,6.51-.04,1.63.26,2.6-.02,2.6-.1,1.65.41,3.21-.33,4.7-.85,1.48-.65,2.88-.93,4.2-1.12,2.63-1.87,4.93-3.77,6.89-1.31,1.96-4.05,3.59-6.28,4.88ZM195.83,78.24c.25,0-.26,3.19,0,7.96-.05,4.78.61,11.15,0,17.52.2,3.19.08,6.37-.02,9.36-.11,2.99-.2,5.77.02,8.16-.34,4.78,1.09,7.96,0,7.96-.03,0,3.33,0,3.71,0,1.89,0,3.58-.15,4.62-.46,1.46-.59,2.56-1.48,3.3-2.67.73-1.19,1.1-2.68,1.1-4.47v-35.73c0-4.25-1.63-6.73-4.88-7.44-.16-.04-.33-.11-.5-.41-.4-1.78.66-3.91-1.47-6.04,0,2.13,0,4.26-1.01,6.16-.27.04-.58.05-.91.06s-.67,0-1.02,0h-2.95Z"/>
        <path class="cls-1" d="M277.18,152.56c-.26,5.23-.73,9.58-2.58,13.07-1.89,3.49-4.58,6.11-7.74,7.86-2.58,1.31-5.65,2.14-9.2,2.47-.59.06-1.2.1-1.82.13-.9-.82-1.96-1.88-1.96-2.95,0,1.06,0,2.13-1.2,2.97-.42-.01-.83-.03-1.23-.05-13.78-.82-20.67-8.66-20.67-23.5,0,0,.12-2.74,0-7.12.27-2.19.29-4.79,0-7.67.32-2.88.05-6.03,0-9.32-.4-3.29.04-6.71-.13-10.14.27-3.42-.41-6.85.13-10.14.16-3.29.48-6.44.14-9.32-.57-2.88.09-5.48-.14-7.67-.39-4.38-.13-7.12,0-7.12.09-2.61.43-5.01.86-7.19.74-2.18,1-4.14,1.72-5.88.86-1.74,1.93-3.27,3.22-4.57,1.29-1.31,2.79-2.4,4.51-3.27,3.43-1.74,7.73-2.61,12.88-2.61s9.47.87,12.91,2.61,6.02,4.36,7.74,7.84c1.68,3.48,2.81,7.84,2.58,13.07.03,0,1.12,2.74,0,7.12.29,2.19.93,4.79.3,7.67-.4,2.88-.33,6.03-.3,9.32-.37,3.29-.68,6.71-.44,10.14-.7,3.42.55,6.85.44,10.14-.65,3.29-.59,6.44-.27,9.32-.03,2.88.26,5.48.27,7.67-.49,4.38.02,7.12,0,7.12ZM261.02,84.06c0-3.35-1.04-5.59-3.12-6.72-.52-.28-1.11-.5-1.77-.74-.13-1.4-.13-2.46-1.19-2.46-2.13-1.06,0,2.13-2.18,2.25-.35.16-.69.22-1.01.29-3.22.7-4.84,3.16-4.84,7.38v68.5c0,5.06,2.34,7.59,7.02,7.59s7.08-2.53,7.08-7.59v-7.12c-.35-4.38-.66-10.41,0-16.99-.41-6.58.35-13.7,0-20.28-.52-6.58,0-12.6,0-16.99v-7.12Z"/>
        <path class="cls-1" d="M316.06,119.8s-5.26-8.96-9.39-16.01c-.24-.41-.48-.82-.72-1.12-.97.21-.97-.85-1.33-2.37-.42-.71-.8-1.36-1.14-1.95-1.03-1.75-1.68-2.87-1.68-2.87v29.11c0,11.29,1.07,24.07,0,36.12,0,.45,0,.89,0,1.33v12.33h-15.58v-4.81c0-3.06.15-7.44,0-12.69.32-5.25.38-11.37,0-17.94-.16-6.56-.09-13.56,0-20.56.24-7,.21-14,0-20.56.19-6.56.04-12.69,0-17.94-.26-5.25.44-9.62,0-12.69-.33-3.06,0-4.81,0-4.81h12.73s2.41,4.06,5.42,9.14c.25.42.51.89.76,1.61-.13,3.15-.13,6.34,3.98,6.39.26.44.52.88.78,1.32,3.36,5.66,6.18,10.43,6.18,10.43l17.13-28.88h12.73v4.81c-.34,3.06.38,7.44,0,12.69.45,5.25.51,11.37,0,17.94-.18,3.28.13,6.67.02,10.12-.28,3.45.14,6.95-.02,10.45,0,3.5.21,7,.09,10.45-.34,3.45.05,6.84-.09,10.12-.35,3.28.3,6.45.09,9.46.08,3.01-.43,5.85-.09,8.48-.48,5.25.07,9.62,0,12.69v4.81h-15.58c.09,0-.3-2.19,0-5.84.56-3.65.56-8.77,0-14.61-.26-5.84-.02-12.42,0-18.99-.68-6.57-.63-13.15,0-18.99.43-5.84.44-10.96,0-14.61-.27-3.65.13-5.84,0-5.84-.24,0-1.67,2.7-3.7,6.3-2.33,3.6-4.44,8.11-6.87,11.71-2.11,3.6-3.7,6.3-3.7,6.3Z"/>
        <path class="cls-1" d="M401.34,152.56c.66,1.74.1,3.39-.3,4.94-.21,1.55-.52,3-.84,4.36-1.13,2.71-2.42,5.04-3.44,6.98-2,1.94-3.44,3.49-5.74,4.66-2.58,1.31-5.6,2.14-9.16,2.47-.59.06-1.2.11-1.83.25-1.59.13-2.65.13-3.35-.02-.5-.1-1.02-.14-1.55-.18-2.12-.17-4.39-.52-6.17-1.03-5.34-1.55-9.16-4.66-11.44-9.31-.86-1.75-1.5-3.71-1.93-5.89-.43-2.18-.64-4.58-.64-7.2-.52,0,.64-2.97,0-7.43-.14-2.23-.16-4.83.09-7.62-.18-2.79-.8-5.76-.09-8.73.01-2.97.6-5.95.1-8.73-.15-2.79-.48-5.39-.1-7.62.03-4.46,0-7.43,0-7.43-.44-2.61.25-5.01.74-7.19.25-2.18,1.08-4.14,1.84-5.88,1.31-1.74,2.16-3.27,3.22-4.57,1.28-1.31,3.02-2.4,4.51-3.27,1.92-.87,3.76-1.52,5.79-1.96,1.61-.33,3.16-.53,5.06-.61.63-.03,1.3-.04,2.03-.04.64-.01,1.28.01,1.9.04,1.86.08,3.59.29,5.2.61.54.11,1.09.23,1.63.35,2.25.17,4.38.17,5.72,2.52.49.36.96.73,1.43,1.12.93.77,1.82,1.65,2.76,2.61,1.31,1.94,2.26,4.26,3.44,6.97,1.22,1.35-.09,2.81.8,4.36-.16,1.55.5,3.19.34,4.94.44,0-.08,2.97,0,7.43.06,2.23.2,4.83-.13,7.62.98,1.39-.08,2.83-.06,4.3.43,1.46.5,2.95.19,4.44.12,1.49,1.13,2.97.52,4.44-.71,1.46-.25,2.9.07,4.3-.98,2.79.57,5.39-.6,7.62.36,4.46.8,7.43,0,7.43ZM385.19,105c-.16-2.51-.45-4.4-1.76-5.67-.23-.32-.54-.59-.91-.83s-.78-.44-1.25-.78c-2.83-.16-.7-3.35-2.83-4.42,1.06,2.13-1.06,3.19-2.21,3.8-.77.54-1.4.75-1.94,1.05s-1,.68-1.46,1.16c-1.36,1.27-1.33,3.16-1.74,5.69.15,0-.35,2.97,0,7.43-.4,2.23-.03,4.83-.24,7.62-.06,2.79.07,5.76.24,8.73.27,2.97.37,5.95.34,8.73s-.16,5.39-.34,7.62c.25,4.46.4,7.43,0,7.43-.25,2.53.71,4.43,1.76,5.69.41.47,1.03.86,1.73,1.16,1.73,2.02,2.8,4.15,3.86,6.28,2.13-1.06,1.06-4.26,2.93-5.74.46-.44.87-.63,1.21-.87s.63-.51.84-.83c1.26-1.27,1.75-3.16,1.77-5.69-.21,0-.09-2.97,0-7.43.16-2.23.18-4.83.15-7.62.24-2.79.07-5.76-.15-8.73.71-2.97.59-5.95-.31-8.73-.04-2.79.02-5.39.31-7.62-.16-4.46.46-7.43,0-7.43Z"/>
        <path class="cls-1" d="M444.1,141.72s1.86,3.62,4.34,8.45c2.39,4.83,5.65,10.86,8.05,15.69,2.48,4.83,4.34,8.45,4.34,8.45h-17.7l-14.39-29.68h-2.23v29.68h-16.15v-4.81c0-3.06.4-7.44,0-12.69.4-1.31.34-2.68.2-4.09-.13-1.42-.33-2.88-.2-4.38-.57-1.5-.6-3.05-.52-4.63-.26-1.58.43-3.19.52-4.83.44-1.64.28-3.31.01-5,.18-1.69.5-3.4.07-5.12.23-1.72-.83-3.46-.35-5.2.52-1.74-.14-3.49.27-5.24.06-1.75,1.5-3.5.18-5.24-.8-1.74,1.23-3.48-.05-5.2.26-1.72-.49-3.43.21-5.12-.79-1.69.47-3.36-.34-5,1.03-1.64-.27-3.25.11-4.83.15-1.58-.18-3.12-.09-4.63.37-1.5.57-2.97.32-4.38-.13-1.42.01-2.78-.34-4.09.51-2.62.76-5.03-.01-7.16.62-2.13.2-3.99.01-5.52-.31-3.06.43-4.81,0-4.81h13.23c.49.02.98.04,1.47.08,2.34,3.23,5.54,2.16,7.17.23,1-.29,1.65-.31,1.65-.31,4.78.01,8.77.89,11.96,2.65,3.19,1.75,5.58,4.37,7.17,7.86,1.77,3.49,2.45,7.85,2.39,13.07.6,0,.35,3.91,0,9.12.6,5.21-.33,11.72,0,16.93.35,5.21.19,9.12,0,9.12-.27,3.3-.15,6.26-1.26,8.89-.89,2.63-2.3,4.93-3.77,6.89-2.03,1.96-3.77,3.59-6.28,4.88ZM426.52,78.24v25.49c-.22,6.37.32,12.74,0,17.52.17,4.78,0,7.96,0,7.96h3.71c2.24,0,3.79-.15,4.62-.46,2.93-1.18,4.4-3.56,4.4-7.14v-35.73c0-5.1-2.34-7.65-7.02-7.65h-5.71Z"/>
        <path class="cls-1" d="M507.87,152.56c.16,2.61,0,5.01-.43,7.19-.84,2.18-.77,4.14-2.15,5.88-1.01,1.74-1.76,3.27-3.01,4.58-1.24,1.31-2.77,2.4-4.74,3.28-3.44,1.75-7.74,2.63-12.91,2.64-5.15,0-9.44-.87-12.88-2.62-3.43-1.75-6.01-4.37-7.72-7.86-2.01-3.49-2.18-7.86-2.57-13.1.18,0,.35-2.74,0-7.12.13-4.38-.05-10.41,0-16.99.02-6.58.17-13.7,0-20.28.44-6.58-.18-12.6,0-16.99-.06-4.38-.59-7.12,0-7.12.62-5.23,1.13-9.58,2.57-13.07,1.72-3.48,4.29-6.1,7.72-7.84,3-1.52,6.67-2.38,10.98-2.57.62-.03,1.25-.04,1.89-.05q1.33-.24,2.51.08c.81.05,1.6.12,2.37.22,3.06.39,5.74,1.16,8.03,2.32.57.29,1.12.61,1.65.96,1.67,2.57,2.74,5.76,6.09,6.91.4.41.68.85.89,1.32.63,1.39.61,2.9,1.05,4.53.64,2.18.23,4.57.65,7.19.77,0,1.35,2.74,0,7.12-.44,2.19.17,4.79,0,7.67-.05,2.88-.2,6.03,0,9.32.35,3.29-.19,6.71-.16,10.14.4,3.42.32,6.85.16,10.14-.2,3.29.66,6.44-.05,9.32-.39,2.88-.19,5.48.05,7.67.66,4.38,1.01,7.12,0,7.12ZM491.72,84.06c0-2.51-.59-4.4-1.76-5.67-.39-.42-.85-.77-1.38-1.12-.49-2.08-1.55-4.21-3.68-4.21-1.06,1.06-1.06,2.13-2.39,3.46-.7.26-1.29.5-1.8.78-2.06,1.12-3.09,3.37-3.09,6.75v68.5c0,4.56,1.9,7.06,5.69,7.52.21.03.43.01.63-.09.96-2.81,3.09.38,5.23-1.05.28-.2.54-.43.78-.68,1.18-1.27,1.77-3.16,1.77-5.69v-7.12c.85-4.38-.1-10.41,0-16.99-.4-6.58.62-13.7,0-20.28v-24.11Z"/>
        <g>
          <polygon class="cls-1" points="139.11 9.14 129.35 32.39 119.87 9.14 105.42 9.14 122.26 48.97 135.47 48.97 152.31 9.14 139.11 9.14"/>
          <path class="cls-1" d="M166.42,9.14l-17.41,39.83h13.66l2.67-6.94h15.15l2.67,6.94h13.88l-17.41-39.83h-13.2ZM169.05,32.36l3.86-10.03,3.86,10.03h-7.71Z"/>
          <polygon class="cls-1" points="213.76 9.14 200.33 9.14 200.33 48.97 231.74 48.97 231.74 38.56 213.76 38.56 213.76 9.14"/>
          <polygon class="cls-1" points="250.01 9.14 236.58 9.14 236.58 48.97 267.99 48.97 267.99 38.56 250.01 38.56 250.01 9.14"/>
          <polygon class="cls-1" points="286.03 33.61 302.87 33.61 302.87 23.94 286.03 23.94 286.03 19.27 305.2 19.27 305.2 9.14 272.83 9.14 272.83 48.97 305.94 48.97 305.94 38.85 286.03 38.85 286.03 33.61"/>
          <path class="cls-1" d="M361.82,11.56c-3.38-1.61-7.28-2.42-11.72-2.42h-19.63v39.83h19.63c4.44,0,8.35-.81,11.72-2.42,3.38-1.61,6.01-3.91,7.91-6.89,1.9-2.98,2.85-6.53,2.85-10.67s-.95-7.62-2.85-10.58c-1.9-2.96-4.53-5.24-7.91-6.86ZM357.84,34.21c-.8,1.42-1.91,2.5-3.33,3.22-1.42.72-3.08,1.08-4.98,1.08h-5.63v-18.89h5.63c1.9,0,3.56.36,4.98,1.08,1.42.72,2.53,1.78,3.33,3.19.8,1.4,1.19,3.11,1.19,5.12s-.4,3.78-1.19,5.21Z"/>
          <polygon class="cls-1" points="391.81 38.85 391.81 33.61 408.65 33.61 408.65 23.94 391.81 23.94 391.81 19.27 410.98 19.27 410.98 9.14 378.61 9.14 378.61 48.97 411.72 48.97 411.72 38.85 391.81 38.85"/>
        </g>
        <path class="cls-1" d="M170.56,165.28l-9.03-9.03s-3.97,3.97-5.96,5.96c-.22.22-.42.42-.58.58-1.72,1.54-1.72-4.14-4.05-3.01l-.44-.44c-1.61-1.61-3.09-3.09-3.09-3.09l-7.06,7.06-7.06-7.06-9.03,9.03,2.47,2.47c.13.13.26.26.4.38,1.55-.02,3.44,1.87,3.31,3.32l.39.39c1.4,1.4,2.47,2.47,2.47,2.47,0,0,1.23-1.23,2.66-2.66.14-.14.29-.29.44-.42-.14-1.23,1.75-3.12,3.45-3.45.32-.33.52-.53.52-.53l7.06,7.06,7.06-7.06,7.06,7.06,9.03-9.03Z"/>
        <path class="cls-1" d="M401.49,71.4l-2.47-2.47c-.13-.13-.26-.26-.39-.39-3.06,1.14-1.17-4.54-4.08-4.08-.12-.12-.24-.24-.35-.35-1.03-1.03-1.74-1.74-1.74-1.74l-7.06,7.06-7.06-7.06-7.06,7.06-1.45-1.45-.38-.38c-.38-1.71-2.27-3.6-3.4-3.42-.13-.12-.26-.24-.38-.36-.85-.85-1.45-1.45-1.45-1.45l-9.03,9.03,9.03,9.03,7.06-7.06s.99.99,2.23,2.23c.14.13.28.27.43.38-1.08,1.26,4.59,1.26,3.3,3.34.22.22.42.42.58.58l.52.52,7.06-7.06,7.06,7.06,9.03-9.03Z"/>
      </g>
    </g>
  </g>
</svg>