<?xml version="1.0" encoding="UTF-8"?>
<svg xmlns="http://www.w3.org/2000/svg" version="1.1" viewBox="0 0 437.2 185.45">
  <defs>
    <style>
      .cls-1 {
        fill: #206c60;
      }
    </style>
  </defs>
  <!-- Generator: Adobe Illustrator 28.6.0, SVG Export Plug-In . SVG Version: 1.2.0 Build 709)  -->
  <g>
    <g id="Capa_1">
      <g>
        <g>
          <path class="cls-1" d="M109.74,50.18c-3.24-1.69-5.78-4.06-7.62-7.1-1.84-3.04-2.76-6.49-2.76-10.35s.92-7.31,2.76-10.35c1.84-3.04,4.38-5.4,7.62-7.1,3.24-1.69,6.88-2.54,10.92-2.54,3.71,0,7.02.66,9.94,1.97,2.91,1.31,5.31,3.2,7.21,5.68l-8.13,7.26c-2.37-2.98-5.15-4.48-8.35-4.48-2.69,0-4.86.86-6.5,2.59-1.64,1.73-2.46,4.05-2.46,6.96s.82,5.23,2.46,6.96c1.64,1.73,3.8,2.59,6.5,2.59,3.2,0,5.99-1.49,8.35-4.48l8.13,7.26c-1.89,2.47-4.3,4.37-7.21,5.68-2.91,1.31-6.22,1.97-9.94,1.97-4.04,0-7.68-.85-10.92-2.54Z"/>
          <path class="cls-1" d="M142.61,13.63h12.88v38.22h-12.88V13.63Z"/>
          <path class="cls-1" d="M167.39,47.97c-3.28-3.17-4.91-7.61-4.91-13.32V13.63h12.88v20.64c0,2.8.5,4.84,1.5,6.11,1,1.27,2.45,1.91,4.34,1.91s3.34-.64,4.34-1.91c1-1.27,1.5-3.31,1.5-6.11V13.63h12.67v21.02c0,5.72-1.64,10.15-4.91,13.32-3.28,3.17-7.84,4.75-13.7,4.75s-10.43-1.58-13.7-4.75Z"/>
          <path class="cls-1" d="M206.7,13.63h18.83c4.26,0,8.02.77,11.27,2.32,3.26,1.55,5.79,3.76,7.59,6.63,1.8,2.88,2.7,6.26,2.7,10.15s-.9,7.28-2.7,10.15-4.33,5.09-7.59,6.63c-3.26,1.55-7.02,2.32-11.27,2.32h-18.83V13.63ZM224.98,41.8c2.77,0,4.98-.79,6.63-2.38,1.66-1.58,2.48-3.81,2.48-6.69s-.83-5.1-2.48-6.69c-1.66-1.58-3.87-2.38-6.63-2.38h-5.4v18.12h5.4Z"/>
          <path class="cls-1" d="M278.38,45.18h-14.52l-2.57,6.66h-13.1l16.71-38.22h12.66l16.71,38.22h-13.32l-2.57-6.66ZM274.83,35.9l-3.71-9.61-3.71,9.61h7.42Z"/>
          <path class="cls-1" d="M297.43,13.63h18.84c4.26,0,8.02.77,11.27,2.32,3.26,1.55,5.79,3.76,7.59,6.63,1.8,2.88,2.7,6.26,2.7,10.15s-.9,7.28-2.7,10.15c-1.8,2.88-4.33,5.09-7.59,6.63-3.26,1.55-7.02,2.32-11.27,2.32h-18.84V13.63ZM315.72,41.8c2.77,0,4.98-.79,6.63-2.38,1.66-1.58,2.48-3.81,2.48-6.69s-.83-5.1-2.48-6.69c-1.66-1.58-3.87-2.38-6.63-2.38h-5.41v18.12h5.41Z"/>
        </g>
        <g>
          <path class="cls-1" d="M21.9,150.61h.77c-.12-.2-.22-.4-.25-.67-.18.04-.46.41-.53.67Z"/>
          <path class="cls-1" d="M59.57,70.12c1.97-.69-.79-5.04,1.04-6.37.04,4.1-.1,6.97.5,9.78v-10.31h-5.41s.01.06.02.08c-.23.1-.46.2-.52.45-.4-.15-.49-.34-.45-.53h-2.55c.32,1.14,1.35,2.2-.35,2.58.91.37.6.63,1.03,1.6.55.1.49-.33.52-.68.3.56,1.04.76,1.03,1.59,1-.62-.57-2.39-.77-3.41.25.61,1.39.67,1.03-.46.37.02.73.04.77-.23.66.4.53,1.5.77,2.28-.45-.06-.59-.39-.52-.91-1.1.55,1.1,1.27,0,1.82.23.62.58-.69,1.03,0-1.43,1.67-1.19,2.72-.78,5.46-1.13-.17-1.34.49-1.55,1.14-.82.19-.8-.36-1.29-.46,2.2-.89.03-1.94,1.81-2.5-.04-.65-.47-.95-.51-1.6-.23.06-.69,1.01-.26.91-.4.47-1.04-.59-.51-1.14-.88,0,.03.59-1.03.68-.05.5.21.73.77.68-.93.66-1.92-.57-2.32-1.14-.19-.62.51-.46.52-.91-.79-.41-1-4.84.27-5.23,0-.03-.02-.05-.02-.08h-2.76c.13.05.27.08.46.08.32,1.5-.17,2.01.25,2.96.25.42-1.48.14-.52.46-.44.86-.42-.49-.77-.46-.7.53.33,1.45,1.03.91-.31,1.5.95,4.25-.52,5.23.38-.36.53-1.81-.51-1.59.48-.73-.56-1.39.52-1.59-.14-.86-.81-1.26-1.8-1.37.4-.8-.14-1.02.26-1.82,1.76.38.37-1.9,1.13-2.8h-3.01v43.54h-13.56v-43.54h-15.54v53.24c.07-.34.46-.8.24-1.34,1.13.13.51,1.32.32,1.82-.38-.07-.53-.18-.56-.32v28.04c0,.18,0,.34,0,.49v1.12c.03.15.08.31.18.48.08.11-.02.18-.18.21v2.96c.04.23.07.46.09.68h2.38c-.29-.24-.53-.49-.69-.67-.23-.62.64-.46.64-.91-.98-.41-1.25-4.84.33-5.23-.15-.78-1.6-1.13,0-1.37-.09-.47-.86-.45-1.29-.68.23-.75.52-1.46.65-2.28-1.86-1.58,1.83-4.18-.63-6.15.98-.53.63-1.29,0-2.05,1.06-.92,1.36,1.31,1.93.68.9,0-.77.62.64.46-2.01,1.84.26,5.11-1.62,6.14,1.9,1.31.7,2.81.63,4.55-.05,1.35,2.16,2.74-.33,3.19,1.13.37.75.63,1.28,1.6.69.1.61-.33.65-.68.38.56,1.29.76,1.28,1.59,1.25-.62-.71-2.39-.96-3.41.32.61,1.73.67,1.29-.46.46.02.91.04.96-.23.83.4.66,1.5.96,2.28-.56-.06-.73-.39-.64-.91-1.37.55,1.37,1.27,0,1.82.29.62.72-.69,1.29,0-1.03.96-1.35,1.72-1.35,2.71h4.93c2.35-.74-1.02-5.03,1.25-6.35.03,2.49-.02,4.51.1,6.35h1.75v-28.5h13.56v28.5h15.54v-77.08c-1.76-.54-.58-2.26-1.54-3.41ZM18.03,97.82c1.31-.21,1.12,1.23.64,1.59.04.58,1.08.45,1.93.46-.4,1.43-1.84-.28-2.89.68-.06-.19.13-.21.32-.23.08-.86-.82-1.56,0-2.5ZM19.6,115.12c-.37.07-1.13.3,0,.68-1.12.82-.07,1.86-.65,2.96-1.44-2.42-.32-4.93-.63-7.51,2.04-.08-.43,2.09,1.28,2.51-.62-.09-1,.97,0,1.37ZM18.34,105.56c2.36,1.62-.22,2.53.63,5.46-1.68-.98-.52-3.91-.63-5.46ZM18.02,100.78c2.03-.13.53.82,1.28,1.6-.75.15-1.11.58-1.61.91-.24-.48.29-1.26.33-2.5ZM19.57,130.83c-1.38-.21-.49-.72-.96-1.37,1.16-.13.98.67.96,1.37ZM18.29,129.23c-.25-.33-.02-1.63.78-1.97.02-.05.04-.1.06-.16-.41-.26-.73-.58-1.48-.6.37-1.57,1.12-5.02.33-6.15.68-.62.55-.95,1.29-1.14-.73.45.89,1.66-.65,1.82.64,1.68.98,4.42.5,6.06.04.03.08.06.13.08-.07.01-.12.05-.19.07-.04.13-.08.27-.14.38.28.33.48.72,1.29.68-.87.15-.9.88-1.93.91ZM20.87,127.87c-1.47-.18-.67-1.37-.64-1.82.42.08.5.4.96.46.23.7-.56.67-.32,1.36ZM19.96,96.45h1.93c-.06.34-2.11.91-1.93,0ZM28.59,126.51c.61,1.51.59,2.61.31,3.64-.83-1.11-.74-2.49-.31-3.64ZM23.12,125.14c1.51.41-.62,1.33,0,1.59-1.15.72-.28-1.26,0-1.59ZM23.4,144.26c-1.59-.48.81-1.35-.64-1.59.73-.72,1.18.67,1.28,1.14-.29.1-.57.2-.64.45ZM22.46,135.84c.29-.63,1.22-.8,2.25-.91.15.94-1.5.6-2.25.91ZM25.75,96.23v.91c-1.24.18-1.24-1.09,0-.91ZM26.31,136.52c-.84.07-1.05-.32-.96-.91.85-.07,1.05.32.96.91ZM28.89,135.61c-.69-.18-.96-1.39.32-1.36.04.56.05,1.1-.32,1.36ZM28.89,133.33c-.78-1.01-.19-2.1-.64-2.96,2.11.25.59,2.19.64,2.96ZM49.5,76.26c-.89-.75-.2-2.27-.25-3.41.63.45.27,2.46.25,3.41ZM51.31,72.16h-.52c-.13-.18-.27-.37-.26-.68h1.03s0-.45,0-.45c.85.34-.54.56-.26,1.14ZM52.34,72.39c-.34-.57,1.02-.71.26-.91.22-.67.83.14,1.29,0,.05.19-.1.22-.26.23.12.2.23.41.51.46-.23.63-1.05-.53-.77.68-.51,0-.33-.62-1.03-.46ZM53.37,74.9c-.21-.12-.42-.24-.77-.23.18-.18.4-.62,0-.68-.05-.19.1-.21.26-.23.18,0,.35,0,.52,0-.15.73.48.7,0,1.14ZM55.18,74.44c-.34-.15-.48-.49-.51-.91.22-.04.24.09.26.23.37-.05.09-.68.52-.68.94-.22.22,1.02,1.03.91.11.63-1.4-.18-1.29.45Z"/>
          <path class="cls-1" d="M21.46,149.72c-1.1,0,.04.59-1.29.68,0,.08,0,.15.02.21h1.13c-.15-.27-.17-.64.14-.89Z"/>
        </g>
        <path class="cls-1" d="M189.22,74.93c-.63-.08-1.28-.21-1.85-.18.27-.38,1.03-.45,1.85-.43v-3.68c-.22-.11-.47-.13-.52.19-.22.06-.25-.12-.27-.3,0-.2,0-.4,0-.6.42.09.63-.05.79-.14v-1.95c-.18.39-.56.54-1.05.58-.05-.25.11-.29.27-.3-.06-.44-.79-.11-.8-.6-.26-1.09,1.19-.25,1.06-1.2.74-.13-.19,1.61.52,1.51v-4.6h-28.6s-.09.02-.13.04c0-.01,0-.02,0-.04h-2.09c-.34.03-.68.03-1.02,0h-12.81v8.66c.72.03,1.51-.25,2.34.1-.77.37-1.55.55-2.34.64v1.1c.07.02.15.05.2.07-.05.22-.12.34-.2.42v4.34h14.55v3.03c.49-.54,1.06-.08,1.35-.23.67.57-.21,1.09-.8.6.17.31.61.31.53.9.66.05.82-.47,1.33-.6-1.09-.59.07-1.54.8-1.81-.74.45.46,1.23-.27,1.51.52,1,1.81.87,2.39.6.25,1.51-3.78,1-5.32.29.01-.23.02-.45-.02-.62v3.31c.4.07.85.07,1.35.03-.06.45-.72.71-1.35.68v84.7h5.41c-.02-.5-.26-.94-.93-.8.57-.85-.65-1.62.6-1.86-.17-1.01-.94-1.48-2.11-1.6.47-.94-.16-1.19.31-2.13,2.19.47.21-2.57,1.51-3.46.24.14.49.28.9.27.37,1.75-.2,2.35.3,3.46.29.49-1.73.16-.6.53-.52,1.01-.5-.58-.9-.53-.82.62.39,1.69,1.2,1.07-.28,1.36.53,3.59.12,5.06h1.08s0,0,0,0h1.2s0-.53,0-.53c.48.19.35.35.13.53h1.08s0,0,0,0c.22-.66.76-.09,1.25,0h.24s.01,0,.02,0c0,0,0,0,0,0h.4c.11-.2.34-.38.81-.53-.05-.75-.55-1.11-.6-1.87-.27.07-.8,1.18-.3,1.07-.47.55-1.22-.69-.6-1.33-1.03,0,.04.69-1.21.8-.06.58.24.85.9.8-1.09.77-2.25-.67-2.71-1.33-.22-.72.6-.53.6-1.06-.92-.48-1.17-5.66.31-6.12-.14-.92-1.5-1.32,0-1.6-.08-.55-.81-.53-1.21-.8.21-.88.49-1.7.61-2.66-1.74-1.85,1.71-4.88-.59-7.19.91-.62.59-1.51,0-2.39.99-1.08,1.28,1.53,1.81.8.85,0-.72.73.6.53-1.88,2.16.25,5.97-1.52,7.18,1.78,1.53.66,3.28.6,5.32-.05,1.58,2.03,3.2-.31,3.72,1.06.43.7.74,1.2,1.87.64.12.58-.38.61-.8.36.66,1.21.88,1.2,1.86,1.17-.72-.67-2.79-.9-3.99.3.72,1.63.78,1.21-.53.43.02.85.05.9-.27.78.47.62,1.75.9,2.66-.53-.06-.69-.46-.6-1.06-1.28.64,1.28,1.49,0,2.13.27.73.68-.81,1.21,0-1.36,1.58-1.42,2.71-1.14,4.79h2.55v-92.41h14.55v-3.6ZM157.56,70.17c-.21,1.38-1.6.63-2.13.6.09-.39.47-.47.53-.9.81-.22.78.52,1.6.3ZM156.23,68.06c.84,1.08-1.47.26-1.86,0,.48-1.42,1.55.58,1.86,0ZM156.85,71.85c-.06-.02-.12-.04-.18-.05-.3.39-.68.69-.7,1.38-1.83-.35-5.87-1.05-7.19-.31-.73-.63-1.11-.52-1.33-1.21.52.69,1.94-.84,2.13.61,1.96-.6,5.16-.92,7.09-.47.03-.04.07-.08.1-.12.02.06.06.12.09.17.15.04.31.08.45.13.39-.26.84-.45.8-1.21.17.81,1.03.85,1.06,1.81-.39.24-1.9.02-2.31-.73ZM158.62,76.21c-.71,0-.58-.95-1.33-.91.61-.52,1.56-.64,2.66-.6-.33.63-1.04.83-1.33,1.5ZM159.42,72.29c-.16-1.08.79-.92,1.6-.9-.25,1.3-.84.45-1.6.9ZM176.19,67.19c.12.27.23.54.53.6-.56,1.49-1.57-.76-1.86.6-.84-.69.78-1.11,1.33-1.2ZM167.68,65.07c.08.79-.37.99-1.07.9-.08-.79.37-.99,1.07-.9ZM166.88,68.68c-.74-.27-.94-1.15-1.06-2.11,1.1-.14.71,1.41,1.06,2.11ZM163.96,142.46c.52.61.64,1.56.6,2.66-.63-.33-.83-1.04-1.5-1.33,0-.71.95-.58.91-1.33ZM162.2,110.52c.53.25,1.62,0,1.51.8-.48.02-1.15-.13-1.21.27-.41-.08-.25-.67-.3-1.06ZM162.42,158.42c.92.08,2.06-.04,2.11.8-.99-.01-2.13.11-2.11-.8ZM164.24,150.44c-.49.07-.52-.25-.9-.27.26-1.44.54-2.13.61-3.73,1.18.72.36,2.79.29,3.99ZM161.28,75.31c.72-1.18,2.79-.36,3.99-.29.07.49-.25.52-.27.9-1.44-.26-2.13-.54-3.73-.61ZM165.48,129.95c-1.21-.28.04-1.08-.3-2.13,1.06.15.48,1.54.3,2.13ZM168.83,109.99c-.37,1.67-1.73-.33-2.71.8-.06-.23.12-.25.3-.26.08-1.01-.77-1.82,0-2.93,1.23-.25,1.05,1.44.6,1.86.03.68,1.01.53,1.81.53ZM167.9,127.82c-.35.08-1.06.35,0,.8-1.05.95-.07,2.18-.61,3.46-1.35-2.83-.3-5.76-.59-8.78,1.91-.09-.4,2.44,1.2,2.93-.58-.1-.94,1.14,0,1.6ZM166.71,116.65c2.21,1.89-.21,2.96.59,6.39-1.57-1.14-.49-4.57-.59-6.39ZM166.42,111.06c1.9-.15.5.96,1.2,1.86-.7.18-1.04.68-1.51,1.06-.23-.56.27-1.47.3-2.93ZM167.87,146.19c-1.3-.25-.46-.84-.9-1.6,1.08-.16.92.79.9,1.6ZM166.67,144.32c-.24-.39-.02-1.9.73-2.31.02-.06.04-.12.05-.18-.39-.3-.69-.68-1.38-.7.35-1.83,1.05-5.87.31-7.19.63-.73.52-1.11,1.21-1.33-.69.52.84,1.94-.61,2.13.6,1.96.92,5.16.47,7.09.04.03.08.07.12.1-.06.02-.12.06-.17.09-.04.15-.08.31-.13.45.26.39.45.84,1.21.8-.81.17-.85,1.03-1.81,1.06ZM169.08,142.73c-1.38-.21-.63-1.6-.6-2.13.39.09.47.47.9.53.22.81-.52.78-.3,1.6ZM168.23,106h1.81c-.06.4-1.98,1.07-1.81,0ZM171.46,161.89c-1.49-.56.76-1.57-.6-1.86.69-.84,1.11.78,1.2,1.33-.27.12-.54.23-.6.53ZM170.57,152.04c.27-.74,1.15-.94,2.11-1.06.14,1.1-1.41.71-2.11,1.06ZM171.19,141.4c-1.08.84-.26-1.47,0-1.86,1.42.48-.58,1.55,0,1.86ZM173.66,105.74v1.06c-1.16.21-1.16-1.28,0-1.06ZM174.19,152.84c-.79.08-.99-.37-.9-1.07.79-.08.99.37.9,1.07ZM169.53,82.86c.42-1.09,3.84-.6,4.79-.3-1.07.41-4.08.21-4.79.3ZM173.26,76.83c.08-.92-.04-2.06.8-2.11-.01.99.11,2.13-.8,2.11ZM174.59,71.71c-.55.08-.53.81-.8,1.21-.88-.21-1.7-.49-2.66-.61-1.85,1.74-4.88-1.71-7.19.59-.62-.91-1.51-.59-2.39,0-1.08-.99,1.53-1.28.8-1.81,0-.85.73.72.53-.6,2.16,1.88,5.97-.25,7.18,1.52,1.53-1.78,3.28-.66,5.32-.6,1.58.05,3.2-2.03,3.72.31.43-1.06.74-.7,1.87-1.2.12-.64-.38-.58-.8-.61.66-.36.88-1.21,1.86-1.2-.72-1.17-2.79.67-3.99.9.72-.3.78-1.63-.53-1.21.02-.43.05-.85-.27-.9.47-.78,1.75-.62,2.66-.9-.06.53-.46.69-1.06.6.64,1.28,1.49-1.28,2.13,0,.73-.27-.81-.68,0-1.21,1.95,1.67,3.18,1.39,6.39.92-.19,1.32.57,1.56,1.33,1.81.23.96-.42.93-.53,1.51-1.04-2.58-2.27-.03-2.92-2.11-.75.05-1.11.55-1.87.6.07.27,1.18.8,1.07.3.55.47-.69,1.22-1.33.6,0,1.03.69-.04.8,1.21.58.06.85-.24.8-.9.77,1.09-.67,2.25-1.33,2.71-.72.22-.53-.6-1.06-.6-.48.92-5.66,1.17-6.12-.31-.92.14-1.32,1.5-1.6,0ZM185.24,72.03c.4-1,.65.63,1.33.3v.6c-.21.16-.43.31-.8.3v-1.2s-.53,0-.53,0ZM184.97,75.64c-.85-.57-1.62.65-1.86-.6-1.01.17-1.48.94-1.6,2.11-.94-.47-1.19.16-2.13-.31.47-2.19-2.57-.21-3.46-1.51.14-.24.28-.49.27-.9,1.75-.37,2.35.2,3.46-.3.49-.29.16,1.73.53.6,1.01.52-.58.5-.53.9.62.82,1.69-.39,1.07-1.2,1.75.36,4.97-1.11,6.12.61-.42-.44-2.11-.63-1.86.6ZM186.83,71.13c-.67.4-.83-1.19-1.06-.3-.78-.26.16-.97,0-1.5.23-.06.25.12.27.3.24-.14.48-.26.53-.6.73.27-.62,1.22.8.9,0,.6-.73.38-.53,1.21Z"/>
        <path class="cls-1" d="M215.8,79.39c-14.86,0-22.29,7.54-22.29,22.62v48c0,7.12,1.67,12.54,4.97,16.31-.14-1.05.29-2.38.24-3.46.76.55.46,2.77.37,4.16,3.72,3.78,9.29,5.67,16.72,5.67,14.9-.04,22.35-7.6,22.35-22.68v-48c0-15.08-7.45-22.62-22.35-22.62ZM209.33,85.39v1.23c-1.35.24-1.34-1.48,0-1.23ZM206.47,124.59c1.64.56-.67,1.8,0,2.16-1.25.98-.3-1.7,0-2.16ZM208.19,137.87c.16,1.28-1.64.82-2.45,1.23.32-.85,1.33-1.09,2.45-1.23ZM206.08,148.36c.8-.98,1.28.9,1.39,1.55-.31.14-.62.27-.7.62-1.73-.65.88-1.82-.69-2.16ZM205.13,85.69c-.07.46-2.29,1.24-2.1,0h2.1ZM204.01,128.29c-1.6-.25-.73-1.86-.69-2.47.46.11.55.54,1.05.62.25.94-.6.91-.35,1.85ZM201.56,130.45c1.26-.18,1.06.91,1.05,1.85-1.5-.29-.53-.97-1.05-1.85ZM201.21,130.14c-.27-.45-.02-2.21.85-2.68.02-.07.04-.14.06-.21-.45-.35-.8-.78-1.61-.81.4-2.13,1.22-6.81.36-8.34.74-.85.6-1.29,1.4-1.54-.8.61.97,2.26-.7,2.47.69,2.28,1.06,5.99.55,8.22.05.04.09.08.14.11-.07.02-.14.07-.2.1-.05.18-.09.36-.15.52.31.45.52.98,1.4.93-.94.2-.98,1.19-2.1,1.23ZM201.26,98.04c2.56,2.19-.24,3.44.69,7.41-1.82-1.33-.56-5.3-.69-7.41ZM202.64,111.01c-.4.09-1.23.41,0,.93-1.22,1.11-.08,2.52-.71,4.01-1.57-3.28-.35-6.68-.68-10.19,2.22-.1-.46,2.83,1.39,3.4-.68-.12-1.09,1.32,0,1.85ZM200.93,87.54c1.42-.29,1.21,1.67.7,2.16.04.79,1.17.61,2.1.62-.43,1.94-2-.38-3.15.92-.07-.26.14-.29.35-.31.09-1.17-.89-2.12,0-3.4ZM200.92,91.56c2.2-.18.58,1.12,1.4,2.16-.81.21-1.2.79-1.75,1.23-.26-.64.31-1.7.35-3.39ZM198.4,137.24c-.57.09-.6-.29-1.05-.31.3-1.66.62-2.47.71-4.32,1.37.83.42,3.23.34,4.63ZM198.74,147.43c-1.15-.01-2.47.12-2.45-.93,1.06.09,2.39-.05,2.45.93ZM198.07,127.98c.6.7.75,1.81.69,3.09-.73-.38-.96-1.21-1.75-1.54,0-.83,1.11-.67,1.05-1.54ZM197.78,91.86c-.55.02-1.33-.15-1.4.31-.47-.1-.29-.77-.35-1.24.61.29,1.88,0,1.75.93ZM198.72,154.53c-.6,1.17-.57-.67-1.05-.62-.95.72.45,1.96,1.4,1.24-.42,2.04,1.29,5.77-.71,7.1.52-.49.73-2.45-.69-2.16.66-.98-.75-1.88.7-2.16-.19-1.17-1.09-1.71-2.45-1.86.54-1.09-.18-1.38.36-2.47,2.54.55.24-2.98,1.76-4.01.28.16.57.32,1.05.31.43,2.03-.23,2.73.34,4.01.33.57-2,.19-.7.62ZM199.84,113.47c-1.4-.32.05-1.25-.35-2.47,1.23.17.56,1.79.35,2.47ZM201.51,161.94h-.7c-.18-.25-.36-.5-.35-.93h1.4s0-.61,0-.61c1.16.46-.73.75-.35,1.54ZM202.91,162.25c-.46-.77,1.38-.96.35-1.24.3-.9,1.13.19,1.75,0,.06.26-.14.29-.35.31.16.28.31.55.7.62-.32.85-1.42-.72-1.05.93-.7,0-.45-.84-1.4-.62ZM204.3,165.65c-.28-.16-.57-.32-1.05-.31.24-.25.54-.85,0-.93-.07-.26.14-.29.35-.31.24,0,.47,0,.7,0-.21.99.65.96,0,1.55ZM206.75,165.03c-.47-.2-.65-.66-.7-1.24.3-.06.33.12.35.31.51-.07.12-.92.7-.92,1.27-.3.29,1.39,1.4,1.23.16.86-1.9-.24-1.75.62ZM207.8,162.87c-1.53-.23-1.81.66-2.1,1.54-1.12.26-1.08-.49-1.75-.62,2.99-1.2.04-2.63,2.45-3.39-.06-.88-.64-1.29-.7-2.16-.32.09-.93,1.37-.35,1.24-.54.63-1.41-.8-.7-1.54-1.2,0,.05.8-1.4.92-.07.67.28.98,1.05.93-1.26.89-2.61-.77-3.15-1.55-.25-.84.7-.62.7-1.23-1.07-.56-1.36-6.56.36-7.1-.16-1.06-1.74-1.54,0-1.85-.1-.64-.93-.62-1.4-.93.25-1.02.56-1.97.7-3.09-2.02-2.14,1.98-5.66-.69-8.34,1.06-.71.69-1.75,0-2.78,1.15-1.25,1.48,1.78,2.1.93.98,0-.83.84.7.62-2.19,2.5.29,6.93-1.76,8.33,2.06,1.78.77,3.81.69,6.17-.06,1.83,2.35,3.72-.36,4.32,1.23.5.81.86,1.39,2.17.75.14.67-.44.7-.93.41.77,1.4,1.03,1.4,2.16,1.36-.84-.78-3.24-1.04-4.63.35.83,1.89.91,1.4-.62.5.03.99.05,1.05-.31.9.54.72,2.03,1.04,3.09-.61-.07-.8-.53-.7-1.23-1.49.74,1.49,1.72,0,2.47.32.84.78-.94,1.4,0-1.94,2.26-1.61,3.69-1.06,7.41ZM222.61,150.02c0,4.87-2.27,7.3-6.81,7.3-.59,0-1.13-.05-1.64-.13.05,2.4.19,4.52.64,6.61-2.39-.72-.79-3.07-2.09-4.63.84-.3,1.04-1.09,1.01-2.09-3.09-.69-4.67-3.03-4.67-7.06v-10.26c-.17-.22-.2-.56-.15-.97.06,0,.1,0,.15,0v-36.77c0-4.87,2.23-7.3,6.7-7.3h.11c4.5.04,6.75,2.47,6.75,7.3v48Z"/>
        <path class="cls-1" d="M288.81,128.62c.06-.43.11-.85.09-1.24.09.07.16.17.22.28.68-2.38,1.03-5.02,1.03-7.94v-33.82c0-15.08-6.9-22.64-20.7-22.68h-22.62v61.73c1.42.24.6,1.78.34,2.44-.13-.02-.24-.05-.34-.08v43.64h2.96s0-.02,0-.03c-1.38-.56-1.77-6.56.47-7.1-.21-1.06-2.26-1.54,0-1.85-.12-.64-1.21-.62-1.82-.93.32-1.02.73-1.97.91-3.09-2.62-2.14,2.58-5.66-.89-8.34,1.38-.71.89-1.75,0-2.78,1.49-1.25,1.93,1.78,2.72.93,1.27,0-1.08.84.9.62-2.84,2.5.37,6.93-2.29,8.33,2.68,1.78.99,3.81.9,6.17-.07,1.83,3.05,3.72-.46,4.32,1.6.5,1.06.86,1.81,2.17.97.14.87-.44.91-.93.54.77,1.82,1.03,1.81,2.16,1.76-.84-1.01-3.24-1.35-4.63.45.83,2.45.91,1.82-.62.64.03,1.29.05,1.36-.31,1.17.54.94,2.03,1.36,3.09-.8-.07-1.03-.53-.91-1.23-1.93.74,1.93,1.72,0,2.47.41.84,1.02-.94,1.82,0-.62.56-1.06,1.06-1.36,1.57h4.85v-28.55h.67c.03-.7.19-1.39.44-2.03.32.74.51,1.41.61,2.03h.42l3.94,8.14c.05-.44.1-.88,0-1.21,1.01.68.93,1.85.67,2.6l9.22,19.03h17.02l-16.09-31.35c4.72-2.43,7.89-6.09,9.53-10.97ZM288.25,92.49c.6.7.75,1.81.69,3.09-.73-.38-.96-1.21-1.75-1.54,0-.83,1.11-.67,1.05-1.54ZM288.59,101.75c-.57.09-.6-.29-1.05-.31.3-1.66.62-2.47.71-4.32,1.37.83.42,3.23.34,4.63ZM288.92,111.94c-1.15-.01-2.47.12-2.45-.93,1.06.09,2.39-.05,2.45.93ZM286.46,118.11c2.54.55.24-2.98,1.76-4.01.28.16.57.32,1.05.31.43,2.03-.23,2.73.34,4.01.33.57-2,.19-.7.62-.6,1.17-.57-.67-1.05-.62-.95.72.45,1.96,1.4,1.24-.42,2.04,1.29,5.77-.71,7.1.52-.49.73-2.45-.69-2.16.66-.98-.75-1.88.7-2.16-.19-1.17-1.09-1.71-2.45-1.86.54-1.09-.18-1.38.36-2.47ZM248.58,101.45c1.85-.29,1.58,1.67.9,2.16.05.79,1.52.61,2.72.62-.56,1.94-2.6-.38-4.08.92-.08-.26.18-.29.45-.31.12-1.17-1.16-2.12,0-3.4ZM250.8,124.91c-.52.09-1.59.41,0,.93-1.59,1.11-.1,2.52-.92,4.01-2.03-3.28-.45-6.68-.89-10.19,2.88-.1-.6,2.83,1.81,3.4-.88-.12-1.42,1.32,0,1.85ZM249.01,111.94c3.33,2.19-.31,3.44.89,7.41-2.37-1.33-.73-5.3-.89-7.41ZM248.57,105.46c2.86-.18.75,1.12,1.81,2.16-1.05.21-1.56.79-2.27,1.23-.34-.64.4-1.7.46-3.39ZM250.76,146.21c-1.95-.29-.69-.97-1.36-1.85,1.63-.18,1.38.91,1.36,1.85ZM248.94,144.05c-.36-.45-.03-2.21,1.11-2.68.02-.07.06-.13.08-.21-.58-.35-1.03-.79-2.08-.82.52-2.13,1.58-6.81.47-8.34.95-.85.78-1.29,1.82-1.54-1.03.61,1.26,2.26-.91,2.47.9,2.28,1.38,5.99.71,8.23.06.04.12.07.18.11-.1.02-.18.07-.26.1-.06.18-.12.36-.2.52.4.45.68.98,1.82.93-1.23.2-1.28,1.19-2.73,1.23ZM252.58,142.2c-2.08-.25-.95-1.86-.9-2.47.59.11.71.54,1.36.62.33.94-.79.91-.46,1.85ZM251.31,99.6h2.72c-.09.46-2.97,1.24-2.72,0ZM255.76,138.5c2.13.56-.87,1.8,0,2.16-1.62.98-.39-1.7,0-2.16ZM256.16,164.43c-2.25-.65,1.14-1.82-.9-2.16,1.04-.98,1.66.9,1.81,1.55-.4.14-.81.27-.91.62ZM254.83,153.01c.41-.85,1.73-1.09,3.18-1.23.21,1.28-2.12.82-3.18,1.23ZM259.47,99.29v1.23c-1.75.24-1.75-1.48,0-1.23ZM260.27,153.94c-1.19.09-1.49-.43-1.36-1.24,1.2-.09,1.49.43,1.36,1.24ZM283.3,126.75c.05.76.05,1.49-.35,1.85-1.1-.35-.79-.03-2.1,0-.21.8.14,1.11,1.05.93.06.26-.14.29-.35.31v.61c-2.54-.81-.8-4.16-2.09-5.56.12-.41.62-.49.7-.93.43.14.72.4.7.93.75-.46-.25-.76.35-1.55-.11-.42-.87-.26-1.4-.31.11-1.08.84-2.04.35-3.39.34,0,.27.38.35.61,1.13.38.27-1,1.4-.61-.07,2.56-.93,6.12,1.39,7.1ZM279.83,114.71c1.44,1.14.63,2.73.69,4.63-1.47-1.34.1-2.92-.69-4.63ZM279.83,112.24c-.47-1.24-.24-4.73-.34-5.56,1.27.48.69,4.45.34,5.56ZM281.29,76.12c-.07.35-.35.17-.35,0-.63-.04-.74.38-1.4.31.14-.8,1.04-.93,1.05-1.85,1.2.35-.11,1.2.7,1.54ZM280.92,83.84c-1.61-.12.12-2.26-.7-2.47,1.8-.62.14,1.71.7,2.47ZM280.95,70.87v1.23c-.92-.63-2.17-.97-2.45-2.16.78.34,1.52.72,2.45.93ZM278.16,65.31v.93s-1.4,0-1.4,0c-.1-.81.73-.79,1.4-.92ZM276.04,79.82c.89.03.82,1.15.35,1.54-.89-.03-.83-1.15-.35-1.54ZM274.61,120.26c0,3.44-1.41,5.73-4.23,6.86-.81.29-2.29.44-4.45.44h-3.57v-49.03h5.49c4.5,0,6.75,2.45,6.75,7.36v34.37ZM276.03,81.67c.87.05.1,1.05,0,1.23-.71-.2-.23-1.44-1.05-1.54.6-1.45.77,1.48,1.05.31ZM275.62,122.11c-.68-.14-.62-2.17.7-1.55.26.95-.96.59-.7,1.55ZM276.36,96.18c-1.11-.15-1.23-3.41.7-2.78-.72.5-.81,1.55-.7,2.78ZM277.44,76.73c.55-.49,1.61.15,1.75.93-1,.06-1.91.04-1.75-.93ZM279.17,90.63c.41-.05.62.07.7.31.52-.26.75-.78.7-1.54-1.33-.45-.07,1.38-1.4.92.23-1.04.58-1.96,1.75-2.16.87.82-.77,2.47,1.05,2.78-.63.09-2.62,1.48-2.45.31-.86.49-.14,2.16,0,2.78-1.85-.42-.66-2.14-.34-3.4ZM279.51,94.64c.5.03.99.05,1.05-.31,1.29.62.5,1.46.7,1.85-.66.77-1.27-.25-.7-.93-.36.2-.36.71-1.05.62-.05.77.55.96.7,1.54.68-1.27,1.79.08,2.1.93-.52-.86-1.43.54-1.75-.31-1.16.61-1.01,2.1-.7,2.78-1.76.3-1.17-4.39-.34-6.17Z"/>
        <path class="cls-1" d="M315.31,152.09c.06,0,.11,0,.16,0v-52.16c-.96-.03-.96-1.21,0-1.24v-35.47h-15.54v107.73h4.78c-.29-.96-1.14-1.44-2.37-1.57.54-1.09-.18-1.38.36-2.47,2.54.55.24-2.98,1.76-4.01.28.16.57.32,1.05.31.43,2.03-.23,2.73.34,4.01.33.57-2,.19-.7.62-.6,1.17-.57-.67-1.05-.62-.95.72.45,1.96,1.4,1.24-.14.69-.04,1.57.08,2.49h2.12c.22-.19.59-.25.59-.64-1.07-.56-1.36-6.56.36-7.1-.16-1.06-1.74-1.54,0-1.85-.1-.64-.93-.62-1.4-.93.25-1.02.56-1.97.7-3.09-2.02-2.14,1.98-5.66-.69-8.34,1.06-.71.69-1.75,0-2.78,1.15-1.25,1.48,1.78,2.1.93.98,0-.83.84.7.62-2.19,2.5.29,6.93-1.76,8.33,2.06,1.78.76,3.81.69,6.17-.06,1.83,2.35,3.72-.36,4.32,1.23.5.81.86,1.39,2.17.75.14.67-.44.7-.93.41.77,1.4,1.03,1.4,2.16,1.36-.84-.78-3.24-1.04-4.63.35.83,1.89.91,1.4-.62.5.03.99.05,1.05-.31.9.54.72,2.03,1.04,3.09-.61-.07-.8-.53-.7-1.23-1.49.74,1.49,1.72,0,2.47.32.84.78-.94,1.4,0-.67.78-1.06,1.46-1.27,2.17h1.45v-17.87c-.17-.22-.21-.56-.16-.97ZM304.48,141.28c.6.7.75,1.81.69,3.09-.73-.38-.96-1.21-1.75-1.54,0-.83,1.11-.67,1.05-1.54ZM302.44,104.23c.61.29,1.88,0,1.75.93-.55.02-1.33-.15-1.4.31-.47-.1-.29-.77-.35-1.24ZM302.7,159.8c1.06.09,2.39-.05,2.45.93-1.15-.01-2.47.12-2.45-.93ZM304.82,150.54c-.57.09-.6-.29-1.05-.31.3-1.66.62-2.47.71-4.32,1.37.83.42,3.23.34,4.63ZM307.34,100.84c1.42-.29,1.21,1.67.7,2.16.04.79,1.17.61,2.1.62-.43,1.94-2-.38-3.15.92-.07-.26.14-.29.35-.31.09-1.17-.89-2.12,0-3.4ZM309.06,124.3c-.4.09-1.23.41,0,.93-1.22,1.11-.08,2.52-.71,4.01-1.57-3.28-.35-6.68-.68-10.19,2.22-.1-.46,2.83,1.39,3.4-.68-.12-1.09,1.32,0,1.85ZM307.68,111.34c2.56,2.19-.24,3.44.69,7.41-1.82-1.33-.56-5.3-.69-7.41ZM306.26,126.77c-1.4-.32.05-1.25-.35-2.47,1.23.17.56,1.79.35,2.47ZM307.34,104.85c2.2-.18.58,1.12,1.4,2.16-.81.21-1.2.79-1.75,1.23-.26-.64.31-1.7.35-3.39ZM309.02,145.61c-1.5-.29-.53-.97-1.05-1.85,1.26-.18,1.06.91,1.05,1.85ZM307.63,143.44c-.27-.45-.02-2.21.85-2.68.02-.07.04-.14.06-.21-.45-.35-.8-.78-1.61-.81.4-2.13,1.22-6.81.36-8.34.74-.85.6-1.29,1.4-1.54-.8.61.97,2.26-.7,2.47.69,2.28,1.06,5.99.55,8.22.05.04.09.08.14.11-.07.02-.14.07-.2.1-.05.18-.09.36-.15.52.31.45.52.98,1.4.93-.94.2-.98,1.19-2.1,1.23ZM310.43,141.59c-1.6-.25-.73-1.86-.69-2.47.46.11.55.54,1.05.62.25.94-.6.91-.35,1.85ZM309.45,98.99h2.1c-.07.46-2.29,1.24-2.1,0ZM312.88,137.89c1.64.56-.67,1.8,0,2.16-1.25.98-.3-1.7,0-2.16ZM313.19,163.82c-1.73-.65.88-1.82-.69-2.16.8-.98,1.28.9,1.39,1.55-.31.14-.62.27-.7.62ZM312.16,152.4c.32-.85,1.33-1.09,2.45-1.23.16,1.28-1.64.82-2.45,1.23Z"/>
        <path class="cls-1" d="M346.71,61.51c-5.51,0-9.99,1.04-13.46,3.11.11,1.46.07,2.9-.19,4,.05.04.09.08.14.11-.07.02-.14.07-.2.1-.05.18-.09.36-.15.52.31.45.52.98,1.4.93-.94.2-.98,1.19-2.1,1.23-.27-.45-.02-2.21.85-2.68.02-.07.04-.14.06-.21-.45-.35-.8-.78-1.61-.81.11-.59.25-1.37.38-2.22-4.94,3.68-7.43,9.86-7.43,18.55v65.89c0,15.12,7.43,22.68,22.29,22.68.53,0,1.03-.03,1.55-.05,0-.43,0-.78-.03-.97.32.12.53.48.64.95,4.64-.26,8.49-1.31,11.53-3.19.4-1.44.68-2.94-.62-4.24,1.06-.71.69-1.75,0-2.78,1.15-1.25,1.48,1.78,2.1.93.98,0-.83.84.7.62-1.1,1.26-1.02,3-.93,4.61,4.93-3.7,7.41-9.87,7.41-18.55v-17.52h-8.33c-.08.69-.08,1.48.15,2.44-.7-.51-.94-1.4-.99-2.44h-6.37v17.52c0,4.44-1.91,6.83-5.68,7.22.03.65.32,1.4.41,1.77-1.09-.24-1.12-.94-.9-1.73-.21.01-.41.05-.63.05-4.5,0-6.75-2.43-6.75-7.3v-65.89c0-1.05.12-1.96.33-2.79-.42-.15-.53-.59-.46-1.18.37-.04.63.03.8.17.96-2.32,2.95-3.5,6.03-3.5h.11c.15,0,.28.03.43.03,0-.03,0-.07-.01-.09.03.03.06.07.09.1,4.15.22,6.25,2.62,6.25,7.26v26.36h15.54v-26.36c0-15.08-7.45-22.62-22.35-22.62ZM365.39,154.08c1.64.56-.67,1.8,0,2.16-1.25.98-.3-1.7,0-2.16ZM361.53,161.8c-1.5-.29-.53-.97-1.05-1.85,1.26-.18,1.06.91,1.05,1.85ZM362.24,155.31c.46.11.55.54,1.05.62.25.94-.6.91-.35,1.85-1.6-.25-.73-1.86-.69-2.47ZM360.18,135.24c2.22-.1-.46,2.83,1.39,3.4-.68-.12-1.09,1.32,0,1.85-.4.09-1.23.41,0,.93-1.22,1.11-.08,2.52-.71,4.01-1.57-3.28-.35-6.68-.68-10.19ZM359.81,147.59c.74-.85.6-1.29,1.4-1.54-.8.61.97,2.26-.7,2.47.69,2.28,1.06,5.99.55,8.22.05.04.09.08.14.11-.07.02-.14.07-.2.1-.05.18-.09.36-.15.52.31.45.52.98,1.4.93-.94.2-.98,1.19-2.1,1.23-.27-.45-.02-2.21.85-2.68.02-.07.04-.14.06-.21-.45-.35-.8-.78-1.61-.81.4-2.13,1.22-6.81.36-8.34ZM358.42,140.49c1.23.17.56,1.79.35,2.47-1.4-.32.05-1.25-.35-2.47ZM357.33,166.73c-.57.09-.6-.29-1.05-.31.3-1.66.62-2.47.71-4.32,1.37.83.42,3.23.34,4.63ZM356.99,157.47c.6.7.75,1.81.69,3.09-.73-.38-.96-1.21-1.75-1.54,0-.83,1.11-.67,1.05-1.54ZM348.25,159.62c.5.03.99.05,1.05-.31,1.29.62.5,1.46.7,1.85-.66.77-1.27-.25-.7-.93-.36.2-.36.71-1.05.62-.05.77.55.96.7,1.54.68-1.27,1.79.08,2.1.93-.52-.86-1.43.54-1.75-.31-1.16.61-1.01,2.1-.7,2.78-1.76.3-1.17-4.39-.34-6.17ZM345.8,158.39c-.72.5-.81,1.55-.7,2.78-1.11-.15-1.23-3.41.7-2.78ZM337.41,65.95c1.64.56-.67,1.8,0,2.16-1.25.98-.3-1.7,0-2.16ZM339.14,79.23c.16,1.28-1.64.82-2.45,1.23.32-.85,1.33-1.09,2.45-1.23ZM337.02,89.72c.8-.98,1.28.9,1.39,1.55-.31.14-.62.27-.7.62-1.73-.65.88-1.82-.69-2.16ZM334.26,67.19c.46.11.55.54,1.05.62.25.94-.6.91-.35,1.85-1.6-.25-.73-1.86-.69-2.47ZM333.55,73.67c-1.5-.29-.53-.97-1.05-1.85,1.26-.18,1.06.91,1.05,1.85ZM329.01,69.34c.6.7.75,1.81.69,3.09-.73-.38-.96-1.21-1.75-1.54,0-.83,1.11-.67,1.05-1.54ZM329.35,78.61c-.57.09-.6-.29-1.05-.31.3-1.66.62-2.47.71-4.32,1.37.83.42,3.23.34,4.63ZM329.68,88.79c-1.15-.01-2.47.12-2.45-.93,1.06.09,2.39-.05,2.45.93ZM330,108.86c-1.21-1.02-.27-3.08-.34-4.63.85.61.37,3.34.34,4.63ZM329.67,95.89c-.6,1.17-.57-.67-1.05-.62-.95.72.45,1.96,1.4,1.24-.42,2.04,1.29,5.77-.71,7.1.52-.49.73-2.45-.69-2.16.66-.98-.75-1.88.7-2.16-.19-1.17-1.09-1.71-2.45-1.86.54-1.09-.18-1.38.36-2.47,2.54.55.24-2.98,1.76-4.01.28.16.57.32,1.05.31.43,2.03-.23,2.73.34,4.01.33.57-2,.19-.7.62ZM332.45,103.3h-.7c-.18-.25-.36-.5-.35-.93h1.4s0-.61,0-.61c1.16.46-.73.75-.35,1.54ZM333.85,103.61c-.46-.77,1.38-.96.35-1.24.3-.9,1.13.19,1.75,0,.06.26-.14.29-.35.31.16.28.31.55.7.62-.32.85-1.42-.72-1.05.93-.7,0-.45-.84-1.4-.62ZM335.25,107.01c-.28-.16-.57-.32-1.05-.31.24-.25.54-.85,0-.93-.07-.26.14-.29.35-.31.24,0,.47,0,.7,0-.21.99.65.96,0,1.55ZM337.69,106.39c-.47-.2-.65-.66-.7-1.24.3-.06.33.12.35.31.51-.07.12-.92.7-.92,1.27-.3.29,1.39,1.4,1.23.16.86-1.9-.24-1.75.62ZM338.75,104.24c-1.53-.23-1.81.66-2.1,1.54-1.12.26-1.08-.49-1.75-.62,2.99-1.2.04-2.63,2.45-3.39-.06-.88-.64-1.29-.7-2.16-.32.09-.93,1.37-.35,1.24-.54.63-1.41-.8-.7-1.54-1.2,0,.05.8-1.4.92-.07.67.28.98,1.05.93-1.26.89-2.61-.77-3.15-1.55-.25-.84.7-.62.7-1.23-1.07-.56-1.36-6.56.36-7.1-.16-1.06-1.74-1.54,0-1.85-.1-.64-.93-.62-1.4-.93.25-1.02.56-1.97.7-3.09-2.02-2.14,1.98-5.66-.69-8.34,1.06-.71.69-1.75,0-2.78,1.15-1.25,1.48,1.78,2.1.93.98,0-.83.84.7.62-2.19,2.5.29,6.93-1.76,8.33,2.06,1.78.76,3.81.69,6.17-.06,1.83,2.35,3.72-.36,4.32,1.23.5.81.86,1.39,2.17.75.14.67-.44.7-.93.41.77,1.4,1.03,1.4,2.16,1.36-.84-.78-3.24-1.04-4.63.35.83,1.89.91,1.4-.62.5.03.99.05,1.05-.31.9.54.72,2.03,1.04,3.09-.61-.07-.8-.53-.7-1.23-1.49.74,1.49,1.72,0,2.47.32.84.78-.94,1.4,0-1.94,2.26-1.61,3.69-1.06,7.41ZM343.35,67.81c.67,2.05.64,3.54.34,4.94-.9-1.5-.81-3.37-.34-4.94ZM343.69,77.07c-.85-1.37-.21-2.85-.69-4.01,2.29.33.64,2.98.69,4.01Z"/>
        <g>
          <path class="cls-1" d="M376.09,86.92v2.03c.39-.39.59-1.63,0-2.03Z"/>
          <path class="cls-1" d="M420.66,153.95s.05,0,.07,0v-52.16c-.85-.09-.85-1.15,0-1.25v-16.41c0-15.08-7.43-22.62-22.29-22.62-2.96,0-5.61.31-7.98.9,0,0,0,.01,0,.02,0,0,0,0,0-.01-2.23.56-4.2,1.38-5.91,2.47.4-.15.87-.23,1.37-.3.16,1.28-1.64.82-2.45,1.23.04-.11.09-.2.15-.29-1.54,1.13-2.83,2.5-3.89,4.1,1.89,1.75.65,3.75.58,6.07-.06,1.83,2.35,3.72-.36,4.32,1.23.5.81.86,1.39,2.17.75.14.67-.44.7-.93.41.77,1.4,1.03,1.4,2.16,1.36-.84-.78-3.24-1.04-4.63.35.83,1.89.91,1.4-.62.5.03.99.05,1.05-.31.9.54.72,2.03,1.04,3.09-.61-.07-.8-.53-.7-1.23-1.49.74,1.49,1.72,0,2.47.32.84.78-.94,1.4,0-1.94,2.26-1.61,3.69-1.06,7.41-1.53-.23-1.81.66-2.1,1.54-1.12.26-1.08-.48-1.75-.62,2.99-1.2.04-2.63,2.45-3.39-.06-.88-.64-1.29-.7-2.16-.32.09-.93,1.37-.35,1.24-.54.63-1.41-.8-.7-1.54-1.2,0,.05.8-1.4.92-.07.67.28.98,1.05.93-1.26.89-2.61-.77-3.15-1.55-.25-.84.7-.62.7-1.23-1.07-.56-1.36-6.56.36-7.1-.16-1.06-1.74-1.54,0-1.85-.1-.64-.93-.62-1.4-.93.25-1.02.56-1.97.7-3.09-.06-.06-.09-.12-.14-.18-1.03,1.79-1.79,3.86-2.3,6.18.37,1.92-.24,2.62.32,3.88.2.35-.57.34-.92.38,0,.05-.01.1-.02.15.06.02.13.05.24.09-.11.21-.19.32-.27.36,0,.15,0,.31-.01.46.21,0,.43-.05.63-.21-.42,2.03,1.28,5.75-.7,7.09v21.53h15.54v-20.45c-1.06-1-.13-2.84-1.21-4.15,2.67-.93-1.08-6.84,1.41-8.64.02,1.7.01,3.22.02,4.65.64-3.33,2.8-5.04,6.53-5.07h.11c4.47,0,6.7,2.43,6.7,7.3v38.82c-19.14,1.87-28.72,11.88-28.72,30.03,0,5.53,1.29,10.19,3.87,14,2.58,3.81,6.4,5.71,11.45,5.71,1.79-.01,3.44-.26,4.97-.74,0-.55.35-1.11,1.13-.74.04.14.04.24.02.33,1.33-.54,2.57-1.28,3.69-2.2-.55-1.19.46-2.55-.21-3.99,1.15.91.87,2.11.74,3.53,1.36-1.23,2.56-2.76,3.6-4.59l1.1,6.64h.96c.29-.86-.25-1.2.24-2.18,2.54.55.24-2.98,1.76-4.01.28.16.57.32,1.05.31.43,2.03-.23,2.73.34,4.01.33.57-2,.19-.7.62-.6,1.17-.57-.67-1.05-.62-.95.72.45,1.96,1.4,1.24-.04.2-.06.41-.06.64h2.23c-.47-1.94-.32-5.47.98-5.88-.16-1.06-1.74-1.54,0-1.85-.1-.64-.93-.62-1.4-.93.25-1.02.56-1.97.7-3.09-2.02-2.14,1.98-5.66-.69-8.34,1.06-.71.69-1.75,0-2.78,1.15-1.25,1.48,1.78,2.1.93.98,0-.83.84.7.62-2.19,2.5.29,6.93-1.76,8.33,2.06,1.78.77,3.81.69,6.17-.06,1.83,2.35,3.72-.36,4.32,1.23.5.81.86,1.39,2.17.75.14.67-.44.7-.93.27.5.79.79,1.11,1.25h.73c-.06-1.09-1.29-2.69-1.49-3.72.35.83,1.89.91,1.4-.62.5.03.99.05,1.05-.31.9.54.72,2.03,1.04,3.09-.61-.07-.8-.53-.7-1.23-1.49.74,1.49,1.72,0,2.47.32.84.78-.94,1.4,0-.1.11-.16.21-.24.32h.34v-16.17c-.1-.21-.11-.49-.07-.83ZM384.49,77.24c-1.73-.65.88-1.82-.69-2.16.8-.98,1.28.9,1.39,1.55-.31.14-.62.27-.7.62ZM376.77,94.21c-1.21-1.02-.27-3.08-.34-4.63.85.61.37,3.34.34,4.63ZM379.23,88.66h-.7c-.18-.25-.36-.5-.35-.93h1.4s0-.61,0-.61c1.16.46-.73.75-.35,1.54ZM380.63,88.97c-.46-.77,1.38-.96.35-1.24.3-.9,1.13.19,1.75,0,.06.26-.14.29-.35.31.16.28.31.55.7.62-.32.85-1.42-.72-1.05.93-.7,0-.45-.84-1.4-.62ZM382.02,92.37c-.28-.16-.57-.32-1.05-.31.24-.25.54-.85,0-.93-.07-.26.14-.29.35-.31.24,0,.47,0,.7,0-.21.99.65.96,0,1.55ZM384.47,91.75c-.47-.2-.65-.66-.7-1.24.3-.06.33.12.35.31.51-.07.12-.92.7-.92,1.27-.3.29,1.39,1.4,1.23.16.86-1.9-.24-1.75.62ZM387.65,66.75c-.92.09-1.14-.43-1.05-1.24.92-.09,1.15.43,1.05,1.24ZM390.45,65.51c-.75-.25-1.04-1.89.35-1.85.05.76.05,1.49-.35,1.85ZM394.3,65.21c-.8-.43-.13-2.15-.35-3.09.98.86.64,2.49.35,3.09ZM402.17,125.22c1.2.35-.11,1.2.7,1.54-.07.35-.35.17-.35,0-.63-.04-.74.38-1.4.31.14-.8,1.04-.93,1.05-1.85ZM402.51,134.49c-1.61-.12.12-2.26-.7-2.47,1.8-.62.14,1.71.7,2.47ZM399.02,127.38c.55-.49,1.61.15,1.75.93-1,.06-1.91.04-1.75-.93ZM397.62,130.47c.89.03.82,1.15.35,1.54-.89-.03-.83-1.15-.35-1.54ZM397.62,132.32c.87.05.1,1.05,0,1.23-.71-.2-.23-1.44-1.05-1.54.6-1.45.77,1.48,1.05.31ZM401.41,162.89c-.47-1.24-.24-4.73-.34-5.56,1.27.48.69,4.45.34,5.56ZM405.19,143.43c0,9.44-3.35,14.42-10.05,14.93-2.09,0-3.13-2.34-3.13-7.03,0-6.88,4.39-11.42,13.18-13.62v5.71ZM409.84,143.13c.6.7.75,1.81.69,3.09-.73-.38-.96-1.21-1.75-1.54,0-.83,1.11-.67,1.05-1.54ZM407.8,106.09c.61.29,1.88,0,1.75.93-.55.02-1.33-.15-1.4.31-.47-.1-.29-.77-.35-1.24ZM408.06,161.65c1.06.09,2.39-.05,2.45.93-1.15-.01-2.47.12-2.45-.93ZM410.17,152.4c-.57.09-.6-.29-1.05-.31.3-1.66.62-2.47.71-4.32,1.37.83.42,3.23.34,4.63ZM412.7,102.69c1.42-.29,1.21,1.67.7,2.16.04.79,1.17.61,2.1.62-.43,1.94-2-.38-3.15.92-.07-.26.14-.29.35-.31.09-1.17-.89-2.12,0-3.4ZM414.41,126.16c-.4.09-1.23.41,0,.93-1.22,1.11-.08,2.52-.71,4.01-1.57-3.28-.35-6.68-.68-10.19,2.22-.1-.46,2.83,1.39,3.4-.68-.12-1.09,1.32,0,1.85ZM413.03,113.19c2.56,2.19-.24,3.44.69,7.41-1.82-1.33-.56-5.3-.69-7.41ZM411.61,128.63c-1.4-.32.05-1.25-.35-2.47,1.23.17.56,1.79.35,2.47ZM412.69,106.71c2.2-.18.58,1.12,1.4,2.16-.81.21-1.2.79-1.75,1.23-.26-.64.31-1.7.35-3.39ZM414.37,147.46c-1.5-.29-.53-.97-1.05-1.85,1.26-.18,1.06.91,1.05,1.85ZM412.98,145.3c-.27-.45-.02-2.21.85-2.68.02-.07.04-.14.06-.21-.45-.35-.8-.78-1.61-.81.4-2.13,1.22-6.81.36-8.34.74-.85.6-1.29,1.4-1.54-.8.61.97,2.26-.7,2.47.69,2.28,1.06,5.99.55,8.22.05.04.09.08.14.11-.07.02-.14.07-.2.1-.05.18-.09.36-.15.52.31.45.52.98,1.4.93-.94.2-.98,1.19-2.1,1.23ZM415.78,143.45c-1.6-.25-.73-1.86-.69-2.47.46.11.55.54,1.05.62.25.94-.6.91-.35,1.85ZM414.8,100.84h2.1c-.07.46-2.29,1.24-2.1,0ZM418.23,139.74c1.64.56-.67,1.8,0,2.16-1.25.98-.3-1.7,0-2.16ZM418.54,165.68c-1.73-.65.88-1.82-.69-2.16.8-.98,1.28.9,1.39,1.55-.31.14-.62.27-.7.62ZM417.51,154.25c.32-.85,1.33-1.09,2.45-1.23.16,1.28-1.64.82-2.45,1.23Z"/>
        </g>
        <path class="cls-1" d="M237.28,68.89c-.41-.12-.49-.62-.93-.7.14-.43.4-.72.93-.7-.47-.75-.76.25-1.55-.35-.42.11-.26.87-.31,1.4-1.08-.11-2.04-.84-3.39-.35,0-.34.38-.27.61-.35.38-1.13-1-.27-.61-1.4,2.56.07,6.12.93,7.1-1.39.06,0,.12,0,.17,0v-7.58l-.82.11c-.16.08-.34.14-.59.13v-.05s-9.47,1.28-9.47,1.28c.91.03,1.51.19,2.37-.19.57-.33.19,2,.62.7,1.17.6-.67.57-.62,1.05.72.95,1.96-.45,1.24-1.4,2.04.42,5.77-1.29,7.1.71-.49-.52-2.45-.73-2.16.69-.98-.66-1.88.75-2.16-.7-1.17.19-1.71,1.09-1.86,2.45-1.09-.54-1.38.18-2.47-.36.55-2.54-2.98-.24-4.01-1.76.15-.27.3-.54.31-.97l-2.47.33c0,1.13.1,2.41-.93,2.38.08-.91,0-2,.57-2.34l-29.06,3.94v3.93c.5.12,1.02.23,1.31.01-.06.86-.7.77-1.31.62v4.04c.17.1.32.2.38.23-.06.2-.2.31-.38.37v1.54h44.4v-5.9c-.79.02-1.53.1-2.03.56ZM203.01,69.18c-.05-.41.07-.62.31-.7-.26-.52-.78-.75-1.54-.7-.45,1.33,1.38.07.92,1.4-1.04-.23-1.96-.58-2.16-1.75.82-.87,2.47.77,2.78-1.05.09.63,1.48,2.62.31,2.45.49.86,2.16.14,2.78,0-.42,1.85-2.14.66-3.4.34ZM205.78,71.28c.5.72,1.55.81,2.78.7-.15,1.11-3.41,1.23-2.78-.7ZM207.02,68.84c.03-.5.05-.99-.31-1.05.62-1.29,1.46-.5,1.85-.7.77.66-.25,1.27-.93.7.2.36.71.36.62,1.05.77.05.96-.55,1.54-.7-1.27-.68.08-1.79.93-2.1-.86.52.54,1.43-.31,1.75.61,1.16,2.1,1.01,2.78.7.29,1.76-4.39,1.17-6.17.34ZM219.06,68.86c.48-1.27,4.45-.69,5.56-.34-1.24.47-4.73.24-5.56.34ZM227.09,68.52c1.14-1.44,2.73-.63,4.63-.69-1.34,1.47-2.92-.1-4.63.69ZM232.95,72.02c.95-.26.59.96,1.55.7-.14.68-2.17.62-1.55-.7Z"/>
        <g>
          <path class="cls-1" d="M84.02,63.21c0,.13,0,.26.02.38-.25-.13-.49-.25-.73-.38h-1.64c-.02.13-.04.25-.07.38-.07-.12-.13-.25-.18-.38h-10.26v87.41h2.29s0-.05.01-.08c.03.03.07.05.1.08h.64c.19-.44.07-1.28.28-1.69-.26-.7-.42-.85-1.02-.54-.21-1.09.32-1.2.61-1.62-.02-.95-.68.57-.61-.27-.07-.82.66-.56,1.02-.81-.06,1.66.87,3.29.21,4.93h1.22c.09-.87.12-1.69-.21-2.23.64.31.54-.08,1.02.27v-1.08c-.03-.32-.37-.23-.61-.27,1.2-.56.58-2.76,1.02-3.77.37,2,.43,4.34.41,7.08h9.14V63.21h-2.67ZM75.12,128.17c-.08.72-1.09,1.26-1.02,0,.63-.19.39-.19,1.02,0ZM74.9,145.15c-.68.06-.09-1-.61-1.62-.34.44-.25,1.46-.61,1.89-.64-.89.26-2.46-.2-3.23.87.58,1.19.21,1.83,1.08-.3.7-.75,1-.41,1.89ZM74.5,133.02c-.16,1.31.96,2.5,0,3.23.09.4.26-.11.61,0-.73,1.93.4,3.68-.21,5.93-.49-.77-.33-1.97-1.43-2.43-.38-3.17,1.38-4.89-.2-7.01.71.87.5-1.14,1.02-1.35-.05-.29-.4-.18-.41-.54.21-.81.22-1.87,1.23-1.61-.03,1.03,0,1.96.4,2.43-.31.49-.85.67-1.02,1.35ZM76.96,129.25c.04-2.84.27-1.92.2,1.35-.94-.08-.21-1.13-.2-1.35ZM77.35,142.19c-.49-.25-.99-.49-1.43-.81-.03-1.19.5.03,1.02-.27-.39-3.72-.35-6.43,0-8.89.94,2.71.06,6.53.4,9.97ZM79.18,150c-.26-.28-.52-2.83.21-2.69-.15,1.39.11,1.72-.21,2.69ZM78.57,145.42c-.91.04-.53-.95-.2-1.35.29-.14.5,1.05.61.27.22.07.14.54.41.54-.26.95-.99-1.25-.82.54ZM81.38,73.56c-.05.7-.35-.37-.82,0v.54c.2.37.34-.12.61.54-.76.79-1.52-.84-1.02-2.7.16.14.33.28.61.27.37-.32.16-1.41.41-1.89-.26-.7-.42-.85-1.02-.54-.21-1.09.32-1.2.61-1.62-.02-.95-.68.57-.61-.27-.07-.82.66-.56,1.02-.81-.06,1.82,1.08,3.6,0,5.39.09.4.26-.11.61,0,.12.56-.9.92-.41,1.08ZM81.59,66.55c-.68.06-.09-1-.61-1.62-.34.44-.25,1.46-.61,1.89-.64-.89.26-2.46-.2-3.23.87.58,1.19.21,1.83,1.08-.3.7-.75,1-.41,1.89ZM84.24,73.29c-.05,2.96.07,6.5-.42,9.43-.62-.37-.15-3.17-.4-5.12-.19-1.45-.31-1.08-.2-2.43.02-.27-.53-1.89-.61-.27-.46-1.56.52-3.96-.2-5.12.64.31.54-.08,1.02.27v-1.08c-.03-.32-.37-.23-.61-.27,1.2-.56.58-2.76,1.02-3.77.43,2.31.45,5.04.4,8.36ZM85.06,65.48c.29-.14.5,1.05.61.27.22.07.14.54.41.54-.26.95-.99-1.25-.82.54-.91.04-.53-.95-.2-1.35ZM85.87,71.41c-.26-.28-.52-2.83.21-2.69-.15,1.39.11,1.72-.21,2.69ZM85.66,76.26h-.61s0-1.62,0-1.62c.74.94.05-1.52,1.02-1.08.41,1.77-.85,1.63-.41,2.7Z"/>
          <path class="cls-1" d="M82.81,71.4c.3.42.91.3.82-.54-.36-.5-.63.07-.82.54Z"/>
          <path class="cls-1" d="M76.93,149.46c-.36-.5-.63.07-.82.54.3.42.91.3.82-.54Z"/>
        </g>
        <path class="cls-1" d="M122.46,172.42c-1.44-.2.19-2.25-.61-2.45,1.78-.62.17,1.66.69,2.45,4.46-.55,8.09-1.95,10.87-4.21-1.03-3.02-.04-6.14-.35-9.35,2.22-.1-.46,2.83,1.39,3.4-.68-.12-1.09,1.32,0,1.85-.4.09-1.23.41,0,.93-.85.77-.56,1.7-.51,2.69,4.22-3.76,6.36-9.65,6.36-17.71,0-10.54-4.85-19.27-14.55-26.19-7.07-4.27-11.55-9.23-13.47-14.87-.15.27-.35.51-.63.69.52-.49.73-2.45-.69-2.16.62-.92-.58-1.77.46-2.1-.04-.3-.07-.61-.1-.92-.41-.59-1.14-.9-2.1-1,.54-1.09-.18-1.38.36-2.47,2.45.53.4-2.75,1.63-3.9v-2.28c-.87-.01-1.64-.12-1.62-.93.54.05,1.14.03,1.62.14v-9.48c-.17-.09-.29-.22-.55-.23.3-1.66.62-2.47.71-4.32.2.12.34.29.45.47.53-1.38,1.43-2.37,2.69-2.96-.25-.48,0-2.19.86-2.65.02-.07.04-.14.06-.21-.45-.35-.8-.78-1.61-.81.4-2.13,1.22-6.81.36-8.34.74-.85.6-1.29,1.4-1.54-.8.61.97,2.26-.7,2.47.69,2.28,1.06,5.99.55,8.22.05.04.09.08.14.11-.07.02-.14.07-.2.1-.05.18-.09.36-.15.52.31.45.52.98,1.4.93-.58.12-.82.54-1.17.85.73-.21,1.54-.34,2.47-.34h.11c4.5.04,6.75,2.47,6.75,7.3v26.36h2.24c-.72-1.03,0-2.71-1-3.91,2.67-.93-1.08-6.84,1.41-8.64.05,5.22-.11,8.96.55,12.56h12.34v-26.36c0-15.08-7.45-22.62-22.35-22.62-.88,0-1.73.03-2.56.08.05.56.09,1.15-.17,1.75-.27-.56-.45-1.12-.57-1.69-4.18.36-7.68,1.41-10.48,3.17-.09.61-.45,1.49-.14,1.91-.9-.06-.76-.76-.6-1.39-5.17,3.65-7.77,9.9-7.77,18.79v18.56c0,12.48,4.85,22.18,14.55,29.1,6.81,4.88,11.22,9.33,13.25,13.35.06.03.12.07.19.14.03.13.03.22.03.33.71,1.54,1.08,3.01,1.08,4.42,0,4.87-2.25,7.3-6.75,7.3s-6.81-2.43-6.81-7.3v-7.58h-15.54v7.58c0,15.08,7.45,22.64,22.35,22.68,1.58,0,3.05-.1,4.46-.27ZM133.76,158.55c-1.82-1.33-.56-5.3-.69-7.41,2.56,2.19-.24,3.44.69,7.41ZM136.94,138.8c-.07.46-2.29,1.24-2.1,0h2.1ZM132.74,140.65c1.42-.29,1.21,1.67.7,2.16.04.79,1.17.61,2.1.62-.43,1.94-2-.38-3.15.92-.07-.26.14-.29.35-.31.09-1.17-.89-2.12,0-3.4ZM132.73,144.66c2.2-.18.58,1.12,1.4,2.16-.81.21-1.2.79-1.75,1.23-.26-.64.31-1.7.35-3.39ZM131.3,164.11c1.23.17.56,1.79.35,2.47-1.4-.32.05-1.25-.35-2.47ZM129.59,144.97c-.55.02-1.33-.15-1.4.31-.47-.1-.29-.77-.35-1.24.61.29,1.88,0,1.75.93ZM129.52,82.8c.98.86.64,2.49.35,3.09-.8-.43-.13-2.15-.35-3.09ZM126.02,86.2c-.75-.25-1.04-1.89.35-1.85.05.76.05,1.49-.35,1.85ZM125.69,73.85c.67,2.05.64,3.54.34,4.94-.9-1.5-.81-3.37-.34-4.94ZM126.02,83.11c-.85-1.37-.21-2.85-.69-4.01,2.29.33.64,2.98.69,4.01ZM119.75,71.99c1.64.56-.67,1.8,0,2.16-1.25.98-.3-1.7,0-2.16ZM116.6,73.22c.46.11.55.54,1.05.62.25.94-.6.91-.35,1.85-1.6-.25-.73-1.86-.69-2.47ZM111.35,75.38c.6.7.75,1.81.69,3.09-.73-.38-.96-1.21-1.75-1.54,0-.83,1.11-.67,1.05-1.54ZM98.71,105.01c-.68-.14-.62-2.17.7-1.55.26.95-.96.59-.7,1.55ZM99.46,79.08c-1.11-.15-1.23-3.41.7-2.78-.72.5-.81,1.55-.7,2.78ZM102.26,73.52c.41-.05.62.07.7.31.52-.26.75-.78.7-1.54-1.33-.45-.07,1.38-1.4.92.23-1.04.58-1.96,1.75-2.16.87.82-.77,2.47,1.05,2.78-.63.09-2.62,1.48-2.45.31-.86.49-.14,2.16,0,2.78-1.85-.42-.66-2.14-.34-3.4ZM102.6,77.53c.5.03.99.05,1.05-.31,1.29.62.5,1.46.7,1.85-.66.77-1.27-.25-.7-.93-.36.2-.36.71-1.05.62-.05.77.55.96.7,1.54.68-1.27,1.79.08,2.1.93-.52-.86-1.43.54-1.75-.31-1.16.61-1.01,2.1-.7,2.78-1.76.3-1.17-4.39-.34-6.17ZM102.92,97.6c1.44,1.14.63,2.73.69,4.63-1.47-1.34.1-2.92-.69-4.63ZM102.58,89.58c1.27.48.69,4.45.34,5.56-.47-1.24-.24-4.73-.34-5.56ZM106.04,111.49c-1.1-.35-.79-.03-2.1,0-.21.8.14,1.11,1.05.93.06.26-.14.29-.35.31v.61c-2.54-.81-.8-4.16-2.09-5.56.12-.41.62-.49.7-.93.43.14.72.4.7.93.75-.46-.25-.76.35-1.55-.11-.42-.87-.26-1.4-.31.11-1.08.84-2.04.35-3.39.34,0,.27.38.35.61,1.13.38.27-1,1.4-.61-.07,2.56-.93,6.12,1.39,7.1.05.76.05,1.49-.35,1.85ZM112.34,114.9c-1.21-1.02-.27-3.08-.34-4.63.85.61.37,3.34.34,4.63ZM123.29,143.11c-1.13-.13-.28-2.01-2.1-1.54.73-.9,2.22-.2,1.4-1.85,2.1.67-.09,1.59.69,3.4ZM122.91,164.72c-.07.35-.35.17-.35,0-.63-.04-.74.38-1.4.31.14-.8,1.04-.93,1.05-1.85,1.2.35-.11,1.2.7,1.54ZM122.57,159.47v1.23c-.92-.63-2.17-.97-2.45-2.16.78.34,1.52.72,2.45.93ZM119.06,165.33c.55-.49,1.61.15,1.75.93-1,.06-1.91.04-1.75-.93ZM117.66,168.42c.89.03.82,1.15.35,1.54-.89-.03-.83-1.15-.35-1.54ZM116.61,169.96c.6-1.45.77,1.48,1.05.31.87.05.1,1.05,0,1.23-.71-.2-.23-1.44-1.05-1.54Z"/>
        <polygon class="cls-1" points="88.33 163.21 79.26 154.14 70.61 162.79 61.96 154.14 53.41 162.69 44.85 154.14 36.01 162.97 27.17 154.14 18.1 163.21 27.17 172.28 36.01 163.44 44.85 172.28 53.41 163.73 61.96 172.28 70.61 163.63 79.26 172.28 88.33 163.21"/>
      </g>
    </g>
  </g>
</svg>