<?xml version="1.0" encoding="UTF-8"?>
<svg id="Capa_1" xmlns="http://www.w3.org/2000/svg" viewBox="0 0 450.14 127.53">
  <defs>
    <style>
      .cls-1 {
        fill: #053238;
      }
    </style>
  </defs>
  <g id="Capa_1-2" data-name="Capa_1">
    <g>
      <g>
        <path class="cls-1" d="M294.79,48.59h4.78v3.72c-.52.41-1.16.76-1.91,1.06-.77.3-1.61.45-2.49.45-.93,0-1.78-.16-2.53-.48-.74-.32-1.38-.77-1.91-1.34-.52-.57-.93-1.25-1.22-2.03s-.43-1.65-.43-2.57c0-.86.15-1.69.44-2.46.29-.77.7-1.45,1.21-2.01.51-.57,1.13-1.03,1.84-1.36s1.5-.5,2.34-.5c.54,0,1.04.04,1.49.13.44.09.86.21,1.23.36.37.15.72.34,1.04.55s.63.45.93.72l.1.09,1.32-1.55-.1-.09c-.39-.33-.8-.63-1.21-.9-.42-.27-.87-.49-1.35-.67s-1-.32-1.55-.41-1.17-.14-1.83-.14c-1.19,0-2.3.23-3.28.67-.98.45-1.82,1.06-2.52,1.82-.7.76-1.24,1.64-1.63,2.64-.38,1-.58,2.06-.58,3.14s.19,2.21.56,3.21.92,1.88,1.62,2.62c.71.74,1.57,1.34,2.56,1.76s2.13.64,3.38.64c1.34,0,2.57-.24,3.65-.72,1.08-.47,2-1.05,2.74-1.71l.04-.04v-6.44h-6.75v1.84h.02Z"/>
        <path class="cls-1" d="M318.46,41.6c-.71-.75-1.57-1.35-2.57-1.79-.99-.44-2.11-.66-3.32-.66s-2.33.23-3.33.67c-1,.45-1.87,1.06-2.58,1.81-.71.76-1.27,1.64-1.66,2.63s-.59,2.05-.59,3.16.2,2.16.58,3.15c.39.99.94,1.88,1.65,2.62.71.75,1.57,1.35,2.57,1.79.99.44,2.11.66,3.32.66s2.33-.23,3.33-.67c1-.45,1.87-1.06,2.58-1.81.71-.76,1.27-1.64,1.66-2.63h0c.39-.99.59-2.05.59-3.16s-.2-2.17-.58-3.16c-.39-.99-.94-1.87-1.65-2.62M318.14,49.9c-.3.77-.72,1.44-1.24,2.01s-1.16,1.02-1.9,1.35-1.55.49-2.42.49-1.69-.17-2.42-.5c-.74-.33-1.38-.79-1.92-1.36s-.97-1.25-1.26-2.02c-.3-.77-.45-1.61-.45-2.49s.15-1.71.45-2.48c.3-.77.72-1.44,1.24-2.01s1.16-1.02,1.9-1.35c.73-.33,1.55-.49,2.42-.49s1.69.17,2.42.5c.74.33,1.38.79,1.92,1.36s.96,1.25,1.26,2.02c.3.78.45,1.61.45,2.49s-.15,1.71-.45,2.48"/>
        <path class="cls-1" d="M335.96,48.34c-.31-.31-.68-.58-1.1-.8-.32-.17-.66-.31-1.01-.43.21-.11.42-.23.62-.37.3-.21.58-.47.82-.78.25-.31.45-.67.59-1.07.15-.4.22-.88.22-1.41,0-.62-.13-1.18-.37-1.69-.25-.5-.61-.93-1.07-1.28-.46-.34-1.02-.62-1.65-.81-.64-.19-1.36-.29-2.14-.29h-6.81v15.97h7.1c.86,0,1.65-.1,2.36-.3.72-.2,1.34-.49,1.85-.86.51-.38.91-.85,1.19-1.41s.42-1.19.42-1.88c0-.55-.09-1.05-.28-1.49-.19-.43-.44-.81-.74-1.12M326.1,41.26h4.63c1.08,0,1.92.23,2.49.67.57.44.84,1.03.84,1.79,0,.89-.31,1.55-.95,2.01-.65.46-1.49.7-2.52.7h-4.5v-5.16h.01ZM333.97,52.83c-.66.48-1.58.72-2.74.72h-5.13v-5.3h4.81c1.34,0,2.36.23,3.04.69.67.45.99,1.08.99,1.91s-.32,1.51-.97,1.99"/>
        <rect class="cls-1" x="340.41" y="39.42" width="2.04" height="15.97"/>
        <polygon class="cls-1" points="348.75 48.28 357.32 48.28 357.32 46.4 348.75 46.4 348.75 41.3 358.33 41.3 358.33 39.42 346.71 39.42 346.71 55.39 358.44 55.39 358.44 53.51 348.75 53.51 348.75 48.28"/>
        <path class="cls-1" d="M371.44,48.43c.53-.26,1-.59,1.39-.98.39-.39.7-.86.91-1.39.22-.53.32-1.14.32-1.81,0-.72-.14-1.38-.42-1.97s-.67-1.11-1.18-1.53c-.5-.42-1.12-.75-1.83-.98s-1.51-.34-2.38-.34h-6.89v15.97h2.04v-6.1h4.29l4.55,6.1h2.51l-4.86-6.45c.54-.11,1.06-.28,1.53-.51M368.12,47.45h-4.7v-6.13h4.73c1.24,0,2.21.27,2.89.79.68.53,1.01,1.25,1.01,2.2,0,.49-.1.93-.29,1.31-.19.39-.46.71-.81.98-.35.27-.76.47-1.24.62-.48.14-1.01.22-1.58.22"/>
        <polygon class="cls-1" points="389.08 51.75 379.39 39.42 377.53 39.42 377.53 55.39 379.52 55.39 379.52 42.77 389.47 55.39 391.08 55.39 391.08 39.42 389.08 39.42 389.08 51.75"/>
        <path class="cls-1" d="M408.54,41.6c-.71-.75-1.57-1.35-2.57-1.79-.99-.44-2.11-.66-3.32-.66s-2.33.23-3.33.67c-1,.45-1.87,1.06-2.58,1.81-.71.76-1.27,1.64-1.66,2.63s-.59,2.05-.59,3.16.2,2.16.58,3.15c.39.99.94,1.88,1.65,2.62.71.75,1.57,1.35,2.57,1.79.99.44,2.11.66,3.32.66s2.33-.23,3.33-.67c1-.45,1.87-1.06,2.58-1.81.71-.76,1.27-1.64,1.66-2.63h0c.39-.99.59-2.05.59-3.16s-.2-2.17-.58-3.16c-.39-.99-.94-1.87-1.65-2.62M408.21,49.9c-.3.77-.72,1.44-1.24,2.01s-1.16,1.02-1.9,1.35-1.55.49-2.42.49-1.69-.17-2.42-.5c-.74-.33-1.38-.79-1.92-1.36s-.97-1.25-1.26-2.02c-.3-.77-.45-1.61-.45-2.49s.15-1.71.45-2.48c.3-.77.72-1.44,1.24-2.01s1.16-1.02,1.9-1.35c.73-.33,1.55-.49,2.42-.49s1.69.17,2.42.5c.74.33,1.38.79,1.92,1.36s.96,1.25,1.26,2.02c.3.78.45,1.61.45,2.49s-.15,1.71-.45,2.48"/>
        <path class="cls-1" d="M432.68,41.7c-.75-.71-1.65-1.28-2.69-1.68s-2.19-.6-3.42-.6h-5.59v15.97h5.59c1.24,0,2.39-.21,3.42-.62,1.04-.41,1.94-.98,2.69-1.69s1.34-1.57,1.75-2.55.62-2.04.62-3.16-.21-2.18-.62-3.15-1-1.82-1.75-2.53M432.49,49.82c-.3.73-.73,1.37-1.27,1.92-.54.54-1.22.98-2,1.28-.79.31-1.68.46-2.64.46h-3.55v-12.16h3.55c.97,0,1.85.16,2.64.47s1.46.75,2.01,1.29c.55.54.97,1.2,1.27,1.94s.45,1.55.45,2.39-.15,1.67-.45,2.39"/>
        <polygon class="cls-1" points="440.45 53.51 440.45 48.28 449.02 48.28 449.02 46.4 440.45 46.4 440.45 41.3 450.03 41.3 450.03 39.42 438.41 39.42 438.41 55.39 450.14 55.39 450.14 53.51 440.45 53.51"/>
        <polygon class="cls-1" points="298.52 68.05 298.52 85.58 293.68 85.58 293.68 68.05 286.98 68.05 286.98 63.58 305.21 63.58 305.21 68.05 298.52 68.05"/>
        <path class="cls-1" d="M317.82,85.92c-5.91,0-9.52-3.3-9.52-9.77v-12.57h4.84v12.44c0,3.58,1.79,5.44,4.74,5.44s4.75-1.79,4.75-5.28v-12.6h4.84v12.41c0,6.66-3.74,9.93-9.65,9.93"/>
        <path class="cls-1" d="M342.63,85.96c-6.47,0-11.28-5-11.28-11.31v-.06c0-6.25,4.71-11.37,11.47-11.37,4.15,0,6.63,1.38,8.67,3.39l-3.08,3.55c-1.7-1.54-3.42-2.48-5.62-2.48-3.71,0-6.38,3.08-6.38,6.85v.06c0,3.77,2.61,6.91,6.38,6.91,2.51,0,4.05-1.01,5.78-2.58l3.08,3.11c-2.26,2.42-4.78,3.93-9.02,3.93"/>
        <path class="cls-1" d="M364.26,85.92c-5.91,0-9.52-3.3-9.52-9.77v-12.57h4.84v12.44c0,3.58,1.79,5.44,4.74,5.44s4.75-1.79,4.75-5.28v-12.6h4.84v12.41c0,6.66-3.74,9.93-9.65,9.93"/>
        <polygon class="cls-1" points="396.23 85.58 396.23 71.22 390.04 80.61 389.91 80.61 383.79 71.31 383.79 85.58 379.04 85.58 379.04 63.59 384.26 63.59 390.04 72.88 395.82 63.59 401.04 63.59 401.04 85.58 396.23 85.58"/>
        <path class="cls-1" d="M422.41,85.58l-2.01-4.93h-9.3l-2.01,4.93h-4.93l9.43-22.15h4.46l9.43,22.15h-5.07ZM415.75,69.24l-2.92,7.13h5.85l-2.92-7.13h0ZM413.8,61.86l3.55-5.56,4.12,1.79-4.02,3.77h-3.65Z"/>
        <polygon class="cls-1" points="446.02 85.58 435.37 71.6 435.37 85.58 430.59 85.58 430.59 63.59 435.06 63.59 445.36 77.13 445.36 63.59 450.14 63.59 450.14 85.58 446.02 85.58"/>
      </g>
      <g>
        <path class="cls-1" d="M215.97,50.92l.1-.05,3.68-1.99c.05-.11.12-.23.2-.37.07-.12.15-.24.24-.36.53-.73,1.17-1.12,1.85-1.12.15,0,.29.02.43.06.1.03.21.06.31.1.4.18.77.5,1.1.96.09.12.16.23.22.35.05.08.08.15.12.22.03.06.07.12.09.17l3.2,1.73.58.31h2.13v-6.14h-16.36v6.14h2.12,0Z"/>
        <rect class="cls-1" x="210.17" y="52.75" width="1.84" height="1.83"/>
        <path class="cls-1" d="M235.72,58.25h22.01c-.01-.61-.03-1.22-.07-1.83h-21.94v1.83Z"/>
        <rect class="cls-1" x="209.11" y="41.12" width="26.39" height="1.83"/>
        <polygon class="cls-1" points="206.36 50.92 208.34 50.92 208.34 44.78 195.42 44.78 195.42 52.61 195.42 54.58 208.34 54.58 208.34 52.75 206.36 52.75 206.36 52.61 206.36 50.92"/>
        <rect class="cls-1" x="232.04" y="52.75" width="1.84" height="1.83"/>
        <rect class="cls-1" x="232.04" y="44.79" width="1.84" height="6.13"/>
        <path class="cls-1" d="M186,56.42c-.03.61-.05,1.22-.07,1.83h22.41v-1.83h-22.34Z"/>
        <polygon class="cls-1" points="237.7 52.75 235.72 52.75 235.72 54.58 248.23 54.58 248.23 52.61 248.23 44.78 235.72 44.78 235.72 50.92 237.7 50.92 237.7 52.61 237.7 52.75"/>
        <path class="cls-1" d="M265.6,78.74l-3.74-1.55c-.37-.15-.79.05-.9.44-1.33,4.74-3.16,9.16-5.41,13.18-.15.26-.1.59.11.8l2.95,2.95c.31.31.83.25,1.05-.13,2.69-4.58,4.82-9.58,6.34-14.87.09-.33-.08-.67-.39-.8"/>
        <path class="cls-1" d="M268.09,60.52h-4.01c-.36,0-.66.29-.67.65-.11,4.48-.66,8.82-1.57,12.96-.07.32.09.64.39.76l3.77,1.56c.38.16.82-.06.91-.47,1.1-4.76,1.73-9.72,1.85-14.79,0-.38-.3-.69-.67-.69"/>
        <path class="cls-1" d="M262.23,43.88c-.3.12-.47.44-.4.76.92,4.14,1.46,8.48,1.57,12.96,0,.36.3.65.67.65h4.01c.38,0,.68-.31.67-.69-.12-5.06-.75-10.02-1.85-14.78-.09-.4-.53-.62-.91-.47l-3.77,1.56h0Z"/>
        <path class="cls-1" d="M254.68,93.83c-.3-.3-.8-.24-1.03.11-3.06,4.68-6.73,8.68-10.84,11.8-.24.18-.33.51-.22.79l1.58,3.82c.16.4.66.54,1.01.29,3.77-2.71,7.22-6.07,10.29-10.03.76-.98,1.49-2,2.19-3.03.18-.27.14-.62-.08-.85l-2.9-2.9h0Z"/>
        <path class="cls-1" d="M188.11,90.81c-2.25-4.01-4.08-8.44-5.41-13.18-.11-.39-.53-.59-.9-.44l-3.74,1.55c-.31.13-.48.48-.39.8,1.52,5.29,3.65,10.3,6.34,14.87.22.38.74.44,1.05.13l2.94-2.95c.21-.21.26-.54.11-.8"/>
        <path class="cls-1" d="M181.43,74.89c.3-.12.47-.44.4-.76-.92-4.14-1.46-8.48-1.57-12.96,0-.36-.3-.65-.67-.65h-4.01c-.38,0-.68.31-.67.69.12,5.06.75,10.03,1.85,14.79.09.4.53.62.91.47l3.77-1.56v-.02Z"/>
        <path class="cls-1" d="M175.57,58.25h4.01c.36,0,.66-.29.67-.65.11-4.48.66-8.82,1.57-12.96.07-.32-.09-.64-.4-.76l-3.77-1.56c-.38-.16-.82.06-.91.46-1.1,4.76-1.73,9.72-1.85,14.78,0,.38.3.69.67.69"/>
        <path class="cls-1" d="M190.02,93.95c-.23-.36-.73-.41-1.03-.11l-2.9,2.9c-.23.23-.26.58-.08.85.7,1.04,1.43,2.05,2.19,3.03,3.07,3.96,6.52,7.32,10.29,10.04.35.25.84.1,1.01-.29l1.58-3.82c.12-.28.03-.6-.22-.79-4.12-3.11-7.78-7.11-10.84-11.8"/>
        <path class="cls-1" d="M178.06,40.03l3.74,1.55c.37.15.79-.05.9-.44,1.33-4.74,3.16-9.16,5.41-13.18.15-.26.1-.59-.11-.8l-2.95-2.95c-.31-.31-.83-.25-1.05.13-2.69,4.58-4.82,9.58-6.34,14.87-.09.33.08.67.39.8"/>
        <path class="cls-1" d="M188.98,24.94c.3.3.8.25,1.03-.11,3.06-4.68,6.73-8.68,10.84-11.8.24-.18.33-.51.22-.79l-1.58-3.82c-.16-.4-.66-.54-1.01-.29-3.77,2.71-7.22,6.07-10.29,10.04-.76.98-1.49,1.99-2.19,3.03-.18.27-.14.62.08.85l2.9,2.9h0Z"/>
        <path class="cls-1" d="M255.54,27.96c2.25,4.01,4.08,8.44,5.41,13.18.11.39.53.59.9.44l3.74-1.55c.31-.13.48-.48.39-.8-1.52-5.29-3.65-10.3-6.34-14.87-.22-.38-.74-.44-1.05-.13l-2.94,2.95c-.21.21-.26.54-.11.8"/>
        <path class="cls-1" d="M253.64,24.83c.23.36.73.41,1.03.11l2.9-2.9c.23-.23.26-.58.08-.85-.7-1.04-1.43-2.05-2.19-3.03-3.07-3.96-6.52-7.32-10.29-10.04-.35-.25-.84-.1-1.01.29l-1.58,3.82c-.12.28-.03.6.22.79,4.12,3.11,7.78,7.11,10.84,11.8"/>
        <path class="cls-1" d="M242.24,111.91l-1.57-4c-.05-.11-.15-.19-.27-.23-.13-.04-.26-.02-.38.04-4.77,2.75-9.79,5.2-14.95,7.34,2.55.92,5.13,1.76,7.73,2.52,3.12-1.49,6.17-3.1,9.17-4.83.27-.16.38-.48.28-.78v-.06Z"/>
        <path class="cls-1" d="M221.59,122.12s-.02,0-.03,0h0s.02,0,.03,0"/>
        <path class="cls-1" d="M241.66,122.19c-13.22-2.76-26.35-7.75-38.02-14.47-.11-.07-.25-.08-.38-.04-.12.04-.22.12-.28.24l-1.56,3.98-.02.06c-.1.31,0,.63.28.79,4.12,2.38,8.35,4.53,12.69,6.44-.1-.05-.21-.09-.31-.14.11.05.22.1.33.15.53.23,1.06.46,1.59.69,0,0,.02,0,.03,0,1.83.78,3.67,1.51,5.53,2.2h.02c6.03,2.24,12.24,4.05,18.58,5.4.29.06.58-.11.66-.39l1.28-4.21c.1-.32-.1-.65-.42-.72"/>
        <path class="cls-1" d="M221.83,122.21l-.24-.09.24.09Z"/>
        <path class="cls-1" d="M201.89,122.22c-.3.06-.48.36-.39.66l1.27,4.18c.1.33.43.53.77.46,5.06-1.08,10.03-2.44,14.89-4.09-2.63-1.03-5.22-2.15-7.78-3.35-2.91.82-5.83,1.54-8.76,2.15"/>
        <rect class="cls-1" x="210.17" y="44.79" width="1.84" height="6.13"/>
        <path class="cls-1" d="M252.6,84.41c.08-.17.15-.34.23-.51,3.16-7.16,4.86-15.31,4.91-23.82h-22.02v18.2h-1.83v-21.87h-1.84v21.87h-1.83v-25.54h-2.41l-.25-.14-4.01-2.17-.25-.13-.12-.31s-.47-1.15-1.15-1.15-1.14,1.14-1.15,1.15l-.12.31-.25.13-4.01,2.17-.25.14h-2.41v25.54h-1.83v-21.87h-1.84v21.87h-1.83v-18.2h-22.42c.04,8.51,1.75,16.65,4.91,23.82.08.17.15.34.23.51.2.44.41.89.62,1.32h60.31c.21-.44.42-.88.62-1.32M204.63,72.09v6.2h-7.42v-10.4s3.77-.99,7.42,0v4.2ZM222.02,52.75c1.15,0,2.08,1.23,2.08,2.75s-.93,2.75-2.08,2.75-2.08-1.23-2.08-2.75.93-2.75,2.08-2.75M228.37,62.15v20.13h-12.69v-21.34s6.45-1.92,12.69,0v1.21ZM246.82,72.09v6.2h-7.42v-10.4s3.77-.99,7.42,0v4.2Z"/>
        <path class="cls-1" d="M251.04,87.57h-58.42c.34.62.68,1.23,1.04,1.83h56.34c.36-.6.71-1.21,1.04-1.83"/>
        <path class="cls-1" d="M248.85,91.24h-54.05c.41.62.83,1.23,1.27,1.83h51.51c.44-.6.86-1.21,1.27-1.83"/>
        <path class="cls-1" d="M246.18,94.91h-48.7c.51.63,1.03,1.24,1.57,1.83h45.57c.53-.59,1.06-1.2,1.57-1.83"/>
        <path class="cls-1" d="M242.85,98.57h-42.04c.66.64,1.34,1.25,2.02,1.83h37.99c.69-.58,1.36-1.19,2.02-1.83"/>
        <path class="cls-1" d="M238.45,102.24h-33.24c.95.67,1.92,1.28,2.91,1.83h27.42c.99-.55,1.96-1.16,2.91-1.83"/>
        <path class="cls-1" d="M231.62,105.91h-19.59c3.16,1.21,6.45,1.83,9.8,1.83s6.64-.63,9.8-1.83"/>
        <path class="cls-1" d="M237.48,15.63c-.18-4.11-1.88-7.98-4.79-10.89-2.61-2.61-5.99-4.24-9.62-4.68-.41-.03-.82-.06-1.24-.06s-.8.02-1.2.05c-3.65.43-7.04,2.07-9.66,4.69-2.91,2.91-4.61,6.78-4.79,10.89l-.04.97.97-.04c.83-.04,1.65-.14,2.46-.3.25,6.98,4.18,12.96,9.56,14.5l1.3,1.3c.39.39.9.58,1.41.58s1.02-.19,1.41-.58l1.3-1.3c5.38-1.53,9.3-7.52,9.56-14.5.81.16,1.63.26,2.46.3l.97.04-.04-.97h-.02ZM208.02,14.71c.37-3.29,1.84-6.36,4.2-8.72s5.42-3.83,8.71-4.2c-.37,3.29-1.84,6.36-4.2,8.72s-5.42,3.83-8.72,4.2M226.92,10.51c-2.36-2.36-3.83-5.42-4.2-8.72,3.29.37,6.36,1.84,8.72,4.2s3.83,5.42,4.2,8.72c-3.29-.37-6.36-1.84-8.72-4.2"/>
      </g>
      <rect class="cls-1" x="152.28" y="17.42" width="1.24" height="90.15"/>
      <g>
        <g>
          <path class="cls-1" d="M6.32,38.82H0v-4.22h17.22v4.22h-6.32v16.57h-4.57v-16.57h-.01Z"/>
          <path class="cls-1" d="M19.41,49.78v-10.3h4.51v8.88c0,2.14,1.01,3.24,2.73,3.24s2.82-1.1,2.82-3.24v-8.88h4.51v15.92h-4.51v-2.26c-1.04,1.34-2.38,2.55-4.66,2.55-3.42,0-5.4-2.26-5.4-5.91Z"/>
          <path class="cls-1" d="M36.55,47.52v-.06c0-4.54,3.47-8.29,8.34-8.29,3,0,4.87,1.01,6.35,2.67l-2.76,2.97c-1.01-1.07-2.02-1.75-3.62-1.75-2.26,0-3.86,1.99-3.86,4.34v.06c0,2.44,1.57,4.4,4.04,4.4,1.51,0,2.55-.65,3.65-1.69l2.64,2.67c-1.54,1.69-3.33,2.91-6.5,2.91-4.78,0-8.29-3.68-8.29-8.23h.01Z"/>
          <path class="cls-1" d="M53.44,49.78v-10.3h4.51v8.88c0,2.14,1.01,3.24,2.73,3.24s2.82-1.1,2.82-3.24v-8.88h4.51v15.92h-4.51v-2.26c-1.04,1.34-2.38,2.55-4.66,2.55-3.42,0-5.4-2.26-5.4-5.91Z"/>
          <path class="cls-1" d="M71.35,39.47h4.51v2.26c1.04-1.34,2.41-2.55,4.69-2.55,2.08,0,3.65.92,4.48,2.52,1.4-1.63,3.06-2.52,5.23-2.52,3.36,0,5.37,2.02,5.37,5.85v10.36h-4.51v-8.88c0-2.14-.95-3.24-2.64-3.24s-2.73,1.1-2.73,3.24v8.88h-4.51v-8.88c0-2.14-.95-3.24-2.64-3.24s-2.73,1.1-2.73,3.24v8.88h-4.51v-15.92h-.01Z"/>
          <path class="cls-1" d="M97.89,50.82v-.06c0-3.48,2.64-5.08,6.41-5.08,1.6,0,2.76.27,3.89.65v-.27c0-1.87-1.16-2.91-3.42-2.91-1.72,0-2.94.33-4.39.86l-1.13-3.44c1.75-.77,3.47-1.28,6.18-1.28,2.46,0,4.25.65,5.38,1.78,1.19,1.19,1.72,2.94,1.72,5.08v9.23h-4.37v-1.72c-1.1,1.22-2.61,2.02-4.81,2.02-3,0-5.46-1.72-5.46-4.87h0ZM108.26,49.78v-.8c-.77-.36-1.78-.59-2.88-.59-1.93,0-3.12.77-3.12,2.2v.06c0,1.22,1.01,1.93,2.46,1.93,2.11,0,3.53-1.16,3.53-2.79h.01ZM107.19,32.47l3.89,1.69-3.86,3.56h-3.33l3.3-5.26h0Z"/>
          <path class="cls-1" d="M115.71,39.47h4.51v2.26c1.04-1.34,2.38-2.55,4.66-2.55,3.42,0,5.4,2.26,5.4,5.91v10.3h-4.51v-8.88c0-2.14-1.01-3.24-2.73-3.24s-2.82,1.1-2.82,3.24v8.88h-4.51v-15.92Z"/>
        </g>
        <g>
          <path class="cls-1" d="M21.2,69.01h-6.32v-4.22h17.22v4.22h-6.32v16.57h-4.57v-16.57h0Z"/>
          <path class="cls-1" d="M34.3,79.97v-10.3h4.51v8.88c0,2.14,1.01,3.24,2.73,3.24s2.82-1.1,2.82-3.24v-8.88h4.51v15.92h-4.51v-2.26c-1.04,1.34-2.38,2.55-4.66,2.55-3.42,0-5.4-2.26-5.4-5.91Z"/>
          <path class="cls-1" d="M52.2,69.67h4.51v3.21c.92-2.2,2.41-3.62,5.08-3.5v4.72h-.24c-3,0-4.84,1.81-4.84,5.61v5.88h-4.51s0-15.92,0-15.92Z"/>
          <path class="cls-1" d="M63.99,63.91h4.75v4.01h-4.75v-4.01ZM64.11,69.67h4.51v15.92h-4.51v-15.92Z"/>
          <path class="cls-1" d="M70.91,83.48l1.93-2.97c1.72,1.25,3.53,1.9,5.02,1.9,1.31,0,1.9-.48,1.9-1.19v-.06c0-.98-1.54-1.31-3.3-1.84-2.23-.65-4.75-1.69-4.75-4.78v-.06c0-3.24,2.61-5.05,5.82-5.05,2.02,0,4.22.68,5.94,1.84l-1.72,3.12c-1.57-.92-3.15-1.48-4.31-1.48-1.1,0-1.66.47-1.66,1.1v.06c0,.89,1.51,1.31,3.24,1.9,2.23.74,4.81,1.81,4.81,4.72v.06c0,3.53-2.64,5.14-6.09,5.14-2.23,0-4.72-.74-6.83-2.41h0Z"/>
          <path class="cls-1" d="M86.35,69.67h4.51v2.26c1.04-1.34,2.41-2.55,4.69-2.55,2.08,0,3.65.92,4.48,2.52,1.4-1.63,3.06-2.52,5.23-2.52,3.36,0,5.37,2.02,5.37,5.85v10.36h-4.51v-8.88c0-2.14-.95-3.24-2.64-3.24s-2.73,1.1-2.73,3.24v8.88h-4.51v-8.88c0-2.14-.95-3.24-2.64-3.24s-2.73,1.1-2.73,3.24v8.88h-4.51v-15.92h0Z"/>
          <path class="cls-1" d="M113.07,77.71v-.06c0-4.57,3.68-8.29,8.64-8.29s8.58,3.65,8.58,8.23v.06c0,4.57-3.68,8.28-8.64,8.28s-8.58-3.65-8.58-8.23h0ZM125.84,77.71v-.06c0-2.35-1.69-4.4-4.19-4.4s-4.13,1.99-4.13,4.34v.06c0,2.35,1.69,4.4,4.19,4.4s4.13-1.99,4.13-4.34Z"/>
        </g>
      </g>
    </g>
  </g>
</svg>