<?xml version="1.0" encoding="UTF-8"?>
<svg xmlns="http://www.w3.org/2000/svg" version="1.1" viewBox="0 0 1920 1407.1">
  <defs>
    <style>
      .cls-1 {
        isolation: isolate;
      }

      .cls-2 {
        fill: #82bf73;
      }
    </style>
  </defs>
  <!-- Generator: Adobe Illustrator 28.6.0, SVG Export Plug-In . SVG Version: 1.2.0 Build 709)  -->
  <g>
    <g id="Capa_1">
      <g class="cls-1">
        <g id="Capa_1-2" data-name="Capa_1">
          <path class="cls-2" d="M0,223.6s39.3-10.4,117.1,0c77.8,10.4,96,0,179-25.9s318.3-38.9,318.3-38.9c0,0,97.4,23.4,194.3,0,29.9-7.2,53.7-13.2,72.3-18,31.7-8.2,65.1-4.7,94.8,9,15.5,7.1,35.5,13.2,59.7,14.2,62.1,2.6,27.8,25.9,96.8,2.6s19.7,10.4,69-23.4c49.3-33.7,168.6-64.8,184.2-72.6,15.6-7.8,31.1-6.5,59.7-18.8s85.6-37.7,134.9-32.8c49.3,4.9,33.7-7.6,88.2,1.2,54.5,8.9,67.4,12,111.5-1.2,44.1-13.2,114.1-18.4,121.9-18.4s19.2,1.3,19.2,1.3v1405.3H0V223.6h0Z"/>
        </g>
      </g>
    </g>
  </g>
</svg>