<?xml version="1.0" encoding="UTF-8"?>
<svg xmlns="http://www.w3.org/2000/svg" version="1.1" viewBox="0 0 226.1 214.9">
  <defs>
    <style>
      .cls-1 {
        fill: #fff;
      }
    </style>
  </defs>
  <!-- Generator: Adobe Illustrator 28.6.0, SVG Export Plug-In . SVG Version: 1.2.0 Build 709)  -->
  <g>
    <g id="Capa_1">
      <g id="Capa_11">
        <g>
          <g>
            <path class="cls-1" d="M27.5,39.8c-2.2,0-4.2-.3-6.1-1s-3.5-1.7-4.9-3-2.4-2.8-3.2-4.6c-.8-1.8-1.1-3.7-1.1-5.8s.4-4.1,1.1-5.8c.8-1.8,1.8-3.3,3.2-4.6,1.4-1.3,3-2.3,4.9-3s3.9-1,6.1-1,5.1.5,7.2,1.4,3.8,2.3,5.2,4.1l-5.9,5.2c-.8-1-1.7-1.8-2.7-2.4s-2.1-.9-3.3-.9-1.9.2-2.6.5c-.8.3-1.5.8-2,1.4s-1,1.3-1.3,2.2c-.3.9-.5,1.8-.5,2.9s.2,2,.5,2.9.8,1.6,1.3,2.2,1.2,1.1,2,1.4,1.7.5,2.6.5,2.4-.3,3.3-.9c1-.6,1.9-1.4,2.7-2.4l5.9,5.3c-1.4,1.8-3.1,3.1-5.2,4.1-2.1,1-4.5,1.4-7.2,1.4h0Z"/>
            <path class="cls-1" d="M42.6,39.2V11.6h9.3v27.6h-9.3Z"/>
            <path class="cls-1" d="M56.4,39.2V11.6h13.3c2.6,0,4.8.4,6.7,1.3s3.3,2.1,4.4,3.6c1,1.6,1.5,3.4,1.5,5.5s-.5,4-1.5,5.5-2.5,2.7-4.4,3.5-4.1,1.2-6.7,1.2h-8.1l4.1-3.8v10.8h-9.3ZM65.7,29.5l-4.1-4.2h7.5c1.3,0,2.2-.3,2.9-.9s.9-1.4.9-2.4-.3-1.8-.9-2.4-1.6-.9-2.9-.9h-7.5l4.1-4.2v14.9h0ZM72.9,39.2l-6.8-10.1h9.9l6.9,10.1h-10Z"/>
            <path class="cls-1" d="M100.1,39.8c-2.2,0-4.2-.3-6.1-1s-3.5-1.7-4.9-3-2.4-2.8-3.2-4.6c-.8-1.8-1.2-3.7-1.2-5.8s.4-4.1,1.2-5.8c.8-1.8,1.8-3.3,3.2-4.6,1.4-1.3,3-2.3,4.9-3s3.9-1,6.1-1,5.1.5,7.2,1.4,3.8,2.3,5.2,4.1l-5.9,5.2c-.8-1-1.7-1.8-2.7-2.4s-2.1-.9-3.3-.9-1.8.2-2.6.5-1.5.8-2,1.4-1,1.3-1.3,2.2c-.3.9-.5,1.8-.5,2.9s.2,2,.5,2.9.8,1.6,1.3,2.2,1.2,1.1,2,1.4,1.7.5,2.6.5,2.3-.3,3.3-.9,1.9-1.4,2.7-2.4l5.9,5.3c-1.4,1.8-3.1,3.1-5.2,4.1s-4.5,1.4-7.2,1.4h0Z"/>
            <path class="cls-1" d="M128,39.8c-4.2,0-7.5-1.1-9.9-3.4-2.4-2.3-3.6-5.5-3.6-9.6v-15.2h9.3v14.9c0,2.1.4,3.6,1.1,4.5s1.8,1.3,3.1,1.3,2.4-.4,3.1-1.3,1.1-2.4,1.1-4.5v-14.9h9.2v15.2c0,4.1-1.2,7.3-3.6,9.6-2.4,2.3-5.7,3.4-9.9,3.4h0Z"/>
            <path class="cls-1" d="M145.7,39.2V11.6h9.3v27.6h-9.3Z"/>
            <path class="cls-1" d="M165.5,39.2v-20.4h-8.1v-7.2h25.5v7.2h-8.1v20.4h-9.3,0Z"/>
            <path class="cls-1" d="M199.5,39.8c-2.3,0-4.4-.3-6.2-1.1s-3.6-1.7-4.9-3-2.5-2.8-3.3-4.6c-.8-1.8-1.2-3.7-1.2-5.8s.4-4,1.2-5.8,1.9-3.3,3.3-4.6c1.4-1.3,3-2.3,4.9-3s4-1.1,6.2-1.1,4.3.4,6.2,1.1c1.9.7,3.5,1.7,4.9,3,1.4,1.3,2.5,2.8,3.3,4.6s1.2,3.7,1.2,5.8-.4,4-1.2,5.8-1.9,3.3-3.3,4.6c-1.4,1.3-3,2.3-4.9,3s-4,1.1-6.2,1.1h0ZM199.4,32.3c.9,0,1.7-.2,2.4-.5.8-.3,1.4-.8,2-1.4s1-1.3,1.3-2.2c.3-.9.5-1.8.5-2.9s-.2-2-.5-2.9-.8-1.6-1.3-2.2c-.6-.6-1.2-1-2-1.4-.8-.3-1.6-.5-2.4-.5s-1.7.2-2.4.5-1.4.8-2,1.4-1,1.3-1.3,2.2-.5,1.8-.5,2.9.2,2,.5,2.9.8,1.6,1.3,2.2c.6.6,1.2,1,2,1.4.8.3,1.6.5,2.4.5Z"/>
          </g>
          <polygon class="cls-1" points="139.9 189.6 128.1 177.8 118.8 187 109.6 177.8 100.3 187 91 177.8 79.2 189.6 91 201.4 100.3 192.2 109.6 201.4 118.8 192.2 128.1 201.4 139.9 189.6"/>
          <g>
            <path class="cls-1" d="M196.7,171.3c1-1.9,1.3-3.5,1.4-5.1l-.7-1.3c0,.6,0,1.2-.3,1.9.4,1.2-.6,3.1-.4,4.5h0Z"/>
            <path class="cls-1" d="M200.7,148.7c-.1.3,0,.7-.1,1.1-.3,1.3-1.3,2.9-1.8,4.5-.2.7-.4,1.4-.6,2,1.4-1.1,2.7-2.2,3.8-3.5.2-.4.4-.9.5-1.3-.2-1.5.9-3,1.4-4.6.4-1.4.6-3.1,1.1-4.7.4-1.4,1-2.9,1.4-4.4.2-.4.5-.6.8-1.1.5-2.2.6-4,1.1-6.3,0-.7-.3-1.8.2-2.5-.3,0-.4-.2-.6-.3,0,1.1-.8,1.8-1.1,2.7-.2.5-.1,1.1-.2,1.5-.2.7-.5,1.3-.8,2-1.1,3.5-2,7.4-3.2,10.2-.2.4-.6.8-.7,1.2v.8c-.3.9-.9,1.8-1.2,2.6h0Z"/>
            <path class="cls-1" d="M151.9,106.7c-.2.2,0,.2-.2.6.3.2.5-.6.2-.6Z"/>
            <path class="cls-1" d="M207.2,123c.9.7,1,2.2,1.1,3.7.2-1.2.5-2.2.7-3.2v-6.3c-.2.6-.4.9-.6,1.5-.6,1.4-.8,2.8-1.2,4.3Z"/>
            <path class="cls-1" d="M198.9,168.1c-.2-.2-.3.2-.4.2-.5,1.8-1.1,2.9-1.7,4.5-.9,2.7-.7,5.2-1.3,7.6-1,4.1-2.2,7.9-3.2,11.3-.2.6-.1,1.4-.7,1.7-.1-5,3.9-12.8,3.7-17.4-.5.4-.8,1.3-.9,2.3-2.5,3.6-5.7,4.8-8.5,7.2-.1.3-.2.5-.2.7l7.4,15.2h23.2l-17.2-33.5h0c0,.1-.2.2-.2.2Z"/>
            <path class="cls-1" d="M188.6,181.2c1.3-1.5,2.7-2.7,4.1-4.1,1.8-5,1.7-9.5,1.9-13.8.1-.1.2-.4.3-.7-.4-.8-.1-1.8,0-2.8l-.5-1c.4-.2.7-.4,1-.6-.4-2.4,1.4-5.8,1.5-8.2,1.3-2.8,1.7-6.4,2.9-8.5.9-2.8,1.8-5.6,2.5-8.1.5-1.8.3-3.4.7-5.1,0-.5.6-1.5.8-2,.1-.4.1-.9.2-1.2.8-1.5,2.2-1.3,2.9-3.5.2-.5-.2-.4-.2-.7.4-1,.7-2.5,1.4-2.8.5-2,.8-3.9,1.2-5.8v-12.6c-1,1.6-2,3.1-2.4,5.5h-.3c0,.8-.7,1.2-1,2.1-.4,1.3,0,2.6,0,3.7-.2.2-.4.4-.6.6-.4-.7-.1-2-.1-2.9s-.1-1.4.5-2.9c.4-.8,1-1.4,1.3-2.2.3-.7.3-1.8.8-2v-.9c.3-.6.7-.7.9-1.7.4-.2.7-.5,1-.9v-12.2c0-1.4,0-2.8-.1-4.2-.2.8-.6,1.7-1,2.5-.2-.7.4-1.1.5-1.6.1-.4.3-.8.4-1.3-1.3-17.5-10.6-26.3-28-26.3h-30.8v54.8c.2-.7.5-1.3.9-2,.3-.2.2,0,.3.2-.3-2.2,1.8-3.5,2.3-5.6.2.2.3-.2.4-.2.5-1.8,1.1-2.9,1.7-4.5.9-2.7.7-5.2,1.3-7.7,1-4.1,2.2-7.9,3.2-11.3.2-.6.1-1.3.7-1.7.1,5-3.9,12.8-3.7,17.4.5-.4.8-1.3.9-2.3,2.5-3.6,5.7-4.8,8.5-7.2.5-1.4.2-1.2.5-2.8-.1-1.2-1.3-2-.9-3.3-1.5-1.7-.7-5.4-.1-9,.3-1.8.3-2.4,1-4.4.3-.9.8-1.3,1.1-1.9v-.6c.4-.8,1.3-1.5,1.8-2.4.4-.7.3-1.7,1-2,.3-1.4,1.2-3,2-3.6.8.5-.6,1.8-.2,2.2-.1.3-.3.3-.4.5-1,4.7-4.3,6.8-5.3,11.6s-.7,4.4-.9,6.8c.3.3.7.9.6,1.9.6,1.7,1.5,4,1.3,6.8-1.2,2.3-2.7,3.3-4.2,4.4-1.3,1.5-2.7,2.7-4.1,4.1-1.8,5-1.7,9.5-1.9,13.8-.1.2-.2.4-.3.7.5,1-.1,2.4,0,3.8,0,.5-.4,0-.4.5.4,2.4-1.4,5.8-1.5,8.2-1.3,2.8-1.7,6.4-2.9,8.5-.9,2.8-1.8,5.6-2.5,8.1-.1.4-.2.8-.2,1.2v63.1h21.1v-38.8h2.9l10.7,22.1c1.1-1.6,2.4-2.5,3.7-3.4h0l-.2.2ZM171.3,142.4v-66.8h7.5c6.1,0,9.2,3.3,9.2,10v46.8c0,4.7-1.9,7.8-5.8,9.3-1.1.4-3.1.6-6.1.6h-4.9.1Z"/>
            <path class="cls-1" d="M150.1,125.9c.2-.2.4-.5.4-.8v-.8c.3-.9.9-1.8,1.2-2.6.1-.3,0-.7.1-1.1.3-1.3,1.3-2.9,1.8-4.5.2-.8.4-1.4.6-2.1.5-1.7.3-2.4.4-3.6,0-.9.4-2,.4-2.9s-.2-2.5.3-3.9c-.4-1.2.6-3.1.4-4.5-1.9,3.6-1.2,6.1-1.9,9.6-.9,1.6-1.4,3.9-2.2,5.2,0,1.3-1,3.1-1.6,4.6v7.4h.1Z"/>
          </g>
          <path class="cls-1" d="M60.7,198.5c1.4-5.6-.5-10.6-.9-16.1-.7-1-.2-3.1-.7-4.5-1,5.4,1.5,10.3-.4,15.3.3,1.9-.8,4.6-.3,6.7.8-.4,1.6-.9,2.3-1.4h0Z"/>
          <path class="cls-1" d="M57.1,186.3c-.2.3,0,.2,0,.6.3.1.4-.7,0-.6Z"/>
          <path class="cls-1" d="M64.7,154.8c8.5,10.8-8.7,12.6-1.5,30.4,0,.2,0,.4,0,.8,1.2,2.9,1,6.1,1,9.6,10.2-10.9,9.1-35.1-1.1-47.2.2,1.6.4,3,.6,4.7.3.3.9.7,1,1.7h0Z"/>
          <g>
            <path class="cls-1" d="M91.4,166.7c0-.4,0-.2-.4-.2,0-.4.4-.6.3-1.4,0-.4-.3-.5-.4-.6,0,.6,0,.7,0,1.2-.3.1-.5.5-.7.8,0,.1,0,.2.2.4.2.2.5.3.7.5,0-.3,0-.6.2-.7h.1Z"/>
            <path class="cls-1" d="M81.1,57.5c-.5,1.8-.4,4.2-.9,5.5.3,1.4-.3,3.7-.5,5.4.6,1.4-.2,3.1-.2,4.8s0,3.2,0,4.8c0,1.3-.2,2.6-.3,4v8.4c.3.7.7,1.6.3,2.3.3,0,.4,0,.6.2-.2-1.1.4-1.9.4-2.9s0-1.1,0-1.6.2-1.4.2-2.2c.2-3.7.2-7.7.7-10.6,0-.4.4-.9.4-1.4s-.2-.6-.2-.8c0-.9.5-1.9.5-2.8s-.2-.7-.2-1.1c0-1.3.6-3.1.6-4.8v-2.2c0-1.8-.3-2.4-.5-3.6-.2-.9,0-2.1-.3-2.9,0-.4-.2-.8-.3-1.2h-.8c0,.8.3,1.7.3,2.6h.3Z"/>
            <path class="cls-1" d="M82,146c0-1-.4-1.7,0-2.6-.4-1.7-1.9-3.1-2.1-5.3-.2-2.8.8-4.8,1.7-6.3,0-1.6-.5-3.7,0-5.6-.8-2.3,0-5.7-.3-8.3.5-1.3.2-3,.2-4.6s.4-4,.4-6-.2-1.5-.2-2.3c0-1.8,0-2.2.3-3.2.2-1.5,0-2.9,0-4.5-1.1-.4-1.5-1.9-1.9-3.3,0,3.1,0,5.3.2,7.9-.3.7-.2,1.8-.4,2.6,0,.3-.3.5-.4.8v1.5c0,.3,0,.6-.2.9v33.2c0,3.7.3,7.1,1,10.2.4.1.8.2,1.3.4-.3-2.2.4-3.9.5-5.4h-.2Z"/>
            <path class="cls-1" d="M118.8,54.9v85.9c0,6.6-3.1,9.9-9.3,9.9s-9.2-3.3-9.2-9.9V54.9h-15.7c0,.2,0,.4,0,.8.7.9.5,2.4.9,3.7,0,.5-.3.2-.3.6,1,2.2,0,6,.6,8.4-.6,3,0,6.6-.7,8.9-.2,2.9-.3,5.8-.4,8.5,0,1.8.5,3.4.6,5.1,0,.5-.2,1.6-.2,2.2s0,.9,0,1.2c-.3,1.7-1.8,1.8-2,4.1,0,.6.3.3.3.6-.2,1.1,0,2.6-.6,3.1,0,3.3.6,6.1,0,9.4.3,4.5-.8,9.8.4,13.8,0,1.6.4,2.1.3,3.7.6-.9,1.1-2,1.6-3.2-.2-4.6,2.3-6.8,2-11.5h.3c-.2-.9.4-1.4.4-2.3,0-1.4-.6-2.6-.9-3.6.2-.2.3-.5.5-.8.6.6.6,1.9.8,2.8.2.7.5,1.4.2,2.9-.2.9-.6,1.6-.7,2.4,0,.8,0,1.8-.2,2.2,0,.4,0,.6.2.9,0,.6-.5.9-.4,1.8-1.4,1.2-1.1,4.5-1.3,6.8,0,.5-.3.2-.4.4.3,3.8-.2,6.9,0,10.3,0,2.3.6,4.2.3,7.1,0,.5-.2.4-.4.6.3.8.3,2.2.6,3.1.4-.1.7-1.2,1-.9-.2.5-.6.7-.9,1.1-.3,3,.5,5.7.7,8.8.5,0,.5-.9.9-1.1,0,.2,0,.7,0,1.1.4,0,.6-.5.8-.9,0-.4-.3.3-.5-.2,0-.8.3-1.3.9-1.2,0-.7,0-1.2.5-1.4.4-4.1,0-6.6.8-10,0-1.7.2-4.1.6-5.5,0-1,0-2.5.3-3.9.4.6,0,1.1,0,1.7-.2,2.5,0,5.2-.4,7.7,0,1.3-.4,2.2-.4,4.2s0,.4.2.8c.2,2.3-.4,4.9-.2,7.2.5-.1.9-.6,1.1-1.2v-6.3c1,.4.9,1.6,1.1,3.1,0,.5-.2,1.1-.4,1.4,0,4.8.4,9.2-.4,13.9,4.7,2.7,10.7,4.1,18.1,4.1,20.3,0,30.4-10.3,30.4-30.9V54.9h-21.2Z"/>
          </g>
          <g>
            <path class="cls-1" d="M10.8,84.4c-.2.2-.3.2-.4.2,0,1-.1,2.1-.1,3.1.7-1.8,1.3-4.6,1-5.8-.3,0-.5.2-.7.5,0,.4,0,.9-.1,1.3.1.2.3.3.4.6h0Z"/>
            <path class="cls-1" d="M11.6,81.6c0-.4,0-.7-.2-.9-.1.2-.3.4-.5.7.2.3.4.6.7.2h0Z"/>
            <path class="cls-1" d="M40.8,52.6c-9.8-.4-16.5,2-21,6.1-.3.9-.5,1.8-.7,2.8-.4,2.2-.5,4.2-1.4,7,0,.5-.3.4-.5.5.1.8-.2,2.2-.2,3.2.4,0,.9-1,1.2-.6-.3.4-.7.5-1.1.8-1.1,2.8-.9,5.7-1.5,8.7.5,0,.7-.8,1.2-.8-.2.2-.3.6-.4,1,.4,0,.7-.3,1-.7,0-.4-.4.2-.4-.3.3-.7.6-1.2,1.1-1,.2-.6.3-1.2.8-1.2,1.4-3.9,1.5-6.5,3.2-9.5.5-1.6,1.2-3.9,1.9-5.2.1-1,.6-2.4,1.2-3.7.2.7-.4,1.1-.5,1.6-.8,2.4-1.3,5-2.2,7.4-.5,1.2-.9,2.1-1.4,3.9v.8c-.3,2.3-1.6,4.6-1.9,7,.5,0,1-.4,1.4-.9.8-2.9,1-4.3,1.5-6.2.8.7.5,1.7.4,3.3-.2.5-.4,1-.7,1.2-1.2,5.2-2,10-4.5,14.9,0-.2,0,0-.1,0,0-.5.1-1.3.2-1.9v.6c.6-.2.1-1.2.7-1.2,0-.4,0-.2-.3-.2.2-.4.5-.4.6-1.3,0-.4-.1-.5-.3-.7-.2.5,0,.7-.2,1.2-.3,0-.6.4-.8.6,0,.2.2.2,0,.5-.2.6-.1,0-.3,0-.4.7-1,1.8-.4,2.3-.7.7-1.8,3-1.1,4-1.2,1.5-.8,6.2-2.5,7.6-.2,1.6-.5,2.7-1.1,3.8-.3,2.1-.7,4.5-1.2,6.9.2,3.2.8,6.2,1.7,8.9h0c-.2-1.6.8-3.6,1.1-5.8.3-2.2.1-4.3,0-6.1,0-.3.2-.4.2-.6-.1-.8,0-1.2,0-2.1.2.2.2,0,.5,0-.1,0-.2,0-.3.4s.1.4.2.7c-.8,1,0,2.6-.4,3.7.6,1.1.6,2.3.4,3.8-.2,1.3-.8,2.4-1.2,3.7-.2.8-.4,1.6-.6,2.5,7.6,22.1,35.1,29.7,37.8,48.5,1.3,13.4-19.7,13.3-18.5,0v-10.3H10.4c-3.5,32.1,14.3,48,45.1,38.7,0-.2,0-.4,0-.6-.3-4.4.5-8.9.9-13.3.2-.3.2,0,.4.2-.8-2,.9-3.8.8-6,.3.2.2-.2.4-.3,1.1-8.6-.9-17.9.6-26.1,1.4,4.9-.7,13.4.6,17.8.3-4.8,4.2-8.2,6.9-11.5.6-2.7-1.3-3.6-1.8-5.8-1.8-1.3-2-5-2.3-8.6-30.9-26.8-31.6-22.5-30.4-63.8-1.3-13.4,19.7-13.2,18.5,0v35.8h21.1c-1-25.4,8.4-68.6-30.4-66.6h0v.3Z"/>
            <path class="cls-1" d="M13.9,68.1c.2-.5.2-.9.2-1.4-.9,2-1.6,4.1-2.1,6.4h.1c.2-2.2,1.3-3.7,1.8-5.1h0Z"/>
          </g>
        </g>
      </g>
    </g>
  </g>
</svg>