<?xml version="1.0" encoding="UTF-8"?>
<svg xmlns="http://www.w3.org/2000/svg" version="1.1" viewBox="0 0 226.14 214.95">
  <defs>
    <style>
      .cls-1 {
        fill: #206c60;
      }
    </style>
  </defs>
  <!-- Generator: Adobe Illustrator 28.6.0, SVG Export Plug-In . SVG Version: 1.2.0 Build 709)  -->
  <g>
    <g id="Capa_1">
      <g>
        <g>
          <path class="cls-1" d="M27.53,39.82c-2.21,0-4.25-.35-6.14-1.04-1.88-.7-3.51-1.69-4.89-2.98-1.38-1.29-2.45-2.81-3.22-4.58-.76-1.76-1.15-3.71-1.15-5.84s.38-4.08,1.15-5.84c.76-1.76,1.84-3.29,3.22-4.58,1.38-1.29,3.01-2.28,4.89-2.98,1.88-.7,3.93-1.04,6.14-1.04,2.71,0,5.11.47,7.2,1.42,2.09.95,3.82,2.31,5.19,4.1l-5.88,5.25c-.81-1.03-1.72-1.82-2.7-2.39s-2.1-.85-3.34-.85c-.97,0-1.85.16-2.64.47-.79.31-1.47.78-2.03,1.38s-1.01,1.34-1.32,2.19c-.32.86-.47,1.81-.47,2.86s.16,2.01.47,2.86.76,1.58,1.32,2.19,1.24,1.07,2.03,1.38c.79.32,1.67.48,2.64.48,1.24,0,2.35-.28,3.34-.85s1.89-1.36,2.7-2.39l5.88,5.25c-1.37,1.76-3.1,3.13-5.19,4.08-2.09.96-4.49,1.44-7.2,1.44Z"/>
          <path class="cls-1" d="M42.61,39.19V11.57h9.31v27.62h-9.31Z"/>
          <path class="cls-1" d="M56.42,39.19V11.57h13.3c2.58,0,4.81.42,6.69,1.26s3.34,2.05,4.36,3.61c1.03,1.56,1.54,3.41,1.54,5.54s-.51,3.97-1.54,5.5c-1.03,1.54-2.48,2.72-4.36,3.53-1.88.81-4.11,1.22-6.69,1.22h-8.13l4.14-3.83v10.77h-9.31ZM65.73,29.45l-4.14-4.22h7.54c1.29,0,2.24-.29,2.86-.87.62-.58.93-1.37.93-2.37s-.31-1.79-.93-2.37-1.57-.87-2.86-.87h-7.54l4.14-4.22v14.92ZM72.95,39.19l-6.79-10.06h9.87l6.87,10.06h-9.95Z"/>
          <path class="cls-1" d="M100.1,39.82c-2.21,0-4.25-.35-6.14-1.04-1.88-.7-3.51-1.69-4.89-2.98-1.38-1.29-2.45-2.81-3.22-4.58-.76-1.76-1.15-3.71-1.15-5.84s.38-4.08,1.15-5.84c.76-1.76,1.84-3.29,3.22-4.58,1.38-1.29,3.01-2.28,4.89-2.98,1.88-.7,3.93-1.04,6.14-1.04,2.71,0,5.11.47,7.2,1.42,2.09.95,3.82,2.31,5.19,4.1l-5.88,5.25c-.81-1.03-1.72-1.82-2.7-2.39-.99-.57-2.1-.85-3.34-.85-.97,0-1.85.16-2.64.47-.79.31-1.47.78-2.03,1.38s-1.01,1.34-1.32,2.19c-.32.86-.47,1.81-.47,2.86s.16,2.01.47,2.86c.32.85.76,1.58,1.32,2.19s1.24,1.07,2.03,1.38c.79.32,1.67.48,2.64.48,1.24,0,2.35-.28,3.34-.85s1.89-1.36,2.7-2.39l5.88,5.25c-1.37,1.76-3.1,3.13-5.19,4.08-2.09.96-4.49,1.44-7.2,1.44Z"/>
          <path class="cls-1" d="M128,39.82c-4.23,0-7.54-1.14-9.9-3.43-2.37-2.29-3.55-5.5-3.55-9.63v-15.19h9.31v14.92c0,2.1.38,3.6,1.14,4.48s1.79,1.32,3.08,1.32,2.35-.44,3.1-1.32,1.12-2.37,1.12-4.48v-14.92h9.16v15.19c0,4.13-1.19,7.34-3.55,9.63-2.37,2.29-5.67,3.43-9.91,3.43Z"/>
          <path class="cls-1" d="M145.72,39.19V11.57h9.31v27.62h-9.31Z"/>
          <path class="cls-1" d="M165.53,39.19v-20.4h-8.09v-7.22h25.49v7.22h-8.09v20.4h-9.31Z"/>
          <path class="cls-1" d="M199.47,39.82c-2.26,0-4.35-.35-6.25-1.06s-3.56-1.72-4.95-3.02c-1.39-1.3-2.48-2.83-3.26-4.6-.78-1.76-1.17-3.68-1.17-5.76s.39-4.03,1.17-5.78c.78-1.75,1.86-3.28,3.26-4.58,1.39-1.3,3.04-2.31,4.95-3.02,1.91-.71,3.98-1.06,6.21-1.06s4.34.35,6.23,1.06c1.9.71,3.54,1.72,4.93,3.02,1.39,1.3,2.48,2.83,3.26,4.58.78,1.75,1.16,3.68,1.16,5.78s-.39,4-1.16,5.76c-.78,1.76-1.86,3.3-3.26,4.6-1.39,1.3-3.04,2.31-4.93,3.02-1.89.71-3.96,1.06-6.2,1.06ZM199.43,32.29c.87,0,1.68-.16,2.43-.48.75-.31,1.41-.77,1.97-1.36.57-.59,1.01-1.32,1.32-2.17.31-.85.47-1.82.47-2.9s-.16-2.05-.47-2.9c-.32-.85-.76-1.58-1.32-2.17-.57-.59-1.22-1.05-1.97-1.36-.75-.32-1.56-.47-2.43-.47s-1.68.16-2.43.47c-.75.31-1.41.77-1.97,1.36-.57.59-1.01,1.32-1.32,2.17s-.47,1.82-.47,2.9.16,2.05.47,2.9c.32.86.76,1.58,1.32,2.17.57.59,1.22,1.05,1.97,1.36.75.32,1.56.48,2.43.48Z"/>
        </g>
        <polygon class="cls-1" points="139.92 189.6 128.07 177.75 118.81 187.01 109.55 177.75 100.29 187.01 91.03 177.75 79.19 189.6 91.03 201.44 100.29 192.18 109.55 201.44 118.81 192.18 128.07 201.44 139.92 189.6"/>
        <g>
          <path class="cls-1" d="M196.67,171.32c.99-1.9,1.27-3.49,1.42-5.1l-.66-1.28c-.02.61-.09,1.24-.33,1.85.39,1.16-.58,3.06-.43,4.54Z"/>
          <path class="cls-1" d="M200.68,148.7c-.11.34-.03.74-.11,1.09-.31,1.28-1.32,2.9-1.75,4.48-.21.73-.38,1.35-.57,2.01,1.42-1.05,2.67-2.23,3.8-3.5.2-.45.39-.89.54-1.29-.22-1.53.92-2.98,1.39-4.58.42-1.45.65-3.12,1.12-4.66.43-1.42.98-2.9,1.44-4.41.25-.38.54-.64.78-1.06.5-2.22.56-4.03,1.09-6.27-.07-.74-.33-1.82.22-2.5-.31,0-.39-.22-.58-.32-.03,1.08-.82,1.76-1.15,2.73-.16.48-.12,1.06-.24,1.54-.17.72-.53,1.32-.76,2.03-1.12,3.49-2.01,7.41-3.24,10.16-.18.4-.57.81-.73,1.24-.05.14,0,.66-.03.79-.26.89-.94,1.76-1.2,2.55Z"/>
          <path class="cls-1" d="M151.85,106.74c-.23.25-.05.19-.17.6.31.21.54-.62.17-.6Z"/>
          <path class="cls-1" d="M207.24,122.96c.94.68.96,2.22,1.09,3.67.24-1.16.49-2.18.73-3.16v-6.33c-.19.55-.38.91-.62,1.51-.56,1.41-.81,2.83-1.2,4.31Z"/>
          <path class="cls-1" d="M198.93,168.11c-.23-.25-.28.17-.44.2-.46,1.82-1.14,2.95-1.67,4.5-.9,2.66-.7,5.2-1.32,7.65-1.04,4.13-2.24,7.87-3.24,11.28-.18.62-.12,1.35-.69,1.73-.15-5.04,3.89-12.81,3.74-17.41-.52.44-.75,1.34-.95,2.3-2.53,3.55-5.66,4.82-8.51,7.2-.1.29-.17.5-.21.68l7.36,15.18h23.16l-17.18-33.48c-.01.05-.04.1-.05.15Z"/>
          <path class="cls-1" d="M188.55,181.21c1.32-1.52,2.72-2.74,4.07-4.14,1.83-5.03,1.67-9.54,1.9-13.75.12-.15.23-.36.3-.72-.37-.78-.13-1.75-.01-2.78l-.53-1.04c.36-.18.66-.41,1.01-.61-.39-2.4,1.42-5.78,1.48-8.18,1.34-2.75,1.66-6.39,2.88-8.49.86-2.75,1.76-5.59,2.48-8.12.51-1.77.32-3.45.66-5.11.09-.46.59-1.48.76-2.03.12-.39.11-.94.24-1.22.75-1.53,2.21-1.3,2.91-3.51.25-.53-.22-.38-.19-.69.44-1,.73-2.52,1.36-2.82.5-1.99.76-3.88,1.2-5.78v-12.55c-.98,1.55-1.97,3.11-2.43,5.49l-.27-.07c-.03.92-.73,1.3-.98,2.13-.4,1.32-.04,2.63.03,3.69-.23.17-.44.41-.65.62-.42-.71-.15-2-.15-2.92,0-.75-.11-1.45.52-2.9.36-.83.98-1.38,1.29-2.21.28-.74.32-1.8.76-2.03.07-.36.06-.64.07-.94.28-.58.68-.73.85-1.69.38-.2.69-.53.97-.94v-12.17c0-1.45-.06-2.84-.15-4.19-.22.81-.56,1.71-.96,2.54-.2-.68.36-1.09.54-1.61.14-.41.27-.84.39-1.26-1.33-17.49-10.64-26.28-27.98-26.33h-30.78v54.85c.23-.67.54-1.33.85-1.96.27-.25.16.11.31.25-.27-2.16,1.84-3.47,2.27-5.62.23.25.28-.17.44-.2.46-1.82,1.14-2.95,1.67-4.5.9-2.66.7-5.2,1.32-7.65,1.04-4.13,2.24-7.87,3.24-11.28.18-.62.12-1.35.69-1.73.15,5.04-3.89,12.81-3.74,17.41.52-.44.75-1.34.95-2.3,2.53-3.55,5.66-4.82,8.51-7.2.52-1.45.17-1.22.5-2.75-.11-1.21-1.28-1.98-.88-3.31-1.47-1.71-.74-5.37-.1-9.03.32-1.8.33-2.45.98-4.38.29-.86.82-1.3,1.13-1.92.04-.09-.04-.4.08-.62.43-.77,1.29-1.45,1.75-2.39.37-.74.31-1.65.96-1.97.33-1.41,1.2-2.99,2-3.6.79.51-.63,1.77-.16,2.2-.11.29-.29.34-.44.52-1.03,4.67-4.32,6.81-5.3,11.65-.49,2.41-.69,4.38-.9,6.81.26.35.74.91.6,1.94.61,1.69,1.53,3.99,1.32,6.8-1.19,2.33-2.74,3.27-4.25,4.4-1.32,1.52-2.72,2.74-4.07,4.14-1.83,5.03-1.67,9.54-1.9,13.75-.12.15-.23.36-.3.72.5,1.04-.11,2.44-.03,3.84-.06.5-.35.12-.44.52.44,2.4-1.42,5.82-1.47,8.25-1.34,2.75-1.66,6.39-2.88,8.49-.86,2.75-1.76,5.59-2.48,8.12-.12.41-.19.82-.25,1.23v63.08h21.14v-38.84h2.91l10.69,22.06c1.09-1.65,2.41-2.48,3.68-3.45ZM171.27,142.43v-66.78h7.47c6.12,0,9.19,3.34,9.19,10.01v46.83c0,4.68-1.92,7.79-5.75,9.34-1.1.4-3.11.6-6.05.6h-4.85Z"/>
          <path class="cls-1" d="M150.13,125.93c.17-.25.35-.51.45-.78.05-.14,0-.66.03-.79.26-.89.94-1.76,1.2-2.55.11-.34.03-.74.11-1.09.31-1.28,1.32-2.9,1.75-4.48.21-.76.4-1.4.59-2.08.46-1.72.26-2.44.35-3.59.07-.95.39-2.03.44-2.92.07-1.05-.21-2.54.34-3.92-.39-1.16.58-3.06.43-4.54-1.87,3.57-1.23,6.08-1.86,9.59-.9,1.64-1.37,3.95-2.23,5.15-.08,1.3-.99,3.07-1.6,4.56v7.45Z"/>
        </g>
        <path class="cls-1" d="M60.67,198.54c1.44-5.64-.46-10.55-.9-16.06-.66-1.03-.19-3.11-.69-4.5-1.02,5.41,1.52,10.28-.38,15.28.35,1.91-.81,4.62-.32,6.71.8-.44,1.56-.92,2.28-1.44Z"/>
        <path class="cls-1" d="M57.07,186.26c-.16.3,0,.2-.02.62.35.13.38-.73.02-.62Z"/>
        <path class="cls-1" d="M64.66,154.84c8.46,10.76-8.7,12.65-1.54,30.38-.08.18-.13.41-.12.77,1.17,2.93.98,6.06,1.04,9.59,10.17-10.87,9.12-35.05-1.07-47.17.15,1.56.36,3.03.63,4.7.34.28.94.7,1.05,1.73Z"/>
        <g>
          <path class="cls-1" d="M91.36,166.72c-.07-.45-.14-.18-.37-.16.11-.44.41-.55.31-1.38-.06-.35-.27-.47-.45-.63-.08.57.14.66.07,1.23-.3.12-.46.48-.66.76.05.13.14.19.16.37.25.16.48.34.73.49-.04-.3-.1-.58.22-.69Z"/>
          <path class="cls-1" d="M81.1,57.47c-.47,1.81-.37,4.16-.91,5.53.27,1.43-.35,3.73-.54,5.39.59,1.43-.17,3.11-.23,4.78-.06,1.51.13,3.19.04,4.79-.07,1.27-.19,2.61-.28,3.96v8.42c.26.68.67,1.56.32,2.3.3-.08.43.12.64.17-.23-1.06.37-1.91.45-2.92.04-.51-.14-1.05-.14-1.55,0-.74.2-1.41.25-2.16.24-3.66.15-7.68.68-10.64.08-.44.36-.92.41-1.38.02-.15-.17-.64-.16-.78.04-.93.48-1.93.54-2.76.03-.35-.15-.73-.15-1.09,0-1.32.58-3.13.61-4.77.02-.79.05-1.45.07-2.16.02-1.78-.34-2.43-.54-3.57-.16-.94-.12-2.06-.28-2.94-.07-.36-.19-.78-.3-1.22h-.81c.14.81.27,1.65.34,2.58Z"/>
          <path class="cls-1" d="M81.98,145.99c.07-1-.42-1.7-.03-2.63-.43-1.73-1.9-3.07-2.1-5.3-.25-2.75.8-4.79,1.72-6.29.01-1.63-.47-3.66-.05-5.56-.81-2.34-.09-5.65-.26-8.34.5-1.28.17-2.96.21-4.63.05-1.96.44-4.01.43-6.01,0-.75-.2-1.52-.22-2.32-.04-1.79.13-2.15.27-3.24.2-1.5.1-2.94.12-4.48-1.08-.43-1.47-1.92-1.95-3.3.14,3.05-.03,5.34.16,7.88-.34.71-.21,1.76-.44,2.61-.07.28-.34.46-.39.76-.08.46.03,1.08-.04,1.54-.05.32-.13.63-.22.95v33.19c0,3.74.34,7.14,1.01,10.2.39.11.81.19,1.29.35-.31-2.19.38-3.89.49-5.39Z"/>
          <path class="cls-1" d="M118.78,54.89v85.95c0,6.62-3.09,9.94-9.26,9.94s-9.19-3.31-9.19-9.94V54.89h-15.74s0,.04.01.07c-.08.18-.14.41-.12.77.73.89.49,2.39.9,3.74.07.5-.31.2-.3.61,1.01,2.23.04,5.99.58,8.36-.63,2.99-.06,6.6-.73,8.93-.16,2.88-.34,5.85-.43,8.48-.06,1.84.53,3.43.6,5.11.02.47-.22,1.58-.24,2.15-.02.4.12.94.06,1.24-.35,1.66-1.83,1.8-1.97,4.12-.11.57.3.31.35.63-.18,1.08-.1,2.62-.64,3.07,0,3.26.58,6.12.03,9.42.34,4.46-.85,9.79.4,13.75-.11,1.55.42,2.1.28,3.71.6-.93,1.11-2.02,1.56-3.2-.17-4.6,2.28-6.78,2.04-11.53h.28c-.2-.9.39-1.43.43-2.3.07-1.38-.6-2.56-.93-3.57.18-.22.33-.5.48-.76.58.58.63,1.91.85,2.8.18.72.46,1.38.2,2.94-.15.9-.61,1.58-.71,2.45-.09.78.13,1.83-.24,2.16.02.36.1.64.16.93-.13.63-.48.87-.42,1.84-1.38,1.21-1.08,4.48-1.27,6.76.07.5-.31.21-.38.45.28,3.82-.25,6.91-.06,10.34.13,2.26.59,4.22.3,7.11.03.48-.24.43-.38.61.34.79.31,2.19.58,3.1.41-.13.66-1.23,1.04-.9-.22.47-.59.67-.86,1.06-.33,3.01.47,5.74.65,8.81.53.02.51-.93.95-1.06-.13.2-.11.67-.12,1.08.39-.06.58-.47.76-.91-.08-.42-.33.27-.46-.16.08-.77.31-1.28.86-1.22.08-.68,0-1.18.49-1.38.45-4.1-.08-6.65.77-10.01.07-1.7.24-4.14.59-5.54-.14-.99,0-2.49.27-3.85.36.61-.08,1.14-.13,1.69-.21,2.5-.08,5.2-.36,7.71-.14,1.29-.4,2.25-.37,4.16,0,.31.13.45.17.78.25,2.29-.45,4.85-.15,7.25.54-.12.88-.6,1.14-1.21.1-2.99-.07-4.46-.05-6.33.96.44.93,1.55,1.14,3.11-.09.53-.17,1.09-.4,1.38.1,4.83.4,9.18-.39,13.94,4.69,2.74,10.71,4.13,18.09,4.13,20.27-.05,30.4-10.33,30.4-30.85V54.89h-21.14Z"/>
        </g>
        <g>
          <path class="cls-1" d="M10.75,84.39c-.18.2-.31.25-.41.21-.06,1.03-.11,2.07-.14,3.11.69-1.76,1.27-4.56,1.02-5.75-.3-.02-.53.18-.72.53-.04.44-.07.88-.1,1.33.15.16.31.31.35.57Z"/>
          <path class="cls-1" d="M11.62,81.59c.08-.44,0-.73-.24-.87-.15.24-.33.38-.47.67.2.29.41.56.71.19Z"/>
          <path class="cls-1" d="M40.75,52.57c-9.77-.41-16.46,1.97-21.04,6.14-.26.92-.5,1.85-.69,2.82-.43,2.23-.45,4.24-1.43,6.97-.09.48-.34.36-.52.5.14.85-.23,2.2-.19,3.15.43-.02.94-1.04,1.23-.62-.33.41-.74.5-1.09.82-1.05,2.84-.94,5.68-1.51,8.7.51.14.72-.78,1.18-.8-.18.16-.27.62-.37,1.02.4.04.68-.32.96-.7.03-.43-.39.18-.41-.27.26-.73.61-1.16,1.13-.97.24-.64.28-1.15.81-1.22,1.44-3.87,1.54-6.47,3.18-9.52.48-1.64,1.24-3.95,1.92-5.23.1-1,.6-2.42,1.2-3.67.2.68-.36,1.09-.54,1.61-.82,2.38-1.34,5.03-2.22,7.39-.45,1.22-.93,2.08-1.37,3.94-.07.3.02.47-.03.79-.32,2.28-1.62,4.59-1.91,6.99.55.01,1-.37,1.4-.9.82-2.87,1.01-4.35,1.49-6.15.82.66.53,1.73.35,3.29-.22.49-.43,1.02-.72,1.24-1.2,5.24-2,9.96-4.45,14.93.01-.24-.09-.04-.13.12.05-.53.14-1.26.22-1.86.09.13.08.36.02.64.6-.25.11-1.19.72-1.24.04-.45-.09-.2-.32-.25.22-.4.54-.43.63-1.27.03-.36-.15-.52-.28-.72-.21.53-.02.68-.24,1.21-.32.05-.56.36-.83.57.02.17.16.21.06.5-.16.63-.14-.04-.27-.07-.4.68-.96,1.81-.43,2.28-.68.66-1.79,3.01-1.09,4.02-1.17,1.48-.79,6.18-2.46,7.64-.22,1.59-.54,2.65-1.13,3.85-.27,2.09-.7,4.48-1.23,6.92.21,3.23.82,6.18,1.73,8.92.01-.02.03-.02.03-.05-.18-1.59.83-3.62,1.07-5.78.26-2.24.12-4.3,0-6.07.05-.32.17-.38.25-.57-.12-.79.02-1.18.07-2.06.24.24.2.07.54.14-.1.14-.25.1-.3.4-.13.42.15.44.2.69-.8,1.02-.08,2.59-.43,3.72.55,1.08.62,2.28.42,3.79-.17,1.3-.84,2.42-1.18,3.67-.21.79-.38,1.64-.55,2.48,7.6,22.07,35.05,29.69,37.81,48.49,1.28,13.35-19.74,13.29-18.45,0,0,0,0-10.31,0-10.31H10.43c-3.53,32.1,14.31,48.04,45.07,38.67.03-.2.06-.4.13-.6-.3-4.4.51-8.93.86-13.27.2-.3.18.07.37.17-.79-2.03.94-3.81.83-6,.28.18.23-.24.38-.3,1.1-8.64-.91-17.93.57-26.1,1.37,4.85-.65,13.37.62,17.79.35-4.82,4.25-8.19,6.86-11.52.55-2.74-1.3-3.55-1.84-5.78-1.83-1.29-2.02-4.97-2.29-8.64-30.92-26.82-31.63-22.51-30.4-63.77-1.29-13.4,19.72-13.24,18.45,0,0,0,0,35.85,0,35.85h21.14c-.97-25.42,8.39-68.6-30.4-66.63Z"/>
          <path class="cls-1" d="M13.86,68.12c.16-.49.16-.94.2-1.37-.89,1.99-1.58,4.14-2.12,6.4.05.03.09.05.14.08.24-2.2,1.31-3.68,1.79-5.11Z"/>
        </g>
      </g>
    </g>
  </g>
</svg>