<?xml version="1.0" encoding="UTF-8"?>
<svg xmlns="http://www.w3.org/2000/svg" version="1.1" viewBox="0 0 848.25 704.75">
  <defs>
    <style>
      .cls-1 {
        isolation: isolate;
      }

      .cls-2 {
        mix-blend-mode: multiply;
      }

      .cls-3 {
        fill: #94aa9d;
      }
    </style>
  </defs>
  <!-- Generator: Adobe Illustrator 28.6.0, SVG Export Plug-In . SVG Version: 1.2.0 Build 709)  -->
  <g class="cls-1">
    <g id="Capa_1">
      <g class="cls-2">
        <g>
          <path class="cls-3" d="M246.25,460.12c-.22-5.11-.45-10.23-.67-15.34-.16-3.64-.45-7.29-.47-10.93-.03-5.83-.1-11.68.22-17.5.64-11.61,1.65-23.18,3.2-34.72,1.7-12.62,4.04-25.1,7.29-37.4,2.56-9.71,5.19-19.42,8.84-28.79,4.04-10.38,8.18-20.72,12.38-31.03,1.89-4.65,4.21-9.12,6.06-13.78,4.34-10.92,7.68-22.18,10.08-33.67,1.83-8.77,3.11-17.65,4.76-26.46,3.05-16.29,6.84-32.39,12.04-48.17,4.15-12.58,9.11-24.82,14.79-36.76,5.93-12.48,12.78-24.47,20.38-36.03,8.04-12.23,16.8-23.9,26.56-34.81,3.01-3.37,5.8-6.98,9.07-10.08,4.48-4.25,9.66-7.49,16.01-8.19,3.82-.42,5.5.73,6.61,4.32,1.78,5.77-.12,10.71-3.91,14.94-7.31,8.17-14.34,16.56-20.27,25.81-6.85,10.68-12.21,22.06-16.3,34.09-3.44,10.12-5.61,20.51-7.12,31.03-.83,5.83-.91,11.77-1.25,17.66-.15,2.59.5,5.05,1.46,7.39,3.07-.14,3.63-.44,4.4-3,1.1-3.67,1.95-7.41,3.08-11.06,1.96-6.3,3.8-12.65,6.16-18.79,2.94-7.64,6.64-14.95,10.84-21.99,5.78-9.7,12.54-18.67,20.16-27,8.24-9.01,17.57-16.74,27.73-23.46,8.92-5.91,18.51-10.52,28.45-14.47,7.89-3.14,15.97-5.65,24.27-7.41,4.71-1,9.48-1.93,14.27-2.26,4.24-.29,8.59-.62,12.79.92,5.43,1.99,8.67,5.99,10.58,11.2.73,2,1.77,3.96,1.28,6.29-.7,3.29-2.27,4.76-5.62,4.95-16.19.91-31.34,5.36-45.75,12.82-15.9,8.24-29.09,19.55-39.94,33.66-3.05,3.97-5.63,8.3-8.42,12.47l.41.54c.63-.26,1.3-.45,1.9-.78,6.82-3.75,13.48-7.82,20.48-11.22,10.9-5.3,21.92-10.39,33.09-15.1,9.53-4.02,19.29-7.51,29.03-10.98,7.99-2.85,16.05-5.51,24.18-7.93,14.18-4.23,28.49-7.98,43.07-10.59,7.76-1.39,15.48-3.06,23.27-4.19,8.38-1.22,16.83-1.98,25.25-2.92,4.89-.54,9.78-1.14,14.68-1.52,5.12-.4,10.24-.73,15.37-.83,12.24-.23,24.48-.5,36.71-.35,7.88.09,15.75.85,23.63,1.39,5.41.37,10.81.83,16.2,1.35,3.83.37,7.63.95,11.46,1.33,4.02.4,8.07.48,12.06,1.04,9.86,1.37,19.69,2.91,29.53,4.42,2.63.4,5.23,1.06,7.87,1.36,2.76.31,4.99,1.64,7.25,3.08,6.59,4.18,12.07,9.55,16.91,15.59,2.21,2.76,4.4,5.57,6.27,8.56,2.96,4.74,2.73,9.5-.75,13.98-1.83,2.35-3.86,4.45-6.52,5.93-3.69,2.05-7.3,1.55-10.69-.39-4.36-2.5-7.45-6.42-10.38-10.39-2.69-3.65-5.86-6.17-10.64-6.63-4.1-.4-8.12-1.53-12.19-2.22-4.86-.82-9.72-1.65-14.6-2.21-9.98-1.13-19.97-2.17-29.96-3.07-5.01-.45-10.05-.55-15.08-.74-6.21-.23-12.42-.55-18.62-.52-7.4.03-14.8.26-22.19.65-9.26.49-18.54.98-27.76,1.92-8.23.84-16.4,2.22-24.58,3.51-6.32.99-12.64,2.06-18.91,3.36-14,2.9-27.95,6.03-41.52,10.67-6.99,2.39-14.12,4.37-21.13,6.73-4.86,1.63-9.61,3.57-14.4,5.38-.43.16-.84.39-1.15,1.02,3.75-.48,7.5-1.01,11.26-1.42,8.92-.97,17.83-2.02,26.76-2.79,16.92-1.46,33.89-1.51,50.85-.97,7.86.25,15.71.94,23.56,1.56,6.48.51,12.94,1.16,19.4,1.88,4.41.49,8.8,1.11,13.17,1.84,7.48,1.26,14.96,2.51,22.39,4.03,7.34,1.5,14.65,3.15,21.89,5.06,10.48,2.76,20.97,5.52,31.29,8.82,10.15,3.25,20.16,6.96,30.07,10.88,9.53,3.78,18.9,7.98,28.24,12.21,5.38,2.44,10.68,5.11,15.81,8.04,2.51,1.44,4.9,3.42,6.7,5.68,2.39,3,1.72,6.76,1.09,10.27-.74,4.13-2.74,7.78-4.95,11.29-2.14,3.39-5.56,4.63-9.49,3.26-2.08-.72-3.97-1.97-5.94-3.01-2.09-1.1-4.12-2.35-6.27-3.33-11.02-5.06-21.99-10.23-33.12-15.03-15.15-6.52-30.76-11.76-46.67-16.13-5.23-1.44-10.39-3.13-15.66-4.38-7.95-1.88-15.96-3.52-23.97-5.17-4.72-.98-9.45-1.93-14.22-2.66-5.45-.84-10.92-1.52-16.41-2.08-8.24-.83-16.48-1.63-24.74-2.18-7.28-.48-14.59-.76-21.89-.83-8.67-.09-17.35-.12-26.01.27-9.92.45-19.82,1.38-29.73,2.1,0,.19,0,.38,0,.57,3.03.21,6.05.41,9.08.63,7.77.58,15.55,1.09,23.31,1.78,12.1,1.08,24.04,3.22,35.87,5.94,10.09,2.32,20.06,5.1,29.93,8.27,13.55,4.36,26.66,9.82,39.57,15.72,6.72,3.07,13.19,6.7,19.68,10.24,13.81,7.53,26.8,16.32,39.33,25.8,10.17,7.69,19.83,16.01,28.87,24.98,4.33,4.3,7.62,9.49,9.37,15.5.83,2.84,2.16,5.56,2.71,8.44,1.01,5.32.09,10.4-3.32,14.76-2.82,3.6-8.71,3.83-12.28-.79-4.96-6.42-10.45-12.34-16.27-17.97-9.73-9.42-20.25-17.89-31.6-25.27-6.77-4.4-13.68-8.62-20.77-12.48-12.69-6.9-26.08-12.25-39.94-16.3-7.84-2.29-15.82-4.18-23.82-5.84-6.06-1.26-12.25-1.92-18.4-2.73-3.1-.41-6.23-.58-9.53-.33.51.33,1.01.66,1.52.98,6.09,3.85,12.2,7.67,18.27,11.54,7.42,4.72,14.39,10.06,21.15,15.66,4.71,3.9,9.45,7.78,13.86,12.01,6.19,5.93,12.23,12.02,18.06,18.31,7.79,8.4,14.86,17.39,21.53,26.73,8.39,11.76,15.84,24.08,22.32,36.96,4.3,8.54,7.98,17.39,11.88,26.13.43.96.56,2.09.7,3.15.94,7.44,1.76,14.9.38,22.38-.28,1.53-.77,3.03-1.32,4.49-.7,1.86-2.35,2.5-4.1,2.21-4.83-.79-9.12-2.62-11.55-7.25-3.29-6.28-6.42-12.66-9.77-18.9-5.99-11.14-12.74-21.79-20.28-31.96-6.6-8.88-13.67-17.36-21.2-25.44-4.63-4.98-9.52-9.74-14.55-14.32-5.54-5.05-11.13-10.1-17.13-14.58-8.13-6.08-16.52-11.85-25.09-17.3-7.15-4.55-14.7-8.48-22.09-12.64-1.24-.7-2.62-1.16-4.16-1.31,1.75,1.39,3.48,2.8,5.26,4.15,9.42,7.22,18.22,15.17,26.57,23.56,8.28,8.32,16.12,17.06,23.26,26.44,6.36,8.34,12.34,16.92,17.94,25.75,3.69,5.82,7,11.92,10.08,18.1,3.78,7.59,7.34,15.3,10.62,23.12,4.54,10.83,8.47,21.89,11.2,33.33,1.71,7.18,3.61,14.34,4.91,21.6,1.47,8.23,2.45,16.56,3.47,24.87.67,5.47,1.32,10.96,1.45,16.46.18,7.4-5.01,14.43-13.07,15.43-6.96.87-13.54-2.78-16.32-9.22-.53-1.22-.68-2.68-.7-4.04-.08-3.75.22-7.53-.03-11.27-.54-7.76-1.29-15.5-2.05-23.24-.9-9.17-3.25-18.06-5.85-26.84-2.58-8.68-5.82-17.15-9.6-25.42-4.82-10.53-10.24-20.7-16.76-30.27-6.51-9.56-13.82-18.47-21.75-26.92-6.16-6.57-12.73-12.67-19.61-18.43-8.48-7.1-17.55-13.45-27.16-18.95-4.79-2.74-9.75-5.18-14.65-7.74-.84-.44-1.75-.75-2.92-.74,1.78,2.3,3.55,4.61,5.33,6.91,7.9,10.13,15.29,20.6,21.72,31.74,7.32,12.67,13.6,25.84,19.14,39.37,4.49,10.95,8.05,22.21,11.07,33.65,3.55,13.47,5.92,27.14,7.45,40.96,1.01,9.12,1.79,18.25,1.61,27.44-.09,4.83.15,9.68-.06,14.5-.25,5.61-.62,11.23-1.33,16.8-1.15,8.99-2.59,17.94-3.95,26.89-.37,2.43-.7,4.89-1.38,7.25-1.72,5.99-5.47,10.28-11.02,13.24-9.16,4.9-18.7,8.8-28.69,11.61-4.55,1.28-9.17,2.3-13.76,3.45-.33.08-.64.26-1.6.66,3.09.65,5.52,1.19,7.96,1.68,8.43,1.7,16.66,4.11,24.73,7.05,4.89,1.78,5.59,2.94,4.72,8.11-.45,2.68-1.62,4.82-3.93,6.59-5.24,4-10.1,8.51-15.37,12.48-9.64,7.26-20.08,13.25-30.92,18.52-7.79,3.79-15.67,7.4-23.52,11.08-.53.25-1.11.4-1.68.58-8.14,2.71-16.38,5.16-24.39,8.21-7.19,2.74-14.19,5.99-21.14,9.29-13.03,6.19-25.76,12.95-38.14,20.36-12.2,7.31-24.22,14.91-35.77,23.21-6.9,4.96-14.58,8.19-22.61,10.69-4.99,1.56-9.94,1.1-14.81-.62-1.58-.56-3.24-.96-4.71-1.73-1.46-.75-2.98-1.65-4.03-2.87-2.39-2.77-2.17-4.78.69-7.09,2.82-2.28,5.77-4.41,8.74-6.49,3.55-2.48,7.18-4.85,10.78-7.24,1.69-1.12,2.33-3.29,1.56-5.47-.75-2.14-1.83-2.87-4.36-2.45-4.47.73-8.89,1.72-13.36,2.46-8.16,1.34-16.33,2.64-24.52,3.83-6.29.91-11.05-2.15-15.13-6.45-1.32-1.4-2.34-3.16-3.2-4.9-.95-1.93-.25-3.73,1.42-4.97,1.26-.94,2.63-1.82,4.08-2.39,7.24-2.83,14.52-5.54,21.78-8.31,4.97-1.9,9.93-3.83,14.89-5.76,2.38-.93,4.76-1.86,7.11-2.85.81-.34,1.61-.79,2.28-1.35.28-.23.39-.95.25-1.33-.13-.34-.67-.61-1.09-.74-.35-.11-.79-.03-1.17.05-3.37.71-6.75,1.35-10.08,2.2-6.23,1.58-12.55,2.32-18.98,2.34-4.77.01-7.53-2.57-7.25-7.26.13-2.15.4-4.3.79-6.42.28-1.55,1.33-2.47,2.92-2.98,13.94-4.42,28.1-7.71,42.64-9.53,12.94-1.62,25.91-2.25,38.93-2.31,6.11-.03,12.23.01,18.34.22,4.92.17,9.84.93,14.76.89,7.87-.07,15.78-.26,23.61-1.01,15.59-1.49,30.79-4.85,45.33-10.79,1.96-.8,3.84-1.8,6.39-3.02-3.69-1.49-6.65-2.75-9.67-3.9-12.63-4.81-25.55-8.7-38.57-12.34-5.9-1.65-11.71-2.16-17.72-2.12-11.38.06-22.76-.03-34.14.03-13.43.08-26.86.29-40.29.37-6.37.04-12.73-.17-19.1-.16-4.31,0-8.62.26-12.93.3-7.2.07-14.4.06-21.59.08-8.8.03-17.61.05-26.41.09-.78,0-1.57.09-2.61.15-.26,1.83-.64,3.64-.76,5.46-.43,6.68-.82,13.37-1.15,20.05-.34,6.9-.56,13.81-.87,20.71-.38,8.37-.75,16.74-1.21,25.11-.16,2.84-.53,5.67-.94,8.49-.57,3.92-2.94,6.82-5.71,9.43-1.29,1.22-2.95,1.42-4.67,1.52-5.46.31-10.83-.51-16.13-1.54-5.8-1.12-11.55-2.55-17.25-4.12-17.22-4.75-33.25-12.28-48.69-21.14-16.82-9.65-32.51-20.96-47.74-32.9-5.2-4.08-10.29-8.31-15.44-12.46-.37-.3-.8-.54-1.31-.88-4.46,2.8-9.18,2.83-13.91.99-5.49-2.14-10.31-5.38-14.5-9.53-4.42-4.38-8.84-8.74-13.19-13.19-3.02-3.1-5.91-6.33-8.86-9.5-3.56-3.83-7.15-7.62-10.68-11.48-1.51-1.65-3.34-2.29-5.52-2.4-5.31-.27-10.63-.39-15.86-1.64-3.07-.73-5.88-1.95-8.17-3.97-3.32-2.93-6.42-6.14-9.44-9.39-1.87-2.03-2.31-4.7-2.5-7.42-.12-1.69.68-2.79,2.15-3.08,1.79-.36,3.72-.62,5.5-.36,6.03.9,12.06,1.86,18,3.19,2.71.61,5.22,2.13,8.22,3.4-.14-.85-.14-1.69-.43-2.4-1.84-4.47-3.73-8.91-5.62-13.36-.58-1.36-1.13-2.74-1.83-4.04-1.71-3.19-.64-5.83,1.43-8.37,2-2.46,4.65-2.82,7.5-2.34,4.36.74,8.16,2.84,11.93,5.02,3.38,1.96,6.84,3.77,10.49,5.76.56-2.81-.61-4.97-1.06-7.22-.78-3.94-1.66-7.87-2.35-11.83-.42-2.42.32-4.41,2.64-5.73,2.4-1.37,4.67-1,6.63.53,2.55,1.99,5.01,4.16,7.23,6.52,4.74,5.01,9.31,10.17,13.92,15.3,4.23,4.69,8.34,9.5,12.68,14.09,1.8,1.9,3.23,3.96,4.26,6.31,2.81,6.41,5.49,12.86,8.32,19.26,2.34,5.31,4.8,10.56,7.21,15.84.25.54.54,1.06.79,1.59,1.23,2.57,3.29,3.9,6.12,3.67,3.23-.26,5.28,1.46,7.31,3.64,1.88,2.01,4.02,3.79,6.15,5.53,10.8,8.83,22.46,16.37,34.63,23.18,10.53,5.89,21.33,11.18,32.5,15.74,5.56,2.28,11.12,4.55,16.69,6.82.52.21,1.08.32,1.66.48.19-.44.39-.69.4-.95.3-5.42.54-10.83.86-16.25.48-8.05,1.1-16.1,1.45-24.16.06-1.45-.72-3.02-1.38-4.41-2.73-5.8-5.72-11.49-8.34-17.34-6.65-14.88-12.32-30.13-17.09-45.71-3.61-11.79-6.64-23.74-9.01-35.85-1.38-7.05-2.6-14.15-3.61-21.26-.88-6.24-1.22-12.55-2.06-18.8-1.34-10-1.46-20.07-1.68-30.12-.23-10.35-.08-20.72,1.02-31.04.95-8.92,1.81-17.85,3.01-26.74,1.63-12.12,3.97-24.12,6.97-35.98,2.03-8.02,4.14-16.03,6.61-23.93,2.76-8.84,6.11-17.5,8.93-26.33,1.96-6.12,4.97-11.74,7.64-17.52,4.78-10.31,8.92-20.86,12.29-31.7,1.67-5.36,3.42-10.71,4.64-16.18,1.16-5.18,1.74-10.48,2.44-15.75,1.07-7.98-.14-15.92-.73-23.86-.09-1.26-.45-2.51-.72-3.95-1.37.55-2.03,1.64-2.82,2.59-3.35,4.04-7.05,7.71-11.37,10.72-4.26,2.96-8.95,4.98-13.9,6.44-2.38.7-2.33.72-2.51,3.19-.57,7.86-1.17,15.71-1.76,23.57,0,.1-.01.2,0,.3.09,3.31-.12,6.56-2.49,9.19-3.58,3.97-7.83,6.87-13.13,8.06-2.14.48-3.85-.59-4.85-2.14-1.07-1.67-1.99-3.54-1.82-5.78.54-7.08.9-14.18,1.38-21.26.51-7.46,1.16-14.91,1.57-22.37.06-1.12-.62-2.5-1.37-3.4-2.69-3.2-5.81-5.86-9.89-7.23-2.17-.73-4.25-1.7-6.63-2.67-.29,2.72-.59,4.94-.75,7.17-.67,9.44-1.32,18.88-1.93,28.32-.23,3.54-.39,7.08-.46,10.62-.14,6.61-5.34,10.72-10.15,11.22-7.21.75-11.77-4.3-12.97-9.25-.36-1.5-.27-3.15-.14-4.71.35-4.3.9-8.58,1.26-12.88.77-9.22,1.48-18.44,2.18-27.66.69-8.95,1.22-17.91,2.04-26.85.73-7.94,1.61-15.87,2.7-23.77,1.3-9.42,4.13-18.39,8.29-26.97,3.41-7.03,7.2-13.83,12.48-19.58,9.31-10.12,20.52-17.3,34.28-19.61,9.75-1.63,19.37-.83,28.89,2.33,8.65,2.88,16.18,7.39,22.44,13.83,8.08,8.31,13.49,18.1,15.52,29.68,1.02,5.86,1.19,11.7.83,17.6-.09,1.45.25,2.92.2,4.37-.28,7.39-.57,14.79-.97,22.18-.34,6.3-.57,12.62-1.32,18.88-1.09,9.09-2.41,18.17-3.96,27.19-3.45,20.07-8.78,39.67-15.66,58.83-2.86,7.97-6.33,15.73-9.69,23.52-2.34,5.42-5.13,10.64-7.41,16.08-4.05,9.63-7.35,19.55-10.15,29.62-2.22,7.97-4.44,15.96-6.13,24.05-2.01,9.64-3.59,19.37-5.1,29.1-1,6.42-1.61,12.9-2.29,19.37-.24,2.34-.18,4.72-.23,7.08-.2,9.47-.56,18.95-.53,28.42.03,9.76.84,19.47,2.13,29.17.96,7.26,2.27,14.41,4.57,21.34,1.42,4.3,3.37,8.42,5.09,12.62.18.43.49.81.74,1.21.14-.04.29-.08.43-.11ZM423.06,243s0,.04,0,.06c-7,0-14.01,0-21.01,0-3.45,0-6.91-.12-10.36-.02-4.2.12-7.57,2.99-8.3,7.1-.21,1.19.22,2.49.24,3.73.04,3.26.02,6.51.03,9.77,0,7.22,0,14.44,0,21.66,0,4.87-.08,9.74.02,14.6.11,5.06-5.13,11.35-11.88,11.34-5.53,0-11.07.02-16.59-.18-5.8-.21-9.92,3.83-9.77,9.66.11,4.43,0,8.87.02,13.31.04,6.64-5.96,11.78-12.04,11.69-7.39-.11-14.78-.05-22.16-.04-7.8.01-15.61-.03-23.41.1-5.37.09-9.36,4.14-8.83,9.54.11,1.18.12,2.37.12,3.55-.06,10.37-.13,20.74-.19,31.12-.03,5.7.03,11.41-.04,17.11-.05,3.83-.34,7.65-.4,11.48-.08,4.83,3.81,8.98,8.63,9.15,6.2.22,12.41.38,18.62.42,9.3.07,18.61.16,27.91-.03,5.52-.11,11.85,4.43,12.22,10.94.12,2.14.13,4.29.08,6.43-.08,4.04-.31,8.09-.34,12.13-.01,1.64-.05,3.45.59,4.88,1.57,3.5,4.45,5.47,8.39,5.51,5.43.05,10.86-.07,16.28,0,2.06.03,4.13.25,6.16.61,1.02.18,2.08.72,2.9,1.36,3.4,2.67,5.07,6.18,4.94,10.56-.14,5-.21,10-.23,15-.04,9.04-.05,18.08,0,27.12.03,5.97,4.93,10.7,10.9,10.76,5,.05,10.01.28,15.01.32,14.43.12,28.86.2,43.29.23,1.56,0,3.18-.2,4.67-.67,2.49-.78,4.83-1.98,5.55-4.81.38-1.52.68-3.1.72-4.67.24-10.43.42-20.87.58-31.31.03-2.14-.09-4.29-.14-6.43-.08-3.49-.38-7,.8-10.41,1.83-5.27,6.69-8.16,11.22-8.11,6.2.07,12.4.32,18.6.58,2.15.09,3.98-.62,5.3-2.15,1.94-2.26,3.45-4.83,3.49-7.95.08-6.41.03-12.83.22-19.24.05-1.71.41-3.63,1.29-5.05,2.39-3.84,5.92-5.96,10.64-5.66,1.08.07,2.17.07,3.26.07,13.44.03,26.89-.04,40.33.14,5.01.06,9.69-4.24,9.56-9.14-.17-6.58.26-13.17.34-19.75.17-13.62.33-27.25.38-40.87,0-2.71.11-5.52-1.47-8.02-1.75-2.78-4.93-5.7-9.52-5.04-2.21.32-4.49.21-6.74.17-2.52-.05-5.03-.31-7.55-.35-4.18-.06-8.36.02-12.55-.01-5.92-.05-11.83-.15-17.75-.21-5.78-.05-11.43-4.87-11.4-12.64.02-4.63.38-9.25.45-13.88.02-1.02-.31-2.18-.83-3.06-1.84-3.08-4.57-4.82-8.26-4.82-4.44,0-8.89.09-13.33.01-2.75-.05-5.54-.1-8.25-.55-6.31-1.05-10.45-6.89-9.66-13.2.22-1.75.34-3.53.38-5.3.09-3.75.14-7.5.13-11.25-.03-9.18-.1-18.35-.14-27.53-.02-4.76-3.54-8.38-7.4-9.2-2.2-.47-4.49-.65-6.75-.66-8.99-.07-17.98-.03-26.97-.03ZM263.69,92.99c-.02-17.34-14.78-31.59-32.72-31.64-18.1-.05-32.82,14.68-31.98,33.31.74,16.41,14.65,30.57,31.86,30.89,19.15.35,33.62-15.52,32.85-32.55Z"/>
          <path class="cls-3" d="M184.13,428.14c4,4.11,5.17,9.25,6.18,14.36.77,3.93-.43,7.58-2.74,10.87-2.25,3.21-1.1,6.49,2.65,7.77.37.13.73.34,1.11.41,5.39.98,7.69,4.77,8.55,9.66.71,4.07.62,8.13-.57,12.18-1.81,6.15-3.99,12.12-7.09,17.76-1.16,2.11-1.96,4.36-.2,6.62,1.41,1.8,3.6,1.76,4.92-.16.67-.97,1.24-2.01,1.89-2.99,1.86-2.8,5.2-4.25,8.23-3.11,6.44,2.42,11.52,6.45,13.8,13.22.49,1.46.58,3.09.68,4.65.22,3.44.41,6.89.44,10.34.06,5.83,2.01,10.97,5.28,15.73,1.84,2.68,3.68,5.4,3.75,8.85.02,1.05.19,2.12,0,3.13-1.08,5.87-2.91,11.47-6.84,16.11-1.18,1.4-2.69,2.68-4.3,3.53-3.94,2.06-5.91,1.32-9.16-1.77-4.12-3.9-5.81-9.1-8.18-13.93-1.6-3.25-2.76-6.73-3.97-10.17-.61-1.75-.8-3.65-1.33-5.43-.53-1.78-1.1-3.57-1.91-5.23-1-2.05-1.72-2.15-3.8-1.26-2.71,1.16-5.44,2.29-8.19,3.36-4.2,1.63-8.15.72-11.93-1.38-1.47-.81-2.87-1.75-4.29-2.64-5.26-3.31-8.39-8.22-10.47-13.92-.34-.93-.53-1.9-.85-2.84-1.86-5.47-.16-10.18,2.84-14.77,2-3.07,4.72-5.27,7.54-7.44,4.16-3.2,7.97-6.75,11.13-10.96,1.59-2.12,3.07-4.31,2.97-7.28-2.48-.83-4.83.09-7.2.45-2.24.34-4.46.8-6.71,1.01-1.99.19-3.66-.58-4.8-2.33-3.26-5-5.11-10.39-5.02-16.45.04-2.54,1.03-4.58,2.46-6.45,1.07-1.39,2.52-2.49,3.69-3.82,1.79-2.03,3.97-3.96,2.78-7.28-4.11-.97-5.38-4.11-5.93-7.85-.5-3.4-1.06-6.74-.82-10.26.29-4.29,2.46-7.58,4.53-10.99,4.09-6.72,8.34-13.35,12.36-20.11,1.61-2.72,2.51-5.81,2.77-8.97.11-1.38-.31-2.94-.93-4.22-3.43-7.11-7.19-13.99-12.13-20.24-6.85-8.65-6.41-18.99-1.22-27.66.94-1.57,2.28-3.03,3.73-4.14,5.07-3.88,9.07-8.75,13.15-13.57,2.48-2.92,3.77-6.4,4.68-9.99,1.32-5.25-.41-9.91-3.45-14.16-2.93-4.09-6.24-7.83-9.92-11.27-4.01-3.76-6.45-8.5-7.31-13.9-.79-4.96.24-9.69,3.48-13.6,2.76-3.34,5.88-6.38,8.85-9.55,1.68-1.79,3.51-3.46,5.07-5.35,2.8-3.39,3.62-7.2,1.68-11.3-1.9-4-3.92-7.94-5.93-11.88-1.71-3.35-1.86-6.54.46-9.73,2.13-2.92,4.39-5.49,8.17-6.35,3.69-.84,6.86-.18,9.49,2.55,5.47,5.68,9.72,12.05,12.13,19.69,1.27,4.05,1.36,8.15,1.57,12.23.24,4.8-2.63,8.55-5.32,12.22-2.85,3.89-5.88,7.66-8.59,11.65-3,4.43-4.49,9.42-4.25,14.81.04.92.34,1.96.86,2.71,1.41,2.01,2.91,3.97,4.53,5.81,2.41,2.73,5.03,5.28,7.41,8.03,3.32,3.83,3.75,8.45,3.6,13.31-.2,6.11-2.79,11.09-6.28,15.92-3.86,5.34-7.64,10.8-10.86,16.54-3.62,6.46-4.11,13.41-1.6,20.57,2.94,8.38,6.25,16.59,10.26,24.51,1.87,3.69,1.78,7.37.61,11.18-1.86,6.03-3.7,12.06-6.73,17.64-2.59,4.76-5.23,9.49-7.84,14.24-.55,1.01-1.08,2.03-1.63,3.07Z"/>
          <path class="cls-3" d="M410.48,307.19c-.22-7.07-.65-14.15-.63-21.22.03-12.12,10.04-19.32,20.36-16.09,5,1.57,8.48,5.06,10.14,10.03.64,1.91.64,4.1.57,6.15-.21,6.59-.71,13.17-.86,19.76-.18,8.08-.17,16.17-.15,24.26,0,3.76,1.94,5.84,5.73,6.06,3.94.23,7.9.16,11.84.28,2.85.09,5.72.17,8.56.45,5.03.48,11.02,5.11,12.27,10.99.45,2.11.72,4.18.51,6.42-.44,4.59-.27,9.24.72,13.78.76,3.45,1.36,3.9,4.8,3.92,5.13.02,10.27,0,15.4.01,5.18.02,10.36.13,15.55.1,4.64-.03,9.28-.32,13.92-.28,10.8.09,17.66,9.86,14.82,19.69-1.87,6.48-8.41,11.1-14.6,10.81-6.61-.31-13.24-.17-19.86-.27-6.09-.09-12.17-.3-18.26-.35-2.26-.02-4.53.17-6.78.41-2.86.31-4.94,2.22-5.26,5.19-.41,3.81-.48,7.66-.68,11.49-.17,3.34-.09,6.72-.54,10.02-.96,7.04-7.87,12.47-14.1,12.6-4.02.08-8.04.03-12.05.04-2.14,0-4.28-.03-6.42,0-2.93.05-5.5,3.08-5.19,5.99.19,1.76.36,3.54.36,5.3-.03,11.47-.02,22.93-.24,34.39-.08,3.98.06,8.07-1.99,11.79-2.8,5.06-7.01,8.01-12.77,8.35-6.14.36-10.86-2.34-14.19-7.49-1.74-2.69-2.07-5.69-1.98-8.78.22-7.3.52-14.59.67-21.89.13-6.29-.02-12.58.15-18.87.11-4.18-1.68-7.51-6.88-7.77-6-.3-12-.86-18.01-1.01-8.54-.21-14.65-7.99-14.43-15.38.18-5.91.17-11.83.16-17.75,0-3.08-2.3-5.5-5.37-5.65-3.03-.15-6.07-.1-9.1-.15-5.03-.09-10.06-.23-15.09-.28-6.82-.06-13.63-.05-20.45-.06-7.9,0-13.88-4.84-15.63-11.96-1.87-7.62,2.78-15.59,10.34-17.91,2.11-.65,4.13-.97,6.37-.64,2.42.36,4.92.27,7.38.28,12.06.02,24.13-.12,36.19.09,3.46.06,5.07-2.3,5.13-4.81.1-4.21.14-8.47-.37-12.65-1.27-10.35,6.71-18.82,17.3-17.85,5.52.5,11.03.34,16.54-.38,3.1-.4,5.05-2.07,5.39-5.24.37-3.52.5-7.07.58-10.62.09-4.44.02-8.88.02-13.32.04,0,.08,0,.12,0Z"/>
          <path class="cls-3" d="M228.97,120.17c-10.37.04-18.45-8.53-18.64-18.11-.23-11.05,7.62-18.92,18.48-18.87,10.4.05,18.34,7.43,18.82,18.56.39,8.98-7.43,18.64-18.66,18.42Z"/>
        </g>
      </g>
    </g>
  </g>
</svg>