<?xml version="1.0" encoding="UTF-8"?>
<svg xmlns="http://www.w3.org/2000/svg" version="1.1" viewBox="0 0 1093 98">
  <defs>
    <style>
      .cls-1 {
        fill: #ed7219;
      }
    </style>
  </defs>
  <!-- Generator: Adobe Illustrator 28.6.0, SVG Export Plug-In . SVG Version: 1.2.0 Build 709)  -->
  <g>
    <g id="Capa_1">
      <g>
        <polygon class="cls-1" points="15 30.73 36.82 30.73 36.82 85.75 61.93 85.75 61.93 30.73 83.75 30.73 83.75 11.25 15 11.25 15 30.73"/>
        <rect class="cls-1" x="130.68" y="11.25" width="25.12" height="74.5"/>
        <polygon class="cls-1" points="233.06 57.01 264.57 57.01 264.57 38.92 233.06 38.92 233.06 30.19 268.93 30.19 268.93 11.25 208.37 11.25 208.37 85.75 270.31 85.75 270.31 66.81 233.06 66.81 233.06 57.01"/>
        <polygon class="cls-1" points="369.4 45.13 341.09 11.25 320.44 11.25 320.44 85.75 344.92 85.75 344.92 51.87 373.23 85.75 393.87 85.75 393.87 11.25 369.4 11.25 369.4 45.13"/>
        <polygon class="cls-1" points="471.14 57.01 502.64 57.01 502.64 38.92 471.14 38.92 471.14 30.19 507 30.19 507 11.25 446.45 11.25 446.45 85.75 508.39 85.75 508.39 66.81 471.14 66.81 471.14 57.01"/>
        <polygon class="cls-1" points="625.24 30.73 647.06 30.73 647.06 85.75 672.18 85.75 672.18 30.73 693.99 30.73 693.99 11.25 625.24 11.25 625.24 30.73"/>
        <path class="cls-1" d="M809.04,20.56c-3.76-3.51-8.19-6.23-13.3-8.14-5.11-1.92-10.71-2.87-16.81-2.87s-11.62.96-16.76,2.87c-5.14,1.92-9.6,4.63-13.35,8.14-3.76,3.51-6.69,7.63-8.78,12.35-2.09,4.72-3.14,9.92-3.14,15.59s1.05,10.79,3.14,15.54c2.09,4.75,5.02,8.89,8.78,12.4,3.76,3.51,8.21,6.23,13.35,8.14,5.14,1.92,10.77,2.87,16.87,2.87s11.6-.96,16.71-2.87c5.11-1.92,9.54-4.63,13.3-8.14,3.76-3.51,6.69-7.65,8.78-12.4,2.09-4.75,3.14-9.93,3.14-15.54s-1.05-10.87-3.14-15.59c-2.1-4.72-5.02-8.83-8.78-12.35ZM794.35,56.32c-.85,2.31-2.04,4.26-3.57,5.85s-3.3,2.82-5.32,3.67c-2.02.85-4.2,1.28-6.55,1.28s-4.52-.43-6.54-1.28c-2.02-.85-3.8-2.08-5.32-3.67s-2.71-3.55-3.57-5.85c-.85-2.31-1.28-4.91-1.28-7.82s.43-5.52,1.28-7.82c.85-2.31,2.04-4.26,3.57-5.85,1.53-1.6,3.3-2.82,5.32-3.67,2.02-.85,4.2-1.28,6.54-1.28s4.52.43,6.55,1.28c2.02.85,3.8,2.08,5.32,3.67,1.53,1.6,2.72,3.55,3.57,5.85.85,2.31,1.28,4.91,1.28,7.82s-.43,5.52-1.28,7.82Z"/>
        <path class="cls-1" d="M929.2,15.77c-6.32-3.02-13.62-4.52-21.92-4.52h-36.72v74.5h36.72c8.3,0,15.61-1.51,21.92-4.52,6.31-3.02,11.24-7.31,14.79-12.88,3.55-5.57,5.32-12.22,5.32-19.96s-1.78-14.26-5.32-19.8c-3.55-5.53-8.48-9.81-14.79-12.82ZM921.75,58.13c-1.49,2.66-3.57,4.67-6.23,6.01-2.66,1.35-5.77,2.02-9.31,2.02h-10.54V30.83h10.54c3.55,0,6.65.68,9.31,2.02,2.66,1.35,4.74,3.34,6.23,5.96,1.49,2.63,2.23,5.82,2.23,9.58s-.74,7.08-2.23,9.74Z"/>
        <path class="cls-1" d="M1076.86,32.91c-2.1-4.72-5.02-8.83-8.78-12.35-3.76-3.51-8.19-6.23-13.3-8.14-5.11-1.92-10.71-2.87-16.81-2.87s-11.62.96-16.76,2.87c-5.14,1.92-9.6,4.63-13.35,8.14-3.76,3.51-6.69,7.63-8.78,12.35-2.09,4.72-3.14,9.92-3.14,15.59s1.05,10.79,3.14,15.54c2.09,4.75,5.02,8.89,8.78,12.4,3.76,3.51,8.21,6.23,13.35,8.14,5.14,1.92,10.77,2.87,16.87,2.87s11.6-.96,16.71-2.87c5.11-1.92,9.54-4.63,13.3-8.14,3.76-3.51,6.69-7.65,8.78-12.4,2.09-4.75,3.14-9.93,3.14-15.54s-1.05-10.87-3.14-15.59ZM1053.39,56.32c-.85,2.31-2.04,4.26-3.57,5.85s-3.3,2.82-5.32,3.67c-2.02.85-4.2,1.28-6.55,1.28s-4.52-.43-6.54-1.28c-2.02-.85-3.8-2.08-5.32-3.67s-2.71-3.55-3.57-5.85c-.85-2.31-1.28-4.91-1.28-7.82s.43-5.52,1.28-7.82c.85-2.31,2.04-4.26,3.57-5.85,1.53-1.6,3.3-2.82,5.32-3.67,2.02-.85,4.2-1.28,6.54-1.28s4.52.43,6.55,1.28c2.02.85,3.8,2.08,5.32,3.67,1.53,1.6,2.72,3.55,3.57,5.85.85,2.31,1.28,4.91,1.28,7.82s-.43,5.52-1.28,7.82Z"/>
      </g>
    </g>
  </g>
</svg>