<?xml version="1.0" encoding="UTF-8"?>
<svg id="Capa_1" xmlns="http://www.w3.org/2000/svg" version="1.1" viewBox="0 0 434.1 133.7">
  <!-- Generator: Adobe Illustrator 29.3.1, SVG Export Plug-In . SVG Version: 2.1.0 Build 151)  -->
  <defs>
    <style>
      .st0 {
        fill: #206c60;
      }
    </style>
  </defs>
  <path class="st0" d="M52.3,4.5v17.9h-17v108.2h-18.2V22.5H0V4.5h52.3Z"/>
  <path class="st0" d="M231.2,106.2c0,17.7-8.7,26.5-26.2,26.6-17.4,0-26.1-8.8-26.1-26.6V4.5h18.2v101.7c0,5.7,2.6,8.6,7.9,8.6s8-2.8,8-8.6V4.5h18.2v101.7h0Z"/>
  <path class="st0" d="M275.6,69.3l-16.1-27.4v88.9h-17.6V4.6h14.3l19.3,32.5,19.3-32.5h14.3v126.2h-17.5V41.9l-16.1,27.4h0Z"/>
  <path class="st0" d="M353.5,74.5v-21c0-5.7-2.6-8.5-7.8-8.5h-.1c-5.3,0-7.9,2.9-7.9,8.5v6.3h-18.2v-6.3c0-17.7,8.7-26.5,26.2-26.5s26.1,8.8,26.1,26.5v77.1h-16.3l-1.3-7.8c-3.7,6.5-9.1,9.8-16.3,9.8-5.9,0-10.4-2.2-13.4-6.7-3-4.5-4.5-9.9-4.5-16.4,0-21.3,11.2-33,33.6-35.2h0ZM353.5,91.8c-10.3,2.6-15.4,7.9-15.4,15.9s1.2,8.2,3.7,8.2c7.8-.6,11.8-6.4,11.8-17.5v-6.7h0ZM371.7,1.1l-50.3,6.8v12.2h50.3V1.1Z"/>
  <path class="st0" d="M381.8,4.5h15l19.7,34.7V4.5h17.5v126.2h-17.5v-58.6l-17.2-30.9v89.5h-17.5V4.5Z"/>
  <path class="st0" d="M170,59.9v-30.9c0-17.7-8.7-26.5-26.2-26.5s-26.1,8.8-26.1,26.5v63.9c.3,0,.6.2.9.2,5.3,1.7,8.9,5.7,10,11.2,1,4.9-.4,9.5-3.9,13.3-.8.8-1.6,1.6-2.4,2.4-.3.3-.7.7-1,1l-.4.4c4,7.5,11.6,11.2,22.9,11.2,17.4,0,26.2-8.9,26.2-26.6v-20.5h-18.2v20.5c0,5.7-2.7,8.6-8,8.6s-7.9-2.8-7.9-8.6V29c0-5.7,2.6-8.6,7.8-8.6h.1c5.3,0,7.9,2.9,7.9,8.5v30.9h18.2,0Z"/>
  <path class="st0" d="M81.8,103.4c1.4-5.1,5.3-9,10.5-10.4.9-.2,1.8-.4,2.4-.4.1,0,.3,0,.3,0h.4c0,0,.4,0,.4,0,3.7,0,6.7,1.1,9.3,3.1,2.1-4,3.1-9,3.1-15.1V4.5h-18.2v75.9c0,5.7-2.7,8.6-8,8.6s-7.9-2.8-7.9-8.6V4.5h-18.2v75.9c0,17.4,8.5,26.3,25.4,26.5,0-1.2.2-2.4.5-3.6h0Z"/>
  <path class="st0" d="M96.1,128.2c-3.4-3.4-7-7-10.4-10.5-1.1-1.1-1.9-2.3-2.6-3.5h-27.1v16.7h42.8c-.9-.9-1.8-1.8-2.7-2.7Z"/>
  <path class="st0" d="M114,96.5c1.1,0,2.3.2,3.4.6,4,1.3,6.5,4.1,7.3,8.2.8,3.7-.3,7-2.9,9.7-1.1,1.1-2.2,2.2-3.3,3.3-3.9,3.9-7.7,7.8-11.6,11.6-.7.7-1.2,1-1.8,1s-1.1-.3-1.8-1c-5-5-10-9.9-14.9-15-5.9-6-3.2-15.9,4.9-18.1.9-.2,1.9-.3,2.3-.4,3.3,0,5.8,1,7.8,2.9.6.6,1.1.8,1.6.8s1-.3,1.6-.8c2.2-1.9,4.6-3,7.2-3"/>
</svg>