<?xml version="1.0" encoding="UTF-8"?>
<svg id="Capa_1" xmlns="http://www.w3.org/2000/svg" version="1.1" viewBox="0 0 434.1 133.68">
  <!-- Generator: Adobe Illustrator 29.3.1, SVG Export Plug-In . SVG Version: 2.1.0 Build 151)  -->
  <defs>
    <style>
      .st0 {
        fill: #206c60;
      }
    </style>
  </defs>
  <path class="st0" d="M52.27,4.53v17.94h-17.04v108.21h-18.2V22.47H0V4.53h52.27Z"/>
  <path class="st0" d="M231.16,106.19c0,17.66-8.72,26.51-26.17,26.55-17.4,0-26.1-8.85-26.1-26.55V4.53h18.2v101.65c0,5.7,2.64,8.55,7.91,8.55s7.97-2.85,7.97-8.55V4.53h18.2v101.65Z"/>
  <path class="st0" d="M275.6,69.28l-16.07-27.39v88.86h-17.55V4.6h14.34l19.29,32.53,19.29-32.53h14.34v126.15h-17.55V41.89l-16.07,27.39Z"/>
  <path class="st0" d="M353.46,74.49v-20.95c0-5.7-2.62-8.55-7.84-8.55h-.13c-5.27.04-7.91,2.89-7.91,8.55v6.35h-18.2v-6.35c0-17.66,8.72-26.49,26.17-26.49s26.1,8.83,26.1,26.49v77.14h-16.27l-1.29-7.78c-3.69,6.52-9.13,9.79-16.33,9.84-5.92,0-10.38-2.23-13.41-6.69-3.02-4.46-4.53-9.92-4.53-16.4,0-21.26,11.21-32.98,33.63-35.17ZM353.46,91.78c-10.29,2.57-15.43,7.89-15.43,15.95,0,5.49,1.22,8.23,3.67,8.23,7.84-.6,11.77-6.43,11.77-17.49v-6.69ZM371.66,1.06l-50.29,6.82v12.19h50.29V1.06Z"/>
  <path class="st0" d="M381.82,4.53h14.98l19.74,34.72V4.53h17.55v126.15h-17.55v-58.64l-17.17-30.86v89.5h-17.55V4.53Z"/>
  <path class="st0" d="M170.01,59.89v-30.86c0-17.66-8.72-26.49-26.17-26.49s-26.1,8.83-26.1,26.49v63.94c.3.08.6.15.9.25,5.34,1.7,8.9,5.68,10.04,11.2,1.01,4.92-.35,9.51-3.92,13.27-.79.83-1.6,1.64-2.39,2.41-.34.33-.67.66-1,1l-.4.4c3.96,7.48,11.57,11.24,22.88,11.24,17.45-.04,26.17-8.89,26.17-26.55v-20.51h-18.2v20.51c0,5.7-2.66,8.55-7.97,8.55s-7.91-2.85-7.91-8.55V29.03c0-5.7,2.61-8.55,7.84-8.55h.13c5.27.04,7.91,2.89,7.91,8.55v30.86h18.2Z"/>
  <path class="st0" d="M81.84,103.43c1.39-5.12,5.3-9.01,10.46-10.4.92-.25,1.8-.36,2.39-.44.14-.02.26-.03.35-.05l.37-.06h.37c3.65.08,6.71,1.08,9.31,3.05,2.07-3.99,3.13-9,3.13-15.08V4.53h-18.2v75.91c0,5.7-2.66,8.55-7.97,8.55s-7.91-2.85-7.91-8.55V4.53h-18.2v75.91c0,17.45,8.47,26.28,25.39,26.53.03-1.18.2-2.37.52-3.55Z"/>
  <path class="st0" d="M96.07,128.23c-3.43-3.42-6.98-6.97-10.44-10.49-1.05-1.07-1.92-2.27-2.59-3.54h-27.09v16.7h42.79c-.89-.89-1.78-1.78-2.67-2.67Z"/>
  <path class="st0" d="M113.98,96.47c1.11,0,2.26.18,3.44.56,3.99,1.27,6.49,4.07,7.33,8.19.76,3.72-.3,6.97-2.9,9.71-1.08,1.14-2.21,2.23-3.32,3.34-3.87,3.88-7.73,7.75-11.6,11.62-.66.66-1.21.99-1.77.99s-1.1-.33-1.75-.98c-4.98-4.99-9.98-9.94-14.92-14.97-5.86-5.96-3.17-15.89,4.87-18.05.91-.25,1.86-.32,2.35-.4,3.29.07,5.75,1.03,7.84,2.95.6.55,1.11.82,1.62.82s1.02-.27,1.61-.8c2.18-1.95,4.6-2.98,7.22-2.98"/>
</svg>