<?xml version="1.0" encoding="UTF-8"?>
<svg xmlns="http://www.w3.org/2000/svg" version="1.1" viewBox="0 0 370.86 185.45">
  <defs>
    <style>
      .cls-1 {
        fill: #206c60;
      }
    </style>
  </defs>
  <!-- Generator: Adobe Illustrator 28.6.0, SVG Export Plug-In . SVG Version: 1.2.0 Build 709)  -->
  <g>
    <g id="Capa_1">
      <g>
        <g>
          <path class="cls-1" d="M40.89,148.5h-7.91v-6.4h23.13v6.4h-7.91v19.96h-7.31v-19.96Z"/>
          <path class="cls-1" d="M78.7,168.95c-1.88,0-3.58-.24-5.08-.72-1.51-.48-2.79-1.21-3.84-2.2-1.06-.99-1.86-2.25-2.43-3.77-.57-1.52-.85-3.31-.85-5.37v-14.8h7.46v14.65c0,1.91.44,3.32,1.31,4.24.87.92,2.04,1.37,3.51,1.37s2.64-.44,3.51-1.32c.87-.88,1.31-2.25,1.31-4.11v-14.84h7.46v14.61c0,2.13-.3,3.97-.89,5.52-.59,1.54-1.42,2.81-2.49,3.8-1.07.99-2.36,1.73-3.88,2.2s-3.22.72-5.1.72Z"/>
          <path class="cls-1" d="M115.61,168.99c-1.88,0-3.65-.34-5.31-1.02-1.66-.68-3.09-1.63-4.31-2.84-1.22-1.22-2.18-2.66-2.9-4.33-.72-1.67-1.07-3.48-1.07-5.44v-.08c0-1.91.35-3.7,1.06-5.37.7-1.67,1.67-3.13,2.9-4.37,1.23-1.24,2.69-2.22,4.39-2.92,1.69-.7,3.55-1.06,5.56-1.06,1.36,0,2.59.13,3.69.4,1.1.26,2.11.64,3.03,1.13.92.49,1.74,1.07,2.49,1.75.74.68,1.4,1.42,1.98,2.22l-5.5,4.26c-.75-.95-1.58-1.71-2.49-2.26-.9-.55-2-.83-3.28-.83-.93,0-1.78.18-2.54.55-.77.36-1.43.86-1.98,1.49-.55.63-.99,1.37-1.3,2.22-.31.85-.47,1.76-.47,2.71v.08c0,.98.16,1.9.47,2.77s.75,1.61,1.3,2.24c.55.63,1.21,1.12,1.98,1.49.77.36,1.61.55,2.54.55.68,0,1.3-.08,1.86-.23.57-.15,1.08-.37,1.54-.66.46-.29.9-.63,1.32-1.02.41-.39.82-.82,1.22-1.3l5.5,3.92c-.63.85-1.31,1.64-2.05,2.37-.74.73-1.58,1.36-2.52,1.88-.94.53-2,.94-3.16,1.24-1.17.3-2.48.45-3.94.45Z"/>
          <path class="cls-1" d="M149.81,168.95c-1.88,0-3.58-.24-5.08-.72s-2.79-1.21-3.84-2.2c-1.06-.99-1.86-2.25-2.43-3.77-.57-1.52-.85-3.31-.85-5.37v-14.8h7.46v14.65c0,1.91.44,3.32,1.31,4.24.87.92,2.04,1.37,3.51,1.37s2.64-.44,3.51-1.32c.87-.88,1.31-2.25,1.31-4.11v-14.84h7.46v14.61c0,2.13-.3,3.97-.89,5.52-.59,1.54-1.42,2.81-2.49,3.8-1.07.99-2.36,1.73-3.88,2.2-1.52.48-3.22.72-5.1.72Z"/>
          <path class="cls-1" d="M174.03,142.1h7.72l6.29,10.21,6.29-10.21h7.72v26.37h-7.27v-15.14l-6.72,10.32h-.15l-6.69-10.25v15.07h-7.19v-26.37Z"/>
          <path class="cls-1" d="M223.37,141.91h7.04l11.22,26.55h-7.83l-1.92-4.71h-10.17l-1.88,4.71h-7.68l11.22-26.55ZM229.78,158.1l-2.94-7.5-2.98,7.5h5.91Z"/>
          <path class="cls-1" d="M251.73,142.1h6.83l10.87,13.94v-13.94h7.19v26.37h-6.42l-11.29-14.46v14.46h-7.19v-26.37Z"/>
          <path class="cls-1" d="M297.95,141.91h7.04l11.22,26.55h-7.83l-1.92-4.71h-10.17l-1.88,4.71h-7.68l11.22-26.55ZM304.35,158.1l-2.94-7.5-2.98,7.5h5.91Z"/>
          <path class="cls-1" d="M336.67,168.91c-2.36,0-4.6-.37-6.72-1.1-2.12-.73-4-1.83-5.63-3.3l4.07-4.87c2.64,2.11,5.49,3.16,8.55,3.16.98,0,1.73-.16,2.24-.47.51-.31.77-.76.77-1.34v-.08c0-.28-.06-.52-.19-.73-.13-.21-.36-.42-.7-.62-.34-.2-.79-.39-1.36-.58-.56-.19-1.3-.38-2.2-.58-1.41-.33-2.71-.68-3.92-1.07-1.21-.39-2.25-.89-3.14-1.5s-1.59-1.38-2.11-2.29c-.52-.92-.77-2.05-.77-3.4v-.08c0-1.23.23-2.36.7-3.38.46-1.03,1.14-1.92,2.03-2.67.89-.75,1.96-1.33,3.22-1.75,1.26-.41,2.67-.62,4.26-.62,2.26,0,4.28.3,6.04.89,1.77.59,3.37,1.47,4.8,2.63l-3.65,5.18c-1.21-.85-2.44-1.5-3.71-1.94-1.27-.44-2.49-.66-3.67-.66-.88,0-1.54.16-1.98.49-.44.33-.66.73-.66,1.2v.08c0,.3.07.56.21.79.14.23.38.43.72.62.34.19.8.38,1.39.56s1.34.38,2.24.58c1.51.33,2.87.71,4.09,1.15,1.22.44,2.25.97,3.11,1.6.85.63,1.51,1.38,1.96,2.27.45.89.68,1.95.68,3.18v.08c0,1.35-.26,2.56-.77,3.61s-1.24,1.95-2.17,2.69-2.05,1.3-3.35,1.69c-1.31.39-2.76.58-4.37.58Z"/>
        </g>
        <path class="cls-1" d="M132.27,87.35c0,3.2-.32,6.07-.95,8.63-1.26,5.12-3.79,8.96-7.58,11.52-1.89,1.28-4.1,2.25-6.63,2.89s-5.37.97-8.52.98c-3.15,0-5.98-.32-8.5-.96-10.08-2.56-15.12-10.25-15.12-23.07V18.27h16.46s0-.7,0,2.97c0-.63,0,.08,0,1.29v4.34c0,1.4,0,2.49,0,2.43v-4.43c0-2.5,0-3.03,0-2.14v9.83c0,.19,0,0,0-.87v-9.66c0-.55,0,.01,0,1.83v9.36c0,.65,0-.42,0-.2v7.54c0-2.75,0,.38,0-.43,0-.06,0,2.31,0,4.94v6.56c0,.51,0,.54,0-.18v-9.6s0,1.52,0,4.33c0-2.22,0-.64,0,.4s0,1.52,0-2.89c0-3.08,0-4.29,0-4.13v13.25c0-4.58,0-1.79,0-3.25,0-1.36,0-2.57,0-1.7v18c0,1.47,0,2.08,0,2.07v-10.08s0,1.08,0,2.49v4.25c0,1.14,0,1.73,0,.9,0-2,0,6.7,0,2.21,0-1.51,0,.14,0,2.03s0,4,0,3.41c0,1.87,0,2.02,0,1.29v-7.96c0-.79,0-.73,0,1.03,0-.21,0-.86,0-.73v9.69c0,1.84,0,2.09,0,.1,0,4.41,0,1.96,0-.01,0-2.92,0-1.74,0,.35v5.8c0,2.79,0,3.3,0,1.69v2.97c0,2.58.6,4.51,1.79,5.8.6.64,1.34,1.13,2.24,1.45.89.32,1.94.48,3.13.48s2.25-.16,3.16-.48,1.65-.81,2.25-1.45,1.05-1.45,1.35-2.42c.3-.97.45-2.1.45-3.39v-31.97c0-2.71,0-4.16,0-2.57,0,1.19,0-.58,0-3.35v-20.76c0-.8,0-.88,0,.36v-10.79h16.46v69.08Z"/>
        <path class="cls-1" d="M242.58,110.24c0,15.98-7.89,23.99-23.68,24.03-15.75,0-23.62-8.01-23.62-24.03V40.43c0-15.98,7.87-23.97,23.62-23.97s23.68,7.99,23.68,23.97v27.98h-16.46v-27.98c0-5.12-2.39-7.7-7.16-7.74h-.12c-4.73,0-7.1,2.58-7.1,7.74v69.81c0,5.16,2.39,7.74,7.16,7.74s7.21-2.58,7.21-7.74v-8.09h-7.16v-16.29h23.62v24.38Z"/>
        <path class="cls-1" d="M279.06,81.56v-41.13c0-5.16-2.37-7.74-7.1-7.74h-.12c-4.77.04-7.16,2.62-7.16,7.74v27.98h-16.46v-27.98c0-15.98,7.89-23.97,23.68-23.97s23.62,7.99,23.62,23.97v91.98h-14.72l-1.16-7.04c-3.34,5.9-8.26,8.86-14.78,8.9-5.35,0-9.4-2.02-12.13-6.05-2.73-4.03-4.1-8.98-4.1-14.83,0-19.24,10.14-29.84,30.43-31.82ZM279.06,97.21c-9.31,2.33-13.96,7.14-13.96,14.43,0,4.97,1.11,7.45,3.32,7.45,7.1-.54,10.65-5.82,10.65-15.82v-6.05Z"/>
        <g>
          <path class="cls-1" d="M39,79.77c.14,0,.29.02.44.03-.15-.28-.29-.16-.44-.03Z"/>
          <path class="cls-1" d="M43.32,87.25s.01,0,.02-.01c0,0,0,0,0,0,0,0,0,0-.01,0,0,0,0,.02,0,.02Z"/>
          <path class="cls-1" d="M48.2,74.33c-.06.1-.15.16-.26.18h0c-.17.12-.34.24-.5.36-.19.14-.39.27-.58.41-.21.17-.42.35-.64.51-.22.16-.45.32-.7.44-.27.24-.56.48-.86.73-.03.03-.06.05-.09.08-.14.11-.29.23-.43.34-.2.16-.4.32-.6.48-.09.07-.18.13-.26.2-.27.21-.54.42-.83.63-.15.11-.31.23-.46.34-.22.16-.44.33-.66.49t0,0c-.06.06-.12.12-.18.18-.95.83-1.95,1.6-2.98,2.32l1.18,4.84c.63-.58,1.25-1.15,1.88-1.73.84-.76,1.66-1.53,2.62-2.15.26-.27.56-.48.87-.68.1-.07.2-.14.31-.2,1.49-1.12,3.08-2.09,4.73-2.96.22-.14.44-.28.67-.4.23-.12.46-.24.7-.33,0,0,0,0,0,0h0s0,0,0,0c.24-.17.49-.32.79-.39.95-.52,1.96-.93,2.98-1.29,1.11-.43,2.23-.87,3.34-1.3,2.41-1.06,4.83-2.11,7.24-3.17.03.04.05.08.08.12-.64.66-1.44,1.14-2.2,1.65-1.33,1-2.71,1.94-4.09,2.86-2.16,1.54-4.32,3.08-6.48,4.62-1.57,1.13-3.7,2.8-5.57,3.78-.22.24-.46.44-.78.53-.71.48-1.42.96-2.13,1.44-.02.04-.05.07-.08.1-.05.06-.11.1-.19.1-.04,0-.08,0-.13-.03,0,0,0,0,0,0h0s-.09.06-.15.08c-.06.02-.12.05-.16.1,0,0,0,0,0,0,.27-.06.52-.19.8-.19,0,0,0,0,0,0,.14-.05.28-.09.42-.14.14-.05.28-.1.42-.14.03-.04.06-.06.1-.08.04-.01.08-.02.13-.02.05-.02.09-.04.14-.05,1.69-.74,3.44-1.31,5.2-1.85.59-.18,1.17-.36,1.76-.54,1.03-.32,2.05-.67,3.11-.89.08-.02.16-.04.24-.07.23-.11.47-.17.72-.19h0c.82-.27,1.64-.49,2.49-.62h0c.15-.1.31-.12.49-.12,1.65-.46,3.32-.81,5.01-1.08l15.38-63.37h-17.45l-11.23,58.99-.84-4.44c-.76.5-1.52,1.01-2.28,1.51Z"/>
          <polygon class="cls-1" points="55.95 83.99 55.95 83.99 55.96 83.99 55.95 83.98 55.95 83.98 55.95 83.99"/>
          <path class="cls-1" d="M52.79,79.14s0,.04,0,.07c0-.02,0-.04,0-.06,0,0,0,0-.01,0Z"/>
          <polygon class="cls-1" points="40.16 79.62 40.16 79.62 40.16 79.62 40.16 79.62 40.16 79.62"/>
          <path class="cls-1" d="M46.05,113.71s.02.06.03.09c0-.03-.02-.05-.02-.08,0,0,0,0-.01,0Z"/>
          <path class="cls-1" d="M46.06,100.12s.02-.02.04-.03c0,0-.02,0-.03,0,0,.01,0,.02,0,.04Z"/>
          <path class="cls-1" d="M40.65,79.77s0,0,.02.01c0,0,0,0,.01-.01,0,0-.02,0-.03,0Z"/>
          <path class="cls-1" d="M63.61,83.02c-.53.4-1.16.6-1.76.85-.02.03-.04.04-.08.02-.72.32-1.44.65-2.16.97-.02.03-.04.04-.08.03-1.88.9-3.76,1.8-5.68,2.61-.8.48-1.72.68-2.56,1.06-.1.04-.19.08-.29.12-.65.26-1.28.56-1.96.74-2.43.95-4.79,2.08-7.29,2.85-.28.09-.55.2-.82.29-.06.03-.12.05-.18.08l1.32,5.41c.06.03.13.05.19.08.77.19,1.52.4,2.27.65.19.06.38.12.57.19h0c.36.11.76.11,1.08.34.44.08.87.19,1.29.35,0,0,0,0,0,0h0c.1.02.2.05.3.11,1.71.47,3.4.97,5.07,1.55.17.15.44.05.61.23-.17.17-.34,0-.52.01-.2.05-.39-.1-.59-.04-1.89-.11-3.79-.21-5.68-.32-.18-.01-.36-.05-.54-.08-.2.1-.39.02-.58-.01-.41.05-.82.02-1.23-.05-.06.03-.12.03-.18.02-.17.01-.33,0-.49-.05l-.04.02-.04-.02c-.25,0-.51,0-.77-.01l.33,1.37v5.92c.29.25.57.52.84.8.1.06.18.12.26.19.08.07.15.16.21.25.32.24.6.51.84.83.19.12.35.27.46.47.83.86,1.66,1.72,2.5,2.58.57.55,1.15,1.1,1.72,1.65l-2.16.39c-.27-.15-.52-.32-.73-.57,0,0,0-.02,0-.03h0c-.1.01-.2-.02-.28-.07-.99-.63-2.02-1.2-3-1.85-.14-.1-.33-.17-.33-.4-.02.01-.03.02-.05.04-.09-.02-.18-.08-.28-.11v19.94h16.46v-30.02l4.79-19.74c-.26.12-.51.24-.77.37Z"/>
          <path class="cls-1" d="M36.23,70.79c.42-.24.84-.47,1.28-.68,2.35-1.47,4.71-2.94,7.07-4.4.06-.03.14-.03.21-.04.1-.05.21-.11.35-.18.05-.02.08-.04.14-.07-.03.07-.06.13-.09.18-.09.16-.17.26-.3.31-.61.59-1.23,1.19-1.84,1.78-.47.51-.97.99-1.48,1.46-.51.47-1.03.93-1.53,1.41-1.25,1.19-2.52,2.37-3.78,3.55l1.19,4.89c.22-.13.43-.26.65-.39,1.96-1.17,3.96-2.27,6.03-3.24,1.09-.56,2.21-1.07,3.33-1.55.56-.24,1.13-.48,1.69-.72.43-.18.86-.36,1.29-.54l-10.34-54.3h-17.45l12.89,52.95c.23-.14.46-.28.7-.42Z"/>
          <path class="cls-1" d="M47.71,74.21s.01,0,.02,0c0,0,0,0,0,0,0,0-.01,0-.02,0Z"/>
        </g>
        <g>
          <path class="cls-1" d="M146.96,42.32c-.13-.14-.26-.29-.39-.42-.09-.06-.17-.13-.24-.21-.07-.08-.13-.17-.19-.26-.21-.18-.39-.37-.57-.58-.17-.21-.34-.43-.49-.65-1.19-1.55-2.45-3.04-3.53-4.67-.07-.11-.16-.22-.23-.33-.12-.14-.28-.27-.27-.48-.01-.02-.02-.03-.03-.05v9.03c.31.36.62.72.94,1.08,1.28,1.43,2.63,2.78,4.07,4.05.51.42,1.03.84,1.54,1.27.72.62,1.44,1.24,2.16,1.86.85.75,1.71,1.48,2.43,2.36.3.23.54.5.78.79.08.09.16.19.24.28,1.28,1.35,2.43,2.82,3.47,4.36.09.11.17.22.25.33v-6.97c-.21-.22-.43-.44-.64-.67-.13-.14-.26-.28-.39-.42-.19-.2-.38-.4-.56-.6,0,0,0,0,0,0-.07-.05-.13-.11-.2-.16-1.48-1.34-2.8-2.81-4.05-4.36-1.34-1.54-2.69-3.08-4.1-4.57Z"/>
          <path class="cls-1" d="M142.94,27.79s.05-.03.07-.04c0,0-.01,0-.02-.01-.02.01-.04.03-.06.04,0,0,0,0,0,0Z"/>
          <path class="cls-1" d="M154.89,47.21s-.07.02-.1.04c-.02.02-.03.03-.04.05.08.03.14.05.18.08,0-.06,0-.12-.03-.17,0,0,0,0,0,0Z"/>
          <path class="cls-1" d="M153.37,46.32s0,0,0,0h0s0,.02,0,.03c0,0,0,0,0,0,0,0,0-.02,0-.02Z"/>
          <polygon class="cls-1" points="155.09 50.26 155.09 50.26 155.09 50.26 155.09 50.26 155.09 50.26"/>
          <path class="cls-1" d="M154.99,50.79s0,0,.02,0c0,0,0-.02,0-.03,0,0,0,.01,0,.02Z"/>
          <path class="cls-1" d="M154.83,49.57c.26-.18.13-.31-.02-.44.02.14.01.29.02.44Z"/>
          <path class="cls-1" d="M144.53,22.6h0s0,0,0,0c0,0,0,0,0,0,0,0,0,0,0,0,0,0,0,0-.01,0,0,0,0,0,.01,0Z"/>
          <path class="cls-1" d="M141.08,19.72s0,0,0,0c0,0,0,.02,0,.02,0,0,0,0,.01,0,0,0,0,0-.01-.01Z"/>
          <path class="cls-1" d="M142.65,23.6s-.08,0-.12.01c.03.03.05.05.07.08t0,0s.03-.06.05-.09Z"/>
          <path class="cls-1" d="M144.47,22.91s.02,0,.03.02c0,0,0-.01,0-.02-.01,0-.02,0-.04,0Z"/>
          <path class="cls-1" d="M141.02,25.25c.33.24.63.53.91.84,0,0,0,0,0,0,.03-.01.06-.02.1-.02.03,0,.07,0,.1.03.96.62,1.95,1.2,2.85,1.9.01.04.01.06.02.1.47.13.97.4,1.49.74,0,0,.02.01.03.02.51.34,1.04.73,1.57,1.11-.06-.06-.11-.12-.16-.19-.05-.07-.09-.15-.11-.23,0-.01,0-.02.01-.04-.32-.31-.65-.61-.97-.92-.29-.29-.59-.57-.88-.86-.02.01-.03.02-.05.03-.13-.06-.25-.12-.37-.2-.1-.06-.18-.14-.26-.21-.02-.01-.03-.02-.05-.04-.19-.18-.35-.4-.48-.65-.17.03-.28-.08-.39-.19-.67-.63-1.38-1.21-2.05-1.84-.13-.12-.28-.23-.28-.43-.35-.25-.69-.55-1.02-.87v1.91Z"/>
          <path class="cls-1" d="M144.54,22.44s0,0,0,0c0,.03,0,.06.01.09,0-.04,0-.07,0-.08Z"/>
          <polygon class="cls-1" points="146.28 25.21 146.28 25.21 146.28 25.21 146.28 25.21"/>
          <polygon class="cls-1" points="144.62 28.86 144.62 28.86 144.62 28.86 144.62 28.86"/>
          <path class="cls-1" d="M144.51,29.46s-.01,0-.02,0c0,0,.01.02.02.02,0,0,0-.02,0-.02Z"/>
          <path class="cls-1" d="M147.89,54.28s0,0,0-.01c0,0-.01,0-.02,0,0,0,0,.01.01.02,0,0,0,0,0,0Z"/>
          <path class="cls-1" d="M148.46,27.96h0s0,.05,0,.08c.02-.03.03-.06.05-.08.01,0,0-.01,0-.02,0,0,0,0,0,0-.01,0-.03-.01-.04-.01,0,0,0,0,0,0,0,0,0,.02,0,.03,0,0,0,.01,0,.01Z"/>
          <path class="cls-1" d="M155.32,40.68s0,.06,0,.09c.02-.02.03-.04.05-.06,0,0,0,0,0,0-.02,0-.03-.02-.04-.03Z"/>
          <path class="cls-1" d="M153.85,33.6s0,0,0,0c-.06-.07-.14-.12-.22-.14.13.15.25.3.39.46,0,0,0,0,0,0-.05-.13-.1-.23-.17-.3Z"/>
          <path class="cls-1" d="M150.15,28.51s.03.03.05.04c0-.03,0-.07-.01-.1-.01.02-.02.04-.03.06Z"/>
          <path class="cls-1" d="M152.08,31.63s0,0,.02,0c0,0,0,0,0-.01,0,0,0,.01-.01,0Z"/>
          <path class="cls-1" d="M154.15,39.89s-.04.03-.07.05c.03.01.06.03.09.03,0-.03,0-.06,0-.1,0,0-.01.01-.02.02Z"/>
          <path class="cls-1" d="M160.82,42.82s.04.02.06.03c0-.03,0-.05,0-.09-.01.02-.04.04-.06.05Z"/>
          <path class="cls-1" d="M156.32,41.39s.04.04.06.06c-.02-.03-.03-.05-.04-.08,0,0-.01,0-.02.01Z"/>
          <path class="cls-1" d="M155.97,40.02s-.06.06-.09.1c.02.01.02.03.03.04,0-.03.02-.06.04-.09,0-.02.01-.03.02-.05Z"/>
          <path class="cls-1" d="M142.79,50.13s-.02-.01-.03-.02c0,.02,0,.04,0,.07.01-.02.02-.03.04-.05Z"/>
          <path class="cls-1" d="M154.64,63.01c-1.3-1.43-3.21-3.35-4.39-5.1-.26-.19-.49-.41-.62-.72-.56-.65-1.12-1.3-1.67-1.95-.04-.02-.08-.04-.11-.06-.06-.05-.11-.1-.12-.18,0-.04,0-.08.02-.13,0,0,0,0,0,0h0s-.07-.08-.1-.14c-.03-.05-.06-.11-.11-.15,0,0,0,0,0,0,.09.26.25.49.28.77,0,0,0,0,0,0,.06.13.13.27.19.4.06.13.13.27.19.4.04.02.07.06.09.09.02.04.03.08.03.12.02.04.05.09.07.13.93,1.6,1.69,3.27,2.43,4.96.25.56.49,1.13.74,1.69.43.99.9,1.96,1.24,2.99.03.08.06.15.09.23.14.21.22.44.27.69h0c.36.78.67,1.58.9,2.4h0c.12.13.16.3.17.47.67,1.65,1.23,3.34,1.7,5.05.2.47.34.97.44,1.47.12.16.15.35.18.55-.23,0-.26-.19-.34-.32-.72-.84-1.22-1.83-1.83-2.75-.45-.48-.72-1.08-1.04-1.65-.03-.01-.05-.04-.03-.07-.4-.68-.81-1.36-1.21-2.04-.04-.01-.05-.04-.04-.07-1.11-1.76-2.22-3.53-3.24-5.35-.57-.74-.87-1.63-1.34-2.42-.05-.09-.1-.18-.15-.28-.33-.62-.7-1.21-.95-1.87-1.22-2.3-2.61-4.52-3.66-6.92-.12-.27-.26-.52-.38-.78-.06-.11-.13-.23-.19-.34-.21-.29-.39-.6-.44-.96-.03-.14-.22-.19-.2-.36-.05-.07-.1-.13-.13-.21-.03-.07-.05-.15-.03-.24-.08-.15-.15-.3-.23-.45-.03-.07-.06-.13-.09-.2v82.68h15.88v-66.89c-.75-.84-1.51-1.67-2.26-2.51Z"/>
          <path class="cls-1" d="M144.86,48.2s0,0,.01-.01c.02-.02,0-.11-.02-.13-.03-.02-.08-.04-.13-.05.06.06.11.12.13.19Z"/>
          <path class="cls-1" d="M142.34,50.73s.03,0,.05,0c0,0,0-.01,0-.02,0,0,0,0,0,0-.02.01-.02.02-.05.03Z"/>
          <path class="cls-1" d="M143.37,47.73c.06-.01.13-.02.22-.02-.04-.02-.07-.02-.11-.01,0,0,0,0,0,0-.04,0-.07.02-.1.04Z"/>
          <polygon class="cls-1" points="152.55 66.45 152.54 66.45 152.54 66.45 152.55 66.46 152.55 66.45 152.55 66.45"/>
          <path class="cls-1" d="M161.32,57.18s0,0,0,0c0,0,0-.01,0-.02,0,0,0,.01,0,.02Z"/>
          <path class="cls-1" d="M172.44,18.27v31.42l-17.86-31.42h-13.55c1.19,1.05,2.38,2.11,3.52,3.21,1.03.87,2,1.8,2.95,2.76.33.28.66.57.92.92.2.06.3.2.4.35.03.05.07.1.1.15.24.25.47.5.71.75.44.4.83.84,1.2,1.31.4.38.78.78,1.1,1.23.96,1.08,1.9,2.18,2.71,3.37.71.9,1.37,1.83,1.91,2.85.69,1.02,1.24,2.12,1.82,3.2.34.65.69,1.29,1.16,1.86.61.64,1.14,1.34,1.64,2.07.5.6.97,1.23,1.38,1.91.3.38.59.76.88,1.15.29.39.56.78.82,1.19,1.73,2.17,3.45,4.35,5.17,6.52.04.05.04.13.06.2.06.09.13.2.22.33.03.04.05.08.09.13-.07-.03-.13-.05-.19-.07-.17-.07-.28-.14-.34-.27-.66-.54-1.32-1.09-1.98-1.63-.56-.41-1.09-.85-1.62-1.31-.52-.45-1.04-.92-1.57-1.36-1.67-1.4-3.33-2.82-5-4.23-.93-.79-1.86-1.59-2.8-2.39-.19-.04-.32-.17-.43-.31-.06-.02-.11-.06-.14-.11-.59-.45-1.16-.94-1.7-1.46-.82-.59-1.57-1.26-2.3-1.96-.25-.11-.38-.35-.58-.51-.14-.12-.28-.25-.42-.38-.92-.78-1.81-1.61-2.65-2.47-.6-.5-1.21-1-1.7-1.61-.87-.61-1.6-1.39-2.41-2.07-.45-.37-.87-.78-1.3-1.17-.57-.4-1.12-.84-1.64-1.3v2.69c1.1,1.15,2.21,2.29,3.3,3.45.9.85,1.78,1.72,2.65,2.61s1.7,1.8,2.51,2.74c.8.89,1.61,1.79,2.41,2.68.29.33.58.65.87.98.58.65,1.15,1.32,1.7,2,.27.34.54.69.8,1.04.2.26.4.52.59.78,1.39,1.81,2.71,3.68,3.91,5.63.68,1.02,1.31,2.07,1.92,3.14.31.53.61,1.06.9,1.6.3.53.59,1.07.89,1.61-.05.03-.09.05-.13.08-.69-.83-1.39-1.65-2.08-2.48-.1-.05-.18-.13-.21-.24h0c-.14-.15-.27-.31-.41-.46-.16-.18-.32-.35-.47-.53-.2-.19-.4-.38-.58-.58-.19-.2-.37-.41-.52-.64-.04-.04-.09-.08-.13-.12l13.51,24.28v53.06h15.88V18.27h-15.88Z"/>
          <path class="cls-1" d="M149.78,27.46s0,.03,0,.05c.02-.02.04-.04.05-.06-.02,0-.04,0-.06.01Z"/>
        </g>
        <g>
          <path class="cls-1" d="M341.91,59.13s0,0,0,0c.1,0,.18-.02.25-.07-.2,0-.39,0-.6,0,0,0,0,0,0,0,.13.05.24.08.34.08Z"/>
          <path class="cls-1" d="M346.61,40.43s0,.03,0,.05c0,0,.02,0,.03,0,0-.02-.02-.02-.03-.04Z"/>
          <path class="cls-1" d="M346.85,42.9c.13.06.22.19.33.27.04.03.08.05.13.07-.02-.03-.04-.04-.06-.05-.02,0-.05-.02-.07-.03-.13-.1-.22-.23-.34-.33-.03-.03-.07-.06-.1-.09.02.04.03.09.03.13.03,0,.06.01.08.02Z"/>
          <path class="cls-1" d="M348.19,59.79s-.01-.04-.02-.06c-.02,0-.04,0-.06,0,.03.02.05.04.08.06Z"/>
          <path class="cls-1" d="M348.22,50.85c-.42.02-.83.03-1.25.05-1.24.11-2.47.2-3.71.25-1.24.06-2.48.08-3.72.07-1.2.01-2.4.02-3.61.03-.44,0-.87,0-1.31,0-.87,0-1.75-.01-2.62-.05-.08,0-.17-.01-.25-.02v4.16c.63-.09,1.25-.18,1.88-.27.16-.11.33-.13.52-.11.06-.03.12-.04.17-.03.73-.14,1.47-.24,2.21-.31.99-.22,1.99-.34,2.99-.42.25-.11.51-.05.77-.09.19-.02.37-.04.56-.07,1.2-.17,2.4-.29,3.61-.35.77-.12,1.55-.25,2.34-.21.47-.11.94-.18,1.41-.23v-2.41Z"/>
          <path class="cls-1" d="M346.68,39.34s0,0,0,0c0,0,0,0,0,0,.02,0,.04,0,.06,0-.01,0-.02,0-.03,0,0,0-.02,0-.03,0Z"/>
          <path class="cls-1" d="M336.68,39.16s-.02.03-.03.04c0,0,0,0,.01.01,0,0,0,0,0,0,0-.02,0-.03,0-.05Z"/>
          <path class="cls-1" d="M336.83,39.84s0,.04.01.06c0,0,.02,0,.03-.01-.02-.02-.03-.03-.05-.05Z"/>
          <path class="cls-1" d="M345.13,42.34s0,.02-.01.02c.01,0,.02,0,.04,0-.01-.01-.02-.02-.03-.03,0,0,0,0,0,0Z"/>
          <path class="cls-1" d="M333.79,48.25c2.05.01,4.09.02,6.14-.05.19,0,.39,0,.58-.01.11-.03.21-.04.32-.04.11,0,.21.01.32.03.27-.04.54-.05.81-.04.27,0,.54.03.81.06,1.82.13,3.64.18,5.45.4v-3.25c-1.19-.66-2.38-1.35-3.52-2.1-.17-.11-.34-.21-.51-.31-.1-.01-.2-.03-.3-.04-.09,0-.19.01-.28.01-.09,0-.19-.01-.28-.06-.64-.02-1.28-.02-1.92-.02-1.92.01-3.83.13-5.73.37-.66.1-1.31.21-1.97.32-.65.09-1.3.18-1.95.26v4.42c.68,0,1.35.01,2.03.04Z"/>
          <path class="cls-1" d="M338.26,41.93c-.03.06-.07.12-.13.18.04-.02.06-.04.08-.07,0,0,0,0,0,0,.02-.03.03-.07.04-.1Z"/>
          <path class="cls-1" d="M337.02,42.81s.08-.04.12-.06c-.08.01-.16,0-.23-.03,0,0,0,0,0,.02,0,.03.08.08.11.07Z"/>
          <path class="cls-1" d="M344.55,59.12s0,0-.01,0c0,0,0,0,0,0,0,0,0-.01,0-.01Z"/>
          <path class="cls-1" d="M343.82,35.22s-.01,0-.02-.01c0,0,0,0,0,.01,0,0,.01,0,.02,0Z"/>
          <path class="cls-1" d="M332.81,82.49c-10.28-6.2-15.42-13.79-15.42-22.75v-1.81c-.13,0-.25-.01-.38-.02-.07,0-.13-.06-.19-.09-.11-.02-.24-.03-.39-.05-.05,0-.09-.01-.16-.02.07-.04.12-.07.18-.09.16-.08.28-.12.43-.08.17-.03.34-.06.52-.08v-8.28c-.56-.12-1.12-.25-1.68-.37.01-.05.02-.1.03-.15.55.01,1.1.03,1.65.04v-5.22c-.85-.13-1.69-.31-2.52-.54-1.16-.28-2.32-.56-3.48-.85-2.58-.52-5.17-1.03-7.75-1.55,0-.05,0-.1,0-.15.91-.18,1.83-.11,2.75-.09,1.66-.06,3.33-.04,4.99,0,2-.02,4.01-.04,6.02-.06.01-1.38.2-2.57.56-3.57-.24-.04-.46-.12-.67-.25h0c-.82-.25-1.62-.54-2.39-.92h0c-.18,0-.33-.08-.47-.18-1.68-.59-3.32-1.28-4.91-2.07-.49-.16-.95-.39-1.39-.64-.2-.02-.36-.12-.54-.23.15-.17.31-.07.47-.04,1.11.02,2.18.3,3.27.45.66-.02,1.29.17,1.92.31.03-.02.06,0,.08.02.78.15,1.55.3,2.33.45.03-.02.06-.01.08.02,1.27.21,2.53.43,3.8.66,1.17-1.06,2.82-1.59,4.97-1.59h.12c3.5.03,5.71,1.43,6.65,4.2,1.1.25,2.2.52,3.28.87.28.09.56.15.84.23.13.03.25.05.38.08.36.03.71.1,1.01.31.12.07.29-.04.4.09.08,0,.17.01.24.04.08.02.15.06.2.14.16.04.33.09.49.13.63.2,1.26.38,1.89.59.62.21,1.23.46,1.81.8.1.03.22.02.29.13.32.08.58.28.85.47.05.04.1.08.15.12.57.24,1.1.55,1.61.9.32.12.63.25.95.37.2.06.41.12.61.17.07.02.12.06.17.09-.04-.05-.09-.09-.12-.15-1.34-1.2-2.65-2.45-3.85-3.79-.12-.14-.24-.28-.36-.42-.93-.9-1.79-1.87-2.55-2.91-.23-.25-.49-.47-.69-.75-.07-.09-.12-.19-.17-.3-.12-.13-.23-.26-.35-.39-.3-.34-.64-.65-.86-1.06-.52-.59-1.02-1.2-1.49-1.83-.12-.16-.25-.32-.36-.48h0c-.23-.29-.56-.52-.69-.89-.32-.32-.61-.66-.86-1.03,0,0,0,0,0,0h0c-.07-.07-.13-.16-.19-.26-1.13-1.36-2.23-2.74-3.27-4.18-.05-.23-.33-.3-.37-.54.23-.04.29.19.43.28.19.07.26.31.46.37,1.49,1.17,2.98,2.34,4.47,3.52.14.11.27.25.4.37.22.03.33.21.47.34.37.2.69.46.98.74.07,0,.12.04.16.09.14.08.27.19.38.32h.04s.02.05.02.05c2.22,1.55,4.74,3.5,7.02,5.58.9.75,1.8,1.5,2.56,2.4.13.07.26.17.4.31.03.03.06.06.09.09-.02-.38-.06-.76-.09-1.13-.15-.24-.31-.49-.46-.74-.59-.98-1.14-1.98-1.64-3.01-.25-.52-.48-1.04-.69-1.57-.25-.4-.42-.83-.56-1.28-.5-1.1-.9-2.24-1.22-3.4-.23-.54-.4-1.09-.5-1.66-.29-.79-.51-1.6-.62-2.44-.04-.08-.06-.17-.09-.26-3.95-3.98-9.86-5.97-17.73-5.97-15.75,0-23.62,7.99-23.62,23.97v19.66c0,13.23,5.14,23.5,15.42,30.83,10.28,7.37,15.42,13.81,15.42,19.31,0,5.16-2.39,7.74-7.16,7.74s-7.21-2.58-7.21-7.74v-8.03h-16.46v8.03c0,15.98,7.89,23.99,23.68,24.03,15.75,0,23.62-8.01,23.62-24.03,0-11.17-5.14-20.42-15.42-27.75Z"/>
          <path class="cls-1" d="M343.49,35.54s-.02-.02-.03-.03h0s0,0,0,0c0,.05.03.08.06.12,0-.03-.01-.06-.02-.09h0Z"/>
          <path class="cls-1" d="M344.24,36.27s.01-.02.02-.04c-.02,0-.03,0-.05-.01-.01,0-.03,0-.04-.01.02.02.04.05.07.06Z"/>
          <path class="cls-1" d="M335.49,28.86s-.03,0-.05,0c0,0,.01.01.02.02.01,0,.02-.02.03-.03Z"/>
          <path class="cls-1" d="M342.94,37.71s0,0,0,0c.03-.01.04-.04.05-.07-.03,0-.06-.02-.09-.04,0,.02.02.04.02.06,0,.01.01.03.01.04Z"/>
          <polygon class="cls-1" points="344.98 26.45 344.99 26.45 344.99 26.45 344.99 26.45 344.99 26.45 344.98 26.45"/>
          <path class="cls-1" d="M336.99,55.2s0-.06,0-.09c-.03.01-.06.02-.08.05.03.02.05.04.08.06,0,0,0-.02,0-.02Z"/>
          <path class="cls-1" d="M334.43,55.85s0-.01,0-.02c-.03,0-.06,0-.09,0,.03,0,.06.01.09.02Z"/>
          <path class="cls-1" d="M335.67,56.43s.01.03.02.05c0-.04,0-.08-.01-.13-.02,0-.03,0-.05,0,.02.02.03.06.04.09Z"/>
          <path class="cls-1" d="M335.57,55.56s.03,0,.05,0c-.02-.02-.05-.04-.07-.06,0,.03,0,.05.01.07,0,0,0,0,0,0Z"/>
          <path class="cls-1" d="M348.22,60.77c-.52.05-1.04.06-1.56,0-1.44,0-2.89-.02-4.32-.2-1.15-.06-2.28-.18-3.4-.45-1.22-.16-2.41-.47-3.6-.76-.71-.17-1.42-.34-2.16-.37-.47.02-.95,0-1.42-.03v9.44h16.46v-7.64Z"/>
          <path class="cls-1" d="M332.69,50.35h0s-.02,0-.03-.02c0,0,0,0,0,0,0,0,.01,0,.02.01,0,0,0,0,0,0Z"/>
        </g>
        <polygon class="cls-1" points="132.54 122.69 122.83 112.98 115.23 120.57 107.63 112.98 100.03 120.57 92.44 112.98 82.72 122.69 92.44 132.41 100.03 124.81 107.63 132.41 115.23 124.81 122.83 132.41 132.54 122.69"/>
      </g>
    </g>
  </g>
</svg>